<svg width="20" height="20" viewBox="0 0 20 20" fill="none" xmlns="http://www.w3.org/2000/svg">
<g clip-path="url(#clip0_440_9636)">
<path d="M6.86203 20H3.09631C1.38901 20 0 18.611 0 16.9037V13.138C0 5.87494 5.90027 0 13.138 0H16.9037C18.611 0 20 1.38901 20 3.09631V6.86203C20 14.1251 14.0998 20 6.86203 20Z" fill="#583640"/>
<path d="M6.86203 20C14.0998 20 20 14.1251 20 6.86206V3.09634C20 2.24276 19.6527 1.46869 19.0921 0.907928L0.907898 19.0921C1.46866 19.6527 2.24273 20 3.09631 20H6.86203Z" fill="#844A4A"/>
<path d="M6.64871 13.3513C6.41983 13.1226 6.41983 12.7514 6.64871 12.5228L12.5228 6.64871C12.7514 6.41983 13.1226 6.41983 13.3513 6.64871C13.5802 6.87744 13.5802 7.24853 13.3513 7.47726L7.47726 13.3513C7.24838 13.5802 6.87744 13.58 6.64871 13.3513Z" fill="#CBCFD7"/>
<path d="M7.47725 13.3514L13.3513 7.47731C13.5802 7.24858 13.5802 6.87749 13.3513 6.64876L6.6487 13.3514C6.87743 13.5801 7.24836 13.5803 7.47725 13.3514Z" fill="#B9BEC8"/>
<path d="M19.9639 7.8382L12.1617 0.0360718C10.6288 0.149139 9.16808 0.526336 7.82471 1.12189L18.8787 12.1758C19.4738 10.8335 19.8509 9.37293 19.9639 7.8382Z" fill="#C69687"/>
<path d="M12.1753 18.8781L1.12138 7.82416C0.526291 9.16647 0.149094 10.627 0.0361786 12.1617L7.8383 19.9639C9.3712 19.8508 10.8319 19.4736 12.1753 18.8781Z" fill="#C69687"/>
<path d="M19.9639 7.83825L16.0628 3.93718L13.3513 6.64867L18.8787 12.1761C19.4738 10.8335 19.8509 9.37297 19.9639 7.83825Z" fill="#B0705B"/>
<path d="M12.1753 18.8779L6.6487 13.3512L3.93721 16.0627L7.83828 19.9638C9.37118 19.8507 10.8319 19.4735 12.1753 18.8779Z" fill="#B0705B"/>
<path d="M8.95815 13.5524L6.44763 11.042C6.21889 10.8133 6.21889 10.4422 6.44763 10.2134C6.67651 9.98456 7.04745 9.98456 7.27633 10.2134L9.78671 12.7238C10.0156 12.9526 10.0156 13.3237 9.78671 13.5524C9.55782 13.7815 9.18688 13.7812 8.95815 13.5524Z" fill="#F0F2F4"/>
<path d="M10.8409 11.6695L8.33039 9.15916C8.10166 8.93028 8.10166 8.55933 8.33039 8.33046C8.55927 8.10172 8.93021 8.10172 9.15909 8.33046L11.6694 10.841C11.8983 11.0697 11.8983 11.4408 11.6694 11.6695C11.4408 11.8986 11.0696 11.8984 10.8409 11.6695Z" fill="#F0F2F4"/>
<path d="M12.7237 9.78668L10.2133 7.2763C9.98442 7.04742 9.98442 6.67647 10.2133 6.4476C10.442 6.21886 10.8131 6.21886 11.0419 6.4476L13.5524 8.95812C13.7811 9.18685 13.7811 9.55794 13.5524 9.78668C13.3233 10.0156 12.9524 10.0156 12.7237 9.78668Z" fill="#F0F2F4"/>
<path d="M9.78668 13.5523C10.0156 13.3236 10.0156 12.9526 9.78668 12.7238L8.53149 11.4686L7.70294 12.2972L8.95813 13.5523C9.18685 13.7812 9.5578 13.7814 9.78668 13.5523Z" fill="#DEE1E5"/>
<path d="M11.6694 11.6695C11.8983 11.4408 11.8983 11.0698 11.6694 10.841L10.4143 9.58577L9.58571 10.4143L10.8409 11.6695C11.0696 11.8984 11.4408 11.8985 11.6694 11.6695Z" fill="#DEE1E5"/>
<path d="M13.5522 9.78664C13.7811 9.55792 13.7811 9.18682 13.5522 8.9581L12.2971 7.70291L11.4685 8.53146L12.7237 9.78664C12.9524 10.0155 13.3233 10.0155 13.5522 9.78664Z" fill="#DEE1E5"/>
</g>
<defs>
<clipPath id="clip0_440_9636">
<rect width="20" height="20" fill="white"/>
</clipPath>
</defs>
</svg>
