<svg width="20" height="20" viewBox="0 0 20 20" fill="none" xmlns="http://www.w3.org/2000/svg">
<g clip-path="url(#clip0_440_9691)">
<mask id="mask0_440_9691" style="mask-type:luminance" maskUnits="userSpaceOnUse" x="0" y="0" width="20" height="20">
<path d="M20 0H0V20H20V0Z" fill="white"/>
</mask>
<g mask="url(#mask0_440_9691)">
<path d="M12.9566 7.95172C12.9566 8.15421 12.7925 8.31839 12.5899 8.31839H8.76576C7.85267 8.31839 6.97788 7.88413 6.42537 7.1569L5.72727 6.2371C5.6049 6.07567 5.63634 5.84541 5.79761 5.72319C5.9586 5.60081 6.18885 5.63224 6.31108 5.79368L7.00978 6.71348C7.4242 7.25913 8.08049 7.58521 8.76591 7.58521H12.5899C12.7925 7.58506 12.9566 7.74939 12.9566 7.95172Z" fill="#4E7693"/>
<path d="M12.9566 7.95157C12.9566 8.15404 12.7923 8.31823 12.5899 8.31823H10.5762C10.8293 8.04526 11.1073 7.80034 11.406 7.5849H12.5899C12.7923 7.5849 12.9566 7.74923 12.9566 7.95157Z" fill="#2F5E75"/>
<path d="M15.1645 7.46465C15.1645 7.7178 14.9593 7.92303 14.7061 7.92303C14.4856 7.92303 14.2674 7.93996 14.0535 7.97339C12.905 8.15161 11.8692 8.79582 11.2015 9.77208L11.1641 9.82688L9.44702 12.3378C9.31289 12.5339 9.14154 12.6961 8.94592 12.8171C8.68362 12.9806 8.37692 13.0703 8.05862 13.0703H6.92153C6.66793 13.0703 6.46315 12.865 6.46315 12.6119C6.46315 12.3588 6.66793 12.1536 6.92153 12.1536H8.05877C8.14651 12.1536 8.23211 12.1387 8.31267 12.11C8.46435 12.0569 8.59711 11.9567 8.69048 11.8205L10.325 9.42968L10.445 9.25451C11.2258 8.11254 12.4215 7.34395 13.7556 7.09448C14.0663 7.03603 14.3842 7.00629 14.7061 7.00629C14.9593 7.00629 15.1645 7.21151 15.1645 7.46465Z" fill="#1685FB"/>
<path d="M7.62771 12.1536H6.92153C6.66793 12.1536 6.46315 12.3588 6.46315 12.6119C6.46315 12.865 6.66793 13.0704 6.92153 13.0704H7.62771C7.64464 12.9198 7.65348 12.7669 7.65348 12.6119C7.65348 12.457 7.64464 12.3042 7.62771 12.1536Z" fill="#4C60E1"/>
<path d="M3.58536 9.02643C1.60508 9.02643 0 10.6318 0 12.612C0 14.5919 1.60508 16.1975 3.58536 16.1975C5.56549 16.1975 7.17057 14.5919 7.17057 12.612C7.17057 10.6318 5.56549 9.02643 3.58536 9.02643ZM1.26389 12.612C1.26389 11.3299 2.30317 10.2908 3.58536 10.2908C4.86756 10.2908 5.90699 11.3299 5.90699 12.612C5.90699 13.8939 4.86756 14.9334 3.58536 14.9334C2.30317 14.9334 1.26389 13.8939 1.26389 12.612Z" fill="#43A3F9"/>
<path d="M11.1641 9.82699L9.447 12.3379C9.31303 12.534 9.1415 12.6963 8.94605 12.8173C8.67886 12.6406 8.45945 12.3967 8.31265 12.1103C8.46433 12.057 8.59709 11.9569 8.69046 11.8206L10.325 9.42981C10.6398 9.48978 10.9266 9.62984 11.1641 9.82699Z" fill="#4C60E1"/>
<path d="M11.3559 11.2616C11.3559 12.0251 10.737 12.644 9.97363 12.644C9.21007 12.644 8.59117 12.0251 8.59117 11.2616C8.59117 10.4981 9.21007 9.87927 9.97363 9.87927C10.737 9.87927 11.3559 10.4981 11.3559 11.2616Z" fill="#4E7693"/>
<path d="M11.3662 13.8206H10.5307C10.3918 13.8206 10.271 13.7258 10.2377 13.591L9.68044 11.3337C9.64046 11.1719 9.73934 11.0084 9.90108 10.9684C10.063 10.9283 10.2265 11.0273 10.2665 11.189L10.767 13.2169H11.3662C11.533 13.2169 11.6681 13.3519 11.6681 13.5186C11.6681 13.6854 11.533 13.8206 11.3662 13.8206Z" fill="#A7C7D3"/>
<path d="M7.45207 6.10175H4.21584C3.9575 6.10175 3.77958 5.84251 3.87236 5.60126C4.093 5.02814 4.67955 4.68253 5.28777 4.76722L7.52303 5.07804C7.77724 5.11344 7.96645 5.33073 7.96645 5.58737C7.96629 5.87134 7.73619 6.10175 7.45207 6.10175Z" fill="#FC3E4B"/>
<path d="M7.96659 5.58749C7.96659 5.72955 7.90907 5.85804 7.81568 5.95096C7.7226 6.04434 7.59428 6.10187 7.45221 6.10187H4.21598C3.95734 6.10187 3.77943 5.84231 3.87236 5.60123C3.88883 5.55866 3.90699 5.5176 3.92744 5.47778C3.99381 5.5614 4.09604 5.61695 4.21598 5.61695H7.45221C7.59428 5.61695 7.7226 5.55941 7.81552 5.46649C7.85139 5.43064 7.8816 5.39005 7.90571 5.34534C7.94477 5.41766 7.96659 5.50021 7.96659 5.58749Z" fill="#F01014"/>
<path d="M14.7061 7.00629C14.3844 7.00629 14.0664 7.03603 13.7557 7.09448L14.0536 7.97336C14.2676 7.93995 14.4857 7.92302 14.7061 7.92302C14.9594 7.92302 15.1646 7.71779 15.1646 7.46465C15.1646 7.21151 14.9594 7.00629 14.7061 7.00629Z" fill="#4C60E1"/>
<path d="M19.8229 11.5496C19.4011 10.3044 18.3162 9.47146 17.0953 9.31094C16.432 9.22351 15.8808 8.75598 15.6663 8.12213L14.9303 5.94836L14.377 4.31491C14.3716 4.29919 14.3656 4.28438 14.3589 4.26944C14.2546 4.03812 13.9899 3.91971 13.7448 4.00272C13.5371 4.07305 13.4059 4.267 13.4059 4.47513C13.4059 4.52212 13.4132 4.57004 13.4273 4.61748C13.4288 4.62359 13.4304 4.62924 13.4324 4.63488L13.9955 6.29717L14.7231 8.44577C14.9408 9.08755 14.7661 9.79144 14.29 10.2739C13.4216 11.1536 13.0763 12.4855 13.519 13.7342C14.1079 15.3967 16.0103 16.3365 17.688 15.7942C19.4623 15.2207 20.4189 13.3092 19.8229 11.5496ZM17.408 14.8183C16.1935 15.2296 14.8756 14.5784 14.4643 13.364C14.053 12.15 14.7039 10.8319 15.9188 10.4207C17.1328 10.0095 18.4506 10.6606 18.8619 11.8748C19.2731 13.0892 18.6224 14.4071 17.408 14.8183Z" fill="#FC3E4B"/>
<path d="M14.9303 5.94839L13.9955 6.2972L13.4324 4.63491C13.4304 4.62927 13.429 4.62363 13.4273 4.61753L14.359 4.26947C14.3657 4.28443 14.3718 4.29923 14.377 4.31494L14.9303 5.94839Z" fill="#F01014"/>
<path d="M17.6534 6.77245C17.6085 6.77245 17.5634 6.76497 17.5197 6.74956L16.5451 6.407C16.335 6.33314 16.2246 6.10289 16.2984 5.89277C16.3722 5.68266 16.6024 5.57219 16.8126 5.64604L17.0319 5.7231L16.7342 4.75889L13.7979 5.85585C13.5892 5.93382 13.3568 5.82793 13.279 5.61934C13.201 5.4106 13.3069 5.17821 13.5157 5.10023L16.8522 3.85359C16.9562 3.81483 17.0717 3.82047 17.1714 3.86945C17.271 3.91843 17.346 4.00632 17.3789 4.11237L18.0388 6.24999C18.0837 6.39555 18.0429 6.5541 17.933 6.65969C17.8568 6.73323 17.756 6.77245 17.6534 6.77245Z" fill="#43A3F9"/>
</g>
</g>
<defs>
<clipPath id="clip0_440_9691">
<rect width="20" height="20" fill="white"/>
</clipPath>
</defs>
</svg>
