<svg width="20" height="20" viewBox="0 0 20 20" fill="none" xmlns="http://www.w3.org/2000/svg">
<g clip-path="url(#clip0_440_9655)">
<path d="M9.98051 20C15.4926 20 19.961 15.5229 19.961 10C19.961 4.47716 15.4926 0 9.98051 0C4.46842 0 0 4.47716 0 10C0 15.5229 4.46842 20 9.98051 20Z" fill="#78B22A"/>
<path d="M19.961 10C19.961 9.78062 19.9531 9.56312 19.9393 9.34722L15.4153 4.81445L4.51668 15.1545L9.33119 19.9784C9.54592 19.9923 9.7623 20 9.9805 20C15.4926 20 19.961 15.5229 19.961 10Z" fill="#679C20"/>
<path d="M9.98049 17.5196C14.1253 17.5196 17.4853 14.1529 17.4853 10C17.4853 5.84708 14.1253 2.48047 9.98049 2.48047C5.83567 2.48047 2.47562 5.84708 2.47562 10C2.47562 14.1529 5.83567 17.5196 9.98049 17.5196Z" fill="white"/>
<path d="M9.98052 2.48047C9.97494 2.48047 9.96941 2.48067 9.9638 2.48067V17.5193C9.96937 17.5193 9.97491 17.5194 9.98052 17.5194C14.1253 17.5194 17.4853 14.1529 17.4853 9.99996C17.4853 5.84704 14.1253 2.48047 9.98052 2.48047Z" fill="#F0F0F0"/>
<path d="M9.98052 6.90247L7.08256 9.01207L8.18946 12.4255H11.7716L12.8784 9.01207L9.98052 6.90247Z" fill="#555A66"/>
<path d="M12.8785 9.01207L9.98052 6.90247L9.9638 6.91461V12.4255H11.7716L12.8785 9.01207Z" fill="#414952"/>
<path d="M7.25574 2.99172L9.9805 4.97528L12.7052 2.99176C11.8605 2.6618 10.9417 2.48047 9.9805 2.48047C9.01929 2.48047 8.10042 2.6618 7.25574 2.99172Z" fill="#555A66"/>
<path d="M12.7052 2.99172C11.8606 2.6618 10.9417 2.48047 9.98052 2.48047C9.97494 2.48047 9.96941 2.48067 9.9638 2.48067V4.96309L9.98052 4.97524L12.7052 2.99172Z" fill="#414952"/>
<path d="M14.7239 8.38878L17.4753 10.3918C17.4819 10.262 17.4853 10.1314 17.4853 10.0001C17.4853 8.17542 16.8366 6.50272 15.7578 5.2005L14.7239 8.38878Z" fill="#414952"/>
<path d="M11.8837 17.2753C13.7351 16.7904 15.3078 15.6149 16.3111 14.0399H12.9328L11.8837 17.2753Z" fill="#414952"/>
<path d="M4.20322 5.2005C3.12444 6.50272 2.47562 8.17542 2.47562 10.0001C2.47562 10.1314 2.47906 10.262 2.48568 10.3918L5.23715 8.38878L4.20322 5.2005Z" fill="#555A66"/>
<path d="M7.02822 14.0399H3.6499C4.65321 15.6149 6.22596 16.7904 8.07743 17.2753L7.02822 14.0399Z" fill="#555A66"/>
</g>
<defs>
<clipPath id="clip0_440_9655">
<rect width="20" height="20" fill="white"/>
</clipPath>
</defs>
</svg>
