<svg width="20" height="20" viewBox="0 0 20 20" fill="none" xmlns="http://www.w3.org/2000/svg">
<path d="M10 20C15.5229 20 20 15.5229 20 10C20 4.47716 15.5229 0 10 0C4.47716 0 0 4.47716 0 10C0 15.5229 4.47716 20 10 20Z" fill="#088C35"/>
<path d="M15.1703 5.58024C13.9225 4.12201 12.0698 3.19635 10.0002 3.19635C6.24319 3.19635 3.19743 6.24216 3.19743 9.99929C3.19743 12.1288 4.17657 14.0292 5.70807 15.2764C6.8791 16.23 8.37267 16.8023 10.0002 16.8023C13.7575 16.8023 16.8033 13.7566 16.8033 9.99929C16.8033 8.31194 16.1876 6.76925 15.1703 5.58024Z" fill="#EDECE8"/>
<path d="M14.9861 14.6262C14.0488 15.4534 13.1039 16.0166 12.8609 16.1558C12.5096 15.6371 12.121 14.897 11.7637 14.1511C15.0097 12.1249 16.0239 9.16718 16.3412 7.5362C16.2886 7.40041 16.2312 7.26668 16.1701 7.13528C15.9461 8.60141 15.0724 11.7906 11.6599 13.933C11.1104 12.7666 10.6542 11.6419 10.5555 11.3961C11.6158 10.4914 13.9063 5.85202 14.4066 4.81869C14.344 4.76549 14.2791 4.71494 14.2147 4.66393C14.1124 4.87506 13.9026 5.3036 13.6281 5.84712C11.9807 4.01291 9.07154 3.66173 7.68404 3.6019C7.49568 3.67009 7.31186 3.74715 7.13169 3.83101C8.04612 3.83244 11.6973 3.9747 13.5113 6.07766C13.1101 6.86719 12.5984 7.84491 12.0877 8.74514C10.1368 6.97836 4.78445 7.00395 3.88329 7.02101C3.84444 7.10073 3.80795 7.18177 3.77228 7.26309C3.88582 7.25912 9.99982 7.10141 11.9671 8.95597C11.3398 10.0457 10.7288 10.9817 10.3437 11.2604C4.37052 10.9716 3.31021 9.7723 3.30012 9.76014L3.20634 9.66163C3.18911 9.84181 3.19764 9.94112 3.19764 9.99293C3.32934 10.1069 3.63678 10.3217 4.27708 10.5571C4.0535 11.7183 4.21534 13.1262 4.30106 13.711C4.35633 13.7956 4.41236 13.8793 4.47126 13.9611L4.58072 13.9411C4.57709 13.922 4.24279 12.0623 4.50555 10.6366C5.10291 10.8359 5.94247 11.0428 7.11585 11.2104C7.3573 14.405 8.59005 16.0874 9.23099 16.758C9.35619 16.7722 9.48235 16.7831 9.60962 16.7903C9.13036 16.3489 7.63425 14.7087 7.3592 11.2433C8.1866 11.3536 9.17115 11.4439 10.3396 11.5001C10.5338 11.9856 11.7006 14.8589 12.648 16.2682C13.5413 15.8904 14.336 15.3263 14.9861 14.6262Z" fill="#9D9D9D"/>
</svg>
