<svg width="20" height="20" viewBox="0 0 20 20" fill="none" xmlns="http://www.w3.org/2000/svg">
<g clip-path="url(#clip0_440_9713)">
<mask id="mask0_440_9713" style="mask-type:luminance" maskUnits="userSpaceOnUse" x="0" y="0" width="20" height="20">
<path d="M20 0H0V20H20V0Z" fill="white"/>
</mask>
<g mask="url(#mask0_440_9713)">
<path d="M12.4739 2.5164C12.4739 1.53524 11.7781 0.740021 10.9195 0.740021C10.0616 0.740021 9.36517 1.53529 9.36517 2.5164C9.36517 3.49752 9.94779 4.29278 10.9752 4.29278C11.3666 4.29278 12.0031 4.21462 12.2767 3.94107C12.6023 3.61544 12.4739 3.04995 12.4739 2.5164Z" fill="#D5AB88"/>
<path d="M10.53 19.3062C10.2031 19.3062 9.93781 19.0415 9.93781 18.714V16.9377C9.93781 16.6102 10.2031 16.3455 10.53 16.3455C10.8568 16.3455 11.1221 16.6102 11.1221 16.9377V18.714C11.1221 19.0415 10.8568 19.3062 10.53 19.3062Z" fill="#4289C1"/>
<path d="M4.94538 19.9436C4.82756 19.9992 4.69079 20.0164 4.55397 19.9832C4.23598 19.9056 4.04119 19.5858 4.11816 19.2679L4.51488 17.6336C4.59186 17.3168 4.91098 17.1207 5.22959 17.1984C5.54757 17.2753 5.74237 17.5957 5.66539 17.9131L5.26867 19.5474C5.22485 19.7286 5.10229 19.8695 4.94538 19.9436Z" fill="#4289C1"/>
<path d="M11.5736 4.94826L11.3031 2.61939C11.2675 2.2937 10.9632 2.04322 10.6417 2.08117C10.3172 2.11728 10.0792 2.40268 10.1153 2.72775L10.3521 4.88487H7.63782L4.17083 3.17188C3.84516 3.11796 3.5432 3.33587 3.48928 3.65801C3.43537 3.98072 3.65389 4.28565 3.97599 4.33957L7.167 5.99041C7.19958 5.99572 7.55601 6.06916 7.5886 6.06916H9.21635C9.22165 6.2243 9.26729 6.41732 9.36498 6.6613C9.95712 8.14161 11.1413 11.3984 11.1413 11.3984C12.4493 11.3984 12.6957 8.60172 12.6957 7.13026C12.6957 6.77262 12.8727 6.68378 12.8123 6.47832C13.5057 6.38891 13.6023 6.69149 13.922 6.76731C13.922 6.76731 12.8567 4.83631 11.5736 4.94826Z" fill="#D5AB88"/>
<path d="M8.28557 15.0236C8.01552 14.7855 7.95396 14.3793 8.15765 14.0691L11.0094 9.71872C11.232 9.37883 11.6886 9.28348 12.0279 9.50617C12.366 9.73235 12.4631 10.1853 12.2399 10.5247L9.3881 14.8756C9.16489 15.2155 8.70895 15.3102 8.36905 15.0876C8.33943 15.068 8.31165 15.0466 8.28557 15.0236Z" fill="#D5AB88"/>
<path d="M5.00002 17.9588C4.81761 17.6876 4.84134 17.3276 5.06871 17.118L8.25556 14.1745C8.50484 13.9442 8.90396 13.982 9.14674 14.2586C9.38833 14.5369 9.38593 14.9455 9.1367 15.1752L5.94923 18.1187C5.70052 18.349 5.30145 18.3112 5.05804 18.0346C5.03671 18.0103 5.01776 17.9848 5.00002 17.9588Z" fill="#D5AB88"/>
<path d="M10.2468 16.923C10.1378 16.6394 10.2296 16.3197 10.4741 16.1788L13.9002 14.1962C14.1684 14.0411 14.5172 14.1601 14.6794 14.461C14.8393 14.7636 14.7571 15.1319 14.4889 15.2863L11.0627 17.2688C10.7951 17.4234 10.4463 17.3049 10.2835 17.0041C10.2692 16.9776 10.2574 16.9509 10.2468 16.923Z" fill="#D5AB88"/>
<path d="M14.2822 15.3281C13.9666 15.4383 13.6095 15.3021 13.4514 14.996L11.2339 10.703C11.061 10.3678 11.1925 9.95515 11.5276 9.78226C11.8645 9.61171 12.2749 9.74021 12.4478 10.076L14.6654 14.3689C14.8388 14.7041 14.7074 15.1168 14.3723 15.2897C14.3426 15.3051 14.313 15.3175 14.2822 15.3281Z" fill="#D5AB88"/>
<path d="M14.2823 7.26884L12.0026 6.07987C11.7321 5.93893 11.6266 5.60201 11.7675 5.33144C11.9084 5.06087 12.2454 4.9548 12.516 5.09573L14.7956 6.28477C15.0662 6.42627 15.1716 6.76319 15.0308 7.03381C14.8898 7.30381 14.553 7.40978 14.2823 7.26884Z" fill="#D5AB88"/>
<path d="M17.6964 7.77451L14.5569 7.31086C14.2549 7.26647 14.0442 6.98284 14.0892 6.68084C14.1336 6.37945 14.4172 6.16863 14.7186 6.21307L17.8587 6.67673C18.1607 6.72111 18.3709 7.00475 18.3265 7.30675C18.2821 7.6087 17.9984 7.8189 17.6964 7.77451Z" fill="#D5AB88"/>
<path d="M9.66146 10.1888C9.66146 10.1888 9.18595 11.389 9.02727 11.8877C8.86859 12.3862 8.53875 12.9529 8.53875 12.9529C8.53875 12.9529 9.54182 13.8275 10.3122 13.8049L11.4283 12.1825L12.4195 13.5794C12.4195 13.5794 13.4309 12.8509 14.1266 12.7307C14.1266 12.7307 13.2403 10.9135 13.0365 10.5286C12.8328 10.1431 12.3342 9.64517 12.3342 9.64517L9.66146 10.1888Z" fill="#2A6797"/>
<path d="M9.09801 4.76968C9.09801 4.76968 9.85238 4.81407 10.1632 4.83598C10.1632 4.83598 10.2076 5.32451 10.962 5.347C11.717 5.3689 11.9165 4.96921 11.9165 4.96921C11.9165 4.96921 12.4939 5.01361 12.9154 5.28006C13.337 5.54653 13.9806 5.85737 13.9806 5.85737C13.9806 5.85737 13.3814 6.36776 13.6035 6.92258L13.0043 6.63656C13.0043 6.63656 13.0849 6.88345 13.1215 7.34596C13.1772 8.0411 13.0019 10.2486 13.0907 10.4488C13.0907 10.4488 12.3257 10.251 11.203 10.3748C10.5161 10.45 9.23594 10.942 9.23594 10.942C9.41475 10.1959 9.52196 9.07561 9.55038 8.43792C9.60601 7.18556 9.32004 6.30094 8.94283 6.2121C8.56505 6.12326 8.27668 6.10141 8.27668 6.10141C8.27668 6.10141 8.36551 5.70172 8.27668 5.39086C8.18785 5.08058 8.14345 4.85857 8.14345 4.85857C8.14345 4.85857 8.83156 4.81407 9.09801 4.76968Z" fill="#4289C1"/>
<path d="M4.036 4.29275C4.036 3.63847 3.50606 3.10846 2.85172 3.10846C2.19738 3.10846 1.66748 3.63842 1.66748 4.29275C1.66748 4.94709 2.19744 5.47699 2.85172 5.47699C3.506 5.47699 4.036 4.94704 4.036 4.29275Z" fill="#226699"/>
<path d="M11.9064 0.258831C11.4926 -0.0295388 10.4492 -0.131959 9.74165 0.241657C8.94285 0.663881 8.7427 1.44016 8.87592 2.23953C8.99849 2.97376 9.35144 3.2781 9.35144 3.2781C9.48701 3.42377 9.84704 3.03948 9.64043 2.71494C9.39828 2.33482 9.46692 1.88532 9.74051 1.85753C9.93411 1.8374 10.142 1.95111 10.0863 2.12462C10.0194 2.33368 10.1052 2.4195 10.1052 2.4195C10.1052 2.4195 10.2645 2.53316 10.425 2.04822C10.509 1.7942 11.1101 1.83386 11.993 1.43359C12.0972 1.38681 12.3631 1.68346 12.4382 2.34487C12.4542 2.48814 12.7207 2.04764 12.7573 1.7267C12.819 1.19498 12.4364 0.628336 11.9064 0.258831Z" fill="#963B22"/>
</g>
</g>
<defs>
<clipPath id="clip0_440_9713">
<rect width="20" height="20" fill="white"/>
</clipPath>
</defs>
</svg>
