<svg width="20" height="20" viewBox="0 0 20 20" fill="none" xmlns="http://www.w3.org/2000/svg">
<g clip-path="url(#clip0_440_9672)">
<mask id="mask0_440_9672" style="mask-type:luminance" maskUnits="userSpaceOnUse" x="0" y="0" width="20" height="20">
<path d="M20 0H0V20H20V0Z" fill="white"/>
</mask>
<g mask="url(#mask0_440_9672)">
<path d="M7.16659 7.1665C2.32619 12.0073 -0.252722 17.2772 1.23475 18.7651L18.7652 1.23465C17.2773 -0.252829 12.0074 2.32609 7.16659 7.1665Z" fill="#FFF2BE"/>
<path d="M12.8334 12.8334C17.6738 7.9925 20.2527 2.72263 18.7652 1.23471L1.23474 18.7652C2.72265 20.2527 7.99252 17.6737 12.8334 12.8334Z" fill="#F9DE70"/>
<path d="M7.16688 7.16626C12.0077 2.32586 17.2776 -0.253049 18.7655 1.23443C16.1756 -1.35547 9.90841 0.226061 5.06757 5.06695C0.226718 9.90784 -1.35482 16.175 1.23504 18.7649C-0.252435 17.277 2.32648 12.0071 7.16688 7.16626Z" fill="#5C9DCF"/>
<path d="M18.7652 1.23471C20.2527 2.72263 17.6738 7.99248 12.8334 12.8334C7.99252 17.6737 2.72265 20.2526 1.23474 18.7652C3.82504 21.3551 10.0919 19.7735 14.9327 14.9326C19.7736 10.0918 21.3551 3.82461 18.7652 1.23471Z" fill="#168FED"/>
</g>
</g>
<defs>
<clipPath id="clip0_440_9672">
<rect width="20" height="20" fill="white"/>
</clipPath>
</defs>
</svg>
