<svg width="12" height="12" viewBox="0 0 12 12" fill="none" xmlns="http://www.w3.org/2000/svg">
<g clip-path="url(#clip0_440_9625)">
<path d="M5.40554 10.3837L0.245543 5.50984C0.167738 5.43842 0.105619 5.35161 0.0631245 5.25492C0.0206303 5.15823 -0.00131226 5.05377 -0.00131226 4.94815C-0.00131226 4.84253 0.0206303 4.73807 0.0631245 4.64138C0.105619 4.54469 0.167738 4.45788 0.245543 4.38646C0.407293 4.23672 0.61959 4.15355 0.840005 4.15355C1.06042 4.15355 1.27272 4.23672 1.43447 4.38646L6.00001 8.7L10.5655 4.38738C10.7273 4.23811 10.9394 4.15523 11.1595 4.15523C11.3797 4.15523 11.5917 4.23811 11.7535 4.38738C11.8311 4.45887 11.893 4.54565 11.9353 4.64224C11.9776 4.73883 11.9995 4.84315 11.9995 4.94861C11.9995 5.05407 11.9776 5.15839 11.9353 5.25498C11.893 5.35158 11.8311 5.43835 11.7535 5.50984L6.59354 10.3837C6.43254 10.5339 6.22018 10.6168 6.00001 10.6154C5.77953 10.6169 5.56683 10.534 5.40554 10.3837Z" fill="white"/>
</g>
<defs>
<clipPath id="clip0_440_9625">
<rect width="12" height="12" fill="white" transform="matrix(1 0 0 -1 0 12)"/>
</clipPath>
</defs>
</svg>
