<svg width="12" height="12" viewBox="0 0 12 12" fill="none" xmlns="http://www.w3.org/2000/svg">
<g clip-path="url(#clip0_440_9631)">
<path d="M5.40554 1.61631L0.245543 6.49016C0.167738 6.56158 0.105619 6.64839 0.0631245 6.74508C0.0206303 6.84177 -0.00131226 6.94623 -0.00131226 7.05185C-0.00131226 7.15747 0.0206303 7.26193 0.0631245 7.35862C0.105619 7.45531 0.167738 7.54212 0.245543 7.61354C0.407293 7.76328 0.61959 7.84645 0.840005 7.84645C1.06042 7.84645 1.27272 7.76328 1.43447 7.61354L6.00001 3.3L10.5655 7.61262C10.7273 7.76189 10.9394 7.84477 11.1595 7.84477C11.3797 7.84477 11.5917 7.76189 11.7535 7.61262C11.8311 7.54113 11.893 7.45435 11.9353 7.35776C11.9776 7.26117 11.9995 7.15685 11.9995 7.05139C11.9995 6.94593 11.9776 6.84161 11.9353 6.74502C11.893 6.64842 11.8311 6.56165 11.7535 6.49016L6.59354 1.61631C6.43254 1.46612 6.22018 1.38323 6.00001 1.38462C5.77953 1.38308 5.56683 1.46599 5.40554 1.61631Z" fill="white"/>
</g>
<defs>
<clipPath id="clip0_440_9631">
<rect width="12" height="12" fill="white"/>
</clipPath>
</defs>
</svg>
