<svg width="49" height="48" viewBox="0 0 49 48" fill="none" xmlns="http://www.w3.org/2000/svg">
<g clip-path="url(#clip0_440_11244)">
<path d="M22.9281 0.599019L5.70206 10.5445C4.57472 11.1954 3.88013 12.3983 3.88013 13.7001V34.4107C3.88013 35.7125 4.57463 36.9154 5.70206 37.5663L22.9282 47.5118C24.0556 48.1627 25.4446 48.1627 26.5719 47.5118L43.798 37.5663C44.9255 36.9154 45.62 35.7125 45.62 34.4107V13.7001C45.62 12.3983 44.9255 11.1954 43.798 10.5445L26.5719 0.599019C25.4445 -0.0518867 24.0555 -0.0518867 22.9281 0.599019Z" fill="url(#paint0_linear_440_11244)"/>
<path d="M43.7979 10.5445L26.5719 0.599019C25.4445 -0.0518867 24.0555 -0.0518867 22.9282 0.599019L5.70206 10.5445C4.57463 11.1954 3.88013 12.3983 3.88013 13.7001V24.9713H45.6199V13.7001C45.6199 12.3983 44.9254 11.1954 43.7979 10.5445Z" fill="url(#paint1_linear_440_11244)"/>
<path d="M43.6283 12.7463L25.8586 23.0056C25.1726 23.4017 24.75 24.1337 24.75 24.9258V46.2641C24.75 47.2862 25.8563 47.9249 26.7414 47.4139L44.5112 37.1545C45.1973 36.7585 45.6198 36.0265 45.6198 35.2344V13.896C45.6199 12.874 44.5135 12.2352 43.6283 12.7463Z" fill="url(#paint2_linear_440_11244)"/>
<path d="M5.87163 12.7462L23.6414 23.0056C24.3274 23.4017 24.7501 24.1337 24.7501 24.9258V46.2641C24.7501 47.2862 23.6437 47.9249 22.7585 47.4138L4.98878 37.1546C4.30272 36.7585 3.88019 36.0265 3.88019 35.2344V13.8961C3.88009 12.874 4.98653 12.2353 5.87163 12.7462Z" fill="url(#paint3_linear_440_11244)"/>
<path d="M16.7089 37.8748C16.7089 36.0959 17.7905 35.2782 19.1246 36.0486C20.4588 36.8189 21.5404 38.8855 21.5404 40.6644C21.5404 42.4433 20.4588 43.261 19.1246 42.4906C17.7904 41.7204 16.7089 39.6537 16.7089 37.8748Z" fill="url(#paint4_linear_440_11244)"/>
<path d="M7.08972 32.3213C7.08972 30.5423 8.17132 29.7247 9.50547 30.495C10.8396 31.2653 11.9212 33.3319 11.9212 35.1108C11.9212 36.8897 10.8396 37.7074 9.50547 36.937C8.17132 36.1668 7.08972 34.1002 7.08972 32.3213Z" fill="url(#paint5_linear_440_11244)"/>
<path d="M16.7089 25.0494C16.7089 23.2705 17.7905 22.4528 19.1246 23.2231C20.4588 23.9935 21.5404 26.06 21.5404 27.8389C21.5404 29.6178 20.4588 30.4355 19.1246 29.6652C17.7904 28.8949 16.7089 26.8284 16.7089 25.0494Z" fill="url(#paint6_linear_440_11244)"/>
<path d="M7.08972 19.4958C7.08972 17.7169 8.17132 16.8992 9.50547 17.6696C10.8396 18.4399 11.9212 20.5064 11.9212 22.2853C11.9212 24.0642 10.8396 24.8819 9.50547 24.1116C8.17132 23.3413 7.08972 21.2747 7.08972 19.4958Z" fill="url(#paint7_linear_440_11244)"/>
<path d="M5.46011 10.6842L23.2866 0.392133C24.1921 -0.130711 25.3078 -0.130711 26.2135 0.392133L44.0399 10.6842C44.7421 11.0897 44.7421 12.1032 44.0399 12.5086L26.2135 22.8007C25.3078 23.3236 24.1921 23.3236 23.2866 22.8007L5.46011 12.5086C4.75792 12.1032 4.75792 11.0897 5.46011 10.6842Z" fill="url(#paint8_linear_440_11244)"/>
<path d="M28.1504 13.5596C30.319 12.3077 30.5544 10.4137 28.6764 9.3295C26.7984 8.24528 23.5181 8.38122 21.3496 9.63325C19.1811 10.8852 18.9456 12.7791 20.8236 13.8633C22.7016 14.9476 25.9819 14.8116 28.1504 13.5596Z" fill="url(#paint9_linear_440_11244)"/>
<path d="M37.6007 28.6854C37.6007 26.9065 36.5191 26.0888 35.1849 26.8591C33.8508 27.6295 32.7692 29.696 32.7692 31.4749C32.7692 33.2538 33.8508 34.0715 35.1849 33.3012C36.5192 32.5308 37.6007 30.4643 37.6007 28.6854Z" fill="url(#paint10_linear_440_11244)"/>
<path d="M32.7912 37.8748C32.7912 36.0959 31.7096 35.2782 30.3755 36.0486C29.0413 36.8189 27.9597 38.8855 27.9597 40.6644C27.9597 42.4433 29.0413 43.261 30.3755 42.4906C31.7096 41.7204 32.7912 39.6537 32.7912 37.8748Z" fill="url(#paint11_linear_440_11244)"/>
<path d="M42.4102 32.3213C42.4102 30.5423 41.3286 29.7247 39.9945 30.495C38.6603 31.2653 37.5787 33.3319 37.5787 35.1108C37.5787 36.8897 38.6603 37.7074 39.9945 36.937C41.3286 36.1668 42.4102 34.1002 42.4102 32.3213Z" fill="url(#paint12_linear_440_11244)"/>
<path d="M32.7912 25.0494C32.7912 23.2705 31.7096 22.4528 30.3755 23.2231C29.0413 23.9935 27.9597 26.06 27.9597 27.8389C27.9597 29.6178 29.0413 30.4355 30.3755 29.6652C31.7096 28.8949 32.7912 26.8284 32.7912 25.0494Z" fill="url(#paint13_linear_440_11244)"/>
<path d="M42.4102 19.4958C42.4102 17.7169 41.3286 16.8992 39.9945 17.6696C38.6603 18.4399 37.5787 20.5064 37.5787 22.2853C37.5787 24.0642 38.6603 24.8819 39.9945 24.1116C41.3286 23.3413 42.4102 21.2747 42.4102 19.4958Z" fill="url(#paint14_linear_440_11244)"/>
</g>
<defs>
<linearGradient id="paint0_linear_440_11244" x1="24.75" y1="42.0714" x2="24.75" y2="-0.701761" gradientUnits="userSpaceOnUse">
<stop stop-color="#C9BAEC"/>
<stop offset="1" stop-color="#F3EEFA"/>
</linearGradient>
<linearGradient id="paint1_linear_440_11244" x1="-10.7847" y1="-2.23214" x2="25.511" y2="18.7231" gradientUnits="userSpaceOnUse">
<stop stop-color="#C9BAEC"/>
<stop offset="1" stop-color="#F3EEFA"/>
</linearGradient>
<linearGradient id="paint2_linear_440_11244" x1="35.1849" y1="56.9688" x2="35.1849" y2="9.07801" gradientUnits="userSpaceOnUse">
<stop stop-color="#C9BAEC"/>
<stop offset="1" stop-color="#F3EEFA"/>
</linearGradient>
<linearGradient id="paint3_linear_440_11244" x1="14.315" y1="34.4527" x2="14.315" y2="-8.32025" gradientUnits="userSpaceOnUse">
<stop stop-color="#C9BAEC"/>
<stop offset="1" stop-color="#F3EEFA"/>
</linearGradient>
<linearGradient id="paint4_linear_440_11244" x1="20.8072" y1="36.3552" x2="17.7905" y2="41.5804" gradientUnits="userSpaceOnUse">
<stop stop-color="#1D182F"/>
<stop offset="0.1795" stop-color="#292243"/>
<stop offset="0.5463" stop-color="#493D76"/>
<stop offset="1" stop-color="#7662BD"/>
</linearGradient>
<linearGradient id="paint5_linear_440_11244" x1="11.1881" y1="30.8017" x2="8.17132" y2="36.0268" gradientUnits="userSpaceOnUse">
<stop stop-color="#1D182F"/>
<stop offset="0.1795" stop-color="#292243"/>
<stop offset="0.5463" stop-color="#493D76"/>
<stop offset="1" stop-color="#7662BD"/>
</linearGradient>
<linearGradient id="paint6_linear_440_11244" x1="20.8072" y1="23.5299" x2="17.7905" y2="28.7551" gradientUnits="userSpaceOnUse">
<stop stop-color="#1D182F"/>
<stop offset="0.1795" stop-color="#292243"/>
<stop offset="0.5463" stop-color="#493D76"/>
<stop offset="1" stop-color="#7662BD"/>
</linearGradient>
<linearGradient id="paint7_linear_440_11244" x1="11.1881" y1="17.9762" x2="8.17132" y2="23.2014" gradientUnits="userSpaceOnUse">
<stop stop-color="#1D182F"/>
<stop offset="0.1795" stop-color="#292243"/>
<stop offset="0.5463" stop-color="#493D76"/>
<stop offset="1" stop-color="#7662BD"/>
</linearGradient>
<linearGradient id="paint8_linear_440_11244" x1="-7.87329" y1="-7.23865" x2="28.3841" y2="13.6945" gradientUnits="userSpaceOnUse">
<stop stop-color="#C9BAEC"/>
<stop offset="1" stop-color="#F3EEFA"/>
</linearGradient>
<linearGradient id="paint9_linear_440_11244" x1="27.2316" y1="15.8946" x2="23.1577" y2="8.83834" gradientUnits="userSpaceOnUse">
<stop stop-color="#63141A"/>
<stop offset="0.2842" stop-color="#981F28"/>
<stop offset="0.5147" stop-color="#C62834"/>
<stop offset="0.9681" stop-color="#FB4355"/>
<stop offset="1" stop-color="#FF4557"/>
</linearGradient>
<linearGradient id="paint10_linear_440_11244" x1="33.5023" y1="27.1658" x2="36.5191" y2="32.3909" gradientUnits="userSpaceOnUse">
<stop stop-color="#1D182F"/>
<stop offset="0.1795" stop-color="#292243"/>
<stop offset="0.5463" stop-color="#493D76"/>
<stop offset="1" stop-color="#7662BD"/>
</linearGradient>
<linearGradient id="paint11_linear_440_11244" x1="28.6928" y1="36.3552" x2="31.7095" y2="41.5804" gradientUnits="userSpaceOnUse">
<stop stop-color="#1D182F"/>
<stop offset="0.1795" stop-color="#292243"/>
<stop offset="0.5463" stop-color="#493D76"/>
<stop offset="1" stop-color="#7662BD"/>
</linearGradient>
<linearGradient id="paint12_linear_440_11244" x1="38.3119" y1="30.8017" x2="41.3286" y2="36.0268" gradientUnits="userSpaceOnUse">
<stop stop-color="#1D182F"/>
<stop offset="0.1795" stop-color="#292243"/>
<stop offset="0.5463" stop-color="#493D76"/>
<stop offset="1" stop-color="#7662BD"/>
</linearGradient>
<linearGradient id="paint13_linear_440_11244" x1="28.6928" y1="23.5299" x2="31.7095" y2="28.7551" gradientUnits="userSpaceOnUse">
<stop stop-color="#1D182F"/>
<stop offset="0.1795" stop-color="#292243"/>
<stop offset="0.5463" stop-color="#493D76"/>
<stop offset="1" stop-color="#7662BD"/>
</linearGradient>
<linearGradient id="paint14_linear_440_11244" x1="38.3119" y1="17.9762" x2="41.3286" y2="23.2014" gradientUnits="userSpaceOnUse">
<stop stop-color="#1D182F"/>
<stop offset="0.1795" stop-color="#292243"/>
<stop offset="0.5463" stop-color="#493D76"/>
<stop offset="1" stop-color="#7662BD"/>
</linearGradient>
<clipPath id="clip0_440_11244">
<rect width="48" height="48" fill="white" transform="translate(0.75)"/>
</clipPath>
</defs>
</svg>
