<svg width="49" height="48" viewBox="0 0 49 48" fill="none" xmlns="http://www.w3.org/2000/svg">
<path d="M38.7372 13.2494L34.8874 11.0267L34.0111 7.28397L30.1535 5.05853L30.1538 5.06022C29.912 4.9089 29.5886 4.93047 29.2446 5.15153L25.403 7.6209L22.4058 6.13722C21.9428 5.908 21.2831 6.2889 20.8202 7.05268L17.823 11.9972L13.9813 13.9638C13.3879 14.2676 12.8541 15.0928 12.6985 15.9472L11.6907 21.4784L8.47171 26.144C7.97446 26.8648 7.77065 27.8191 7.98168 28.4376L9.34809 32.4426L7.98168 38.0254C7.78284 38.838 7.95252 39.5226 8.38865 39.7217L8.3879 39.7217L11.9372 41.7708L12.6984 45.0696C12.7692 45.3765 12.9187 45.5857 13.116 45.6882L13.1146 45.6889L16.9838 47.922L38.7372 13.2494Z" fill="url(#paint0_linear_440_11069)"/>
<path d="M34.2731 8.40315L34.0111 7.28397L30.1535 5.05853L30.1538 5.06022C29.912 4.9089 29.5886 4.93047 29.2446 5.15153L25.403 7.6209L29.2832 9.85984L34.2731 8.40315Z" fill="url(#paint1_linear_440_11069)"/>
<path d="M16.9839 47.9221L15.5708 42.9412L11.9371 41.7709L12.6984 45.0697C12.7692 45.3765 12.9187 45.5857 13.1159 45.6882L13.1145 45.689L16.9839 47.9221Z" fill="url(#paint2_linear_440_11069)"/>
<path d="M9.34817 32.4426L7.98176 38.0254C7.78292 38.838 7.95261 39.5226 8.38873 39.7218L8.38798 39.7217L11.9373 41.7708L13.2286 34.6816L9.34817 32.4426Z" fill="url(#paint3_linear_440_11069)"/>
<path d="M20.8201 7.05269L17.8229 11.9973L21.7031 14.2362L29.2831 9.85985L25.4028 7.62091L22.4057 6.13722C21.9427 5.908 21.283 6.28891 20.8201 7.05269Z" fill="url(#paint4_linear_440_11069)"/>
<path d="M20.8201 7.05269L17.8229 11.9973L21.7031 14.2362L29.2831 9.85985L25.4028 7.62091L22.4057 6.13722C21.9427 5.908 21.283 6.28891 20.8201 7.05269Z" fill="url(#paint5_linear_440_11069)"/>
<path d="M21.7032 14.2361L17.823 11.9972L13.9813 13.9638C13.3878 14.2675 12.8541 15.0927 12.6985 15.9472L11.6907 21.4783L15.5709 23.7173L21.7032 14.2361Z" fill="url(#paint6_linear_440_11069)"/>
<path d="M21.7032 14.2361L17.823 11.9972L13.9813 13.9638C13.3878 14.2675 12.8541 15.0927 12.6985 15.9472L11.6907 21.4783L15.5709 23.7173L21.7032 14.2361Z" fill="url(#paint7_linear_440_11069)"/>
<path d="M7.98184 28.4377L9.34825 32.4427L13.2285 34.6817L15.5708 23.7173L11.6906 21.4784L8.47178 26.144C7.97463 26.8648 7.77072 27.8191 7.98184 28.4377Z" fill="url(#paint8_linear_440_11069)"/>
<path d="M7.98184 28.4377L9.34825 32.4427L13.2285 34.6817L15.5708 23.7173L11.6906 21.4784L8.47178 26.144C7.97463 26.8648 7.77072 27.8191 7.98184 28.4377Z" fill="url(#paint9_linear_440_11069)"/>
<path d="M26.286 8.37607L29.2832 9.85985L33.1249 7.39048C33.7183 7.00901 34.252 7.21788 34.4077 7.89251L35.4155 12.2599L38.6343 13.2089C39.1314 13.3555 39.3353 14.0744 39.1243 14.9367L37.7578 20.5195L39.1243 24.5245C39.3353 25.1432 39.1315 26.0974 38.6343 26.8181L35.4155 31.4839L34.4077 37.015C34.2519 37.8694 33.7182 38.6945 33.1249 38.9983L29.2832 40.9649L26.286 45.9094C25.8231 46.6732 25.1633 47.0541 24.7003 46.8249L21.7031 45.3411L17.8614 47.8105C17.268 48.192 16.7343 47.9831 16.5787 47.3085L15.5708 42.9411L12.352 41.9921C11.8549 41.8455 11.651 41.1266 11.8621 40.2643L13.2285 34.6815L11.8621 30.6766C11.651 30.0579 11.8549 29.1036 12.352 28.383L15.5708 23.7171L16.5787 18.1861C16.7344 17.3316 17.2681 16.5065 17.8614 16.2027L21.7031 14.2361L24.7003 9.29154C25.1633 8.52776 25.8231 8.14685 26.286 8.37607Z" fill="url(#paint10_linear_440_11069)"/>
<path d="M33.1248 7.39038L29.2831 9.85976L27.9674 9.10057L27.6581 9.23969L27.4924 8.82645L25.4028 7.62073L23.5197 6.68848L21.9112 12.5578L14.7278 17.6216L20.1353 20.8707L18.5692 31.1672L24.7847 22.6904L31.0002 23.9902L29.4341 15.5021L34.0866 7.33451C33.8401 7.14457 33.4941 7.15301 33.1248 7.39038Z" fill="url(#paint11_linear_440_11069)"/>
<path d="M14.1096 20.616L15.5818 24.288L19.2624 22.6326L16.4918 27.4965L17.2942 31.8454L14.1096 31.1794L10.9251 35.5227L11.7275 30.2472L8.95691 28.5825L12.6373 25.988L14.1096 20.616Z" fill="url(#paint12_linear_440_11069)"/>
<path d="M38.6344 13.2089L35.4156 12.2599L34.8885 9.97583L33.9444 13.4208L30.2639 16.0152L33.0345 17.6799L32.2321 22.9554L35.4167 18.6123L38.0881 19.1709L38.3694 18.0216L37.7988 14.9293L38.7507 13.2581C38.7137 13.2383 38.6754 13.221 38.6344 13.2089Z" fill="url(#paint13_linear_440_11069)"/>
<path d="M37.1116 29.0254V25.4456C37.1116 24.1164 36.3006 23.5033 35.3037 24.0788C34.3068 24.6543 33.4959 26.2039 33.4959 27.5331V29.1254L31.6142 27.1478C31.2478 26.7628 30.7061 26.7333 30.1278 27.0672L30.1176 27.0731C29.1553 27.6287 28.3582 29.0384 28.2199 30.3508C28.1333 29.1783 27.3595 28.6655 26.4204 29.2076L26.3983 29.2203C25.7667 29.585 25.2104 30.3411 24.887 31.1841C24.8658 31.151 24.8437 31.1189 24.82 31.0889C24.494 30.6777 23.9679 30.6236 23.4125 30.9442C22.6595 31.3789 21.9959 32.4029 21.7609 33.4922L21.042 36.8242L20.4128 34.5868C20.1364 33.6036 19.3457 33.2923 18.4451 33.8122C17.5555 34.3259 16.7677 35.5362 16.4847 36.8243L15.8305 39.8033L15.1386 37.3304C14.9067 36.5018 14.2414 36.2392 13.4834 36.6769L13.3462 36.7561C13.0632 36.9195 12.788 37.1717 12.5429 37.4837L11.8622 40.2644C11.7909 40.5559 11.768 40.8302 11.7868 41.0724L11.9586 41.6705C12.0546 41.8303 12.1867 41.9435 12.3522 41.9923L15.571 42.9413L16.5788 47.3086C16.584 47.331 16.5906 47.3515 16.5966 47.3729C17.1716 46.7115 17.6315 45.8038 17.8395 44.8567L18.392 42.3417L18.9206 44.2056C19.2222 45.2693 20.0807 45.6052 21.057 45.0417C22.0309 44.4794 22.8888 43.1547 23.1917 41.7455L24.5906 35.2365V40.591C24.5906 41.9202 25.4016 42.5332 26.3984 41.9578L26.4205 41.945C27.3388 41.4149 28.0977 40.0583 28.2118 38.8087C28.3258 39.9269 29.0859 40.4061 30.0044 39.8758C31.0012 39.3002 31.8121 37.7506 31.8121 36.4215V34.8215L33.7057 36.8028C33.8933 36.9991 34.1269 37.1018 34.3876 37.1111C34.3945 37.0791 34.4019 37.0472 34.4077 37.0152L35.4155 31.484L37.1116 29.0254Z" fill="url(#paint14_linear_440_11069)"/>
<path d="M37.0909 29.1316L38.693 20.8166L36.456 19.5231C36.1428 19.3577 35.7412 19.3812 35.3036 19.6339C34.3067 20.2094 33.4957 21.759 33.4957 23.0882V23.7394L31.3959 22.5275C31.3913 22.5247 31.3866 22.5222 31.3819 22.5194L31.3647 22.5095L31.3643 22.5102C31.021 22.3222 30.586 22.3576 30.1275 22.6223L30.1173 22.6282C29.3468 23.073 28.6831 24.0657 28.3779 25.1173L27.6171 24.6777L27.617 24.678C27.298 24.4854 26.8789 24.4978 26.4201 24.7627L26.398 24.7754C25.7941 25.1241 25.2598 25.8307 24.9314 26.6287L24.549 26.4079L24.5489 26.4081C24.2361 26.229 23.8327 26.2566 23.4122 26.4992C22.6592 26.9339 21.9956 27.958 21.7606 29.0472L21.503 30.241L19.8177 29.2678L19.8168 29.2691C19.4478 29.0454 18.965 29.0667 18.4448 29.3671C17.5552 29.8807 16.7674 31.0911 16.4844 32.3792L16.3216 33.1203L14.6149 32.1348C14.6142 32.1343 14.6134 32.1339 14.6126 32.1335L14.6107 32.1324V32.1326C14.304 31.9613 13.9081 31.9863 13.4831 32.2317L13.3459 32.311C12.79 32.6319 12.2636 33.2942 11.9376 34.0828C11.6117 34.8713 11.5207 35.7026 11.6942 36.3062L13.5759 42.8553C13.7067 43.3107 13.9408 43.6308 14.2423 43.8038L14.2422 43.8047L16.5675 45.1444L19.6163 40.733L21.8108 41.9994L25.2019 37.5987L27.4808 38.9142L28.9214 35.5737L31.0571 36.8132L33.9982 32.5721L36.1844 33.8373L36.939 29.9202C37.0137 29.6581 37.0652 29.3932 37.0909 29.1316Z" fill="url(#paint15_linear_440_11069)"/>
<path d="M36.1842 33.8373L33.9982 32.5722V30.972L36.1842 33.8373Z" fill="#C5BAEB"/>
<path d="M31.0571 36.8134L30.3441 36.3996L30.4426 35.0793L31.0571 36.8134Z" fill="#C5BAEB"/>
<path d="M27.4808 38.9143L25.202 37.5988L26.9913 31.4529L27.4808 38.9143Z" fill="#C5BAEB"/>
<path d="M21.8109 41.9995L19.6165 40.7332L20.7136 38.674L21.8109 41.9995Z" fill="#C5BAEB"/>
<path d="M38.693 20.8166L36.456 19.5231C36.1429 19.3577 35.7412 19.3812 35.3036 19.6339C34.3068 20.2094 33.4957 21.759 33.4957 23.0882V23.7394L36.0463 26.6517L38.693 20.8166Z" fill="url(#paint16_linear_440_11069)"/>
<path d="M30.3471 27.8486L33.4957 23.7393L31.3959 22.5274C31.3913 22.5245 31.3866 22.522 31.382 22.5193L31.3647 22.5094L31.3643 22.5101C31.021 22.322 30.586 22.3575 30.1276 22.6221L30.1174 22.628C29.3468 23.0729 28.6832 24.0655 28.3779 25.1172L29.8998 25.9958L30.3471 27.8486Z" fill="url(#paint17_linear_440_11069)"/>
<path d="M27.6172 24.6779C27.2981 24.4853 26.8791 24.4977 26.4203 24.7626L26.3981 24.7753C25.7943 25.124 25.2599 25.8306 24.9315 26.6286L26.8035 27.7094L27.157 28.479L29.8999 25.9958L28.378 25.1171L27.6173 24.6776L27.6172 24.6779Z" fill="url(#paint18_linear_440_11069)"/>
<path d="M24.5489 26.4082C24.2361 26.2291 23.8327 26.2567 23.4123 26.4993C22.6593 26.934 21.9956 27.9581 21.7607 29.0472L21.5031 30.2411L22.0829 30.5758L23.1834 34.1719L26.8036 27.7095L24.9316 26.6287L24.5492 26.4079L24.5489 26.4082Z" fill="url(#paint19_linear_440_11069)"/>
<path d="M17.9682 37.343L22.083 30.5758L21.5032 30.241L19.8178 29.2679L19.817 29.2691C19.448 29.0454 18.9652 29.0668 18.4449 29.3671C17.5553 29.8807 16.7676 31.0911 16.4845 32.3792L16.3218 33.1203L16.8731 33.4386L17.9682 37.343Z" fill="url(#paint20_linear_440_11069)"/>
<path d="M37.5706 20.9425C36.5738 21.518 35.7628 23.0676 35.7628 24.3968V25.9891L33.881 24.0115C33.5146 23.6264 32.9729 23.597 32.3946 23.9308L32.3844 23.9367C31.422 24.4924 30.625 25.9019 30.4867 27.2144C30.4001 26.0421 29.6263 25.5292 28.6872 26.0713L28.665 26.0841C28.0334 26.4488 27.4771 27.2049 27.1538 28.0479C27.1326 28.0147 27.1105 27.9826 27.0868 27.9527C26.7608 27.5414 26.2347 27.4873 25.6793 27.808C24.9263 28.2427 24.2626 29.2667 24.0277 30.3559L23.3087 33.6879L22.6796 31.4504C22.4032 30.4673 21.6124 30.156 20.7119 30.6759C19.8223 31.1896 19.0345 32.3999 18.7515 33.688L18.0973 36.667L17.4054 34.194C17.1735 33.3654 16.5083 33.1029 15.7501 33.5406L15.613 33.6198C15.057 33.9407 14.5306 34.603 14.2047 35.3917C13.8788 36.18 13.7878 37.0114 13.9614 37.615L15.843 44.1641C16.1466 45.2211 17.0041 45.5538 17.9769 44.9922C18.9434 44.4342 19.7992 43.1192 20.1063 41.7203L20.6589 39.2052L21.1874 41.0692C21.489 42.1329 22.3475 42.4688 23.3237 41.9052C24.2977 41.3429 25.1556 40.0183 25.4584 38.6091L26.8574 32.1001V37.4545C26.8574 38.7837 27.6684 39.3969 28.6652 38.8213L28.6874 38.8086C29.6056 38.2784 30.3645 36.9219 30.4787 35.6723C30.5927 36.7904 31.3529 37.2697 32.2713 36.7393C33.2682 36.1638 34.0792 34.6142 34.0792 33.285V31.685L35.9728 33.6663C36.3391 34.0496 36.8803 34.0783 37.4575 33.745C38.5168 33.1334 39.3786 31.4868 39.3786 30.0744V22.3092C39.3785 20.9799 38.5676 20.3669 37.5706 20.9425Z" fill="#F2EDFF"/>
<path d="M26.4494 30.0172L24.5761 38.7334C24.399 39.5579 23.8935 40.3382 23.3236 40.6673C22.7527 40.9969 22.2466 40.7989 22.0702 40.1768L20.6729 35.2491L19.2262 41.8347C19.0461 42.6545 18.5431 43.4274 17.9768 43.7544C17.4075 44.0831 16.9025 43.8871 16.7248 43.2686L14.8431 36.7194C14.6709 36.12 15.0613 35.1758 15.6129 34.8573L15.7501 34.7781C16.1021 34.5749 16.4139 34.6979 16.5215 35.0827L18.078 40.6466L19.6316 33.5732C19.7872 32.8644 20.2221 32.1962 20.7118 31.9135C21.2062 31.628 21.6443 31.8004 21.7961 32.3402L23.3006 37.6901L24.9096 30.233C25.0189 29.7266 25.3293 29.2476 25.6794 29.0455C26.2305 28.7274 26.6207 29.2199 26.4494 30.0172Z" fill="url(#paint21_linear_440_11069)"/>
<path d="M28.6652 27.3218L28.6872 27.3091C29.1731 27.0286 29.5668 27.3263 29.5668 27.974V35.8903C29.5668 36.538 29.173 37.2904 28.6872 37.5708L28.6652 37.5836C28.1794 37.8641 27.7856 37.5663 27.7856 36.9186V29.0024C27.7856 28.3547 28.1794 27.6022 28.6652 27.3218Z" fill="url(#paint22_linear_440_11069)"/>
<path d="M38.4502 22.845V30.6103C38.4502 31.3414 38.0057 32.1907 37.4574 32.5073C37.1602 32.6789 36.8787 32.6639 36.6901 32.4666L33.1507 28.7634V33.8209C33.1507 34.4686 32.7569 35.2211 32.2712 35.5015C31.7854 35.782 31.3916 35.4842 31.3916 34.8365V27.0714C31.3916 26.3402 31.8362 25.4909 32.3845 25.1744L32.3947 25.1684C32.6924 24.9966 32.9743 25.0119 33.1629 25.2101L36.6912 28.9183V23.8607C36.6912 23.213 37.085 22.4606 37.5708 22.1802C38.0564 21.8997 38.4502 22.1973 38.4502 22.845Z" fill="url(#paint23_linear_440_11069)"/>
<path d="M25.8162 0L28.6897 7.16691L35.8731 3.936L30.4656 13.4291L32.0317 21.9172L25.8162 20.6174L19.6007 29.0943L21.1669 18.7977L15.7594 15.5486L22.9427 10.4849L25.8162 0Z" fill="url(#paint24_linear_440_11069)"/>
<path d="M28.6898 7.16682L27.2686 15.3854L35.8732 3.93591L28.6898 7.16682Z" fill="url(#paint25_linear_440_11069)"/>
<path d="M25.8163 0L27.2685 15.3855L22.9427 10.4849L25.8163 0Z" fill="url(#paint26_linear_440_11069)"/>
<path d="M27.2684 15.3855L15.7594 15.5486L21.1669 18.7977L27.2684 15.3855Z" fill="url(#paint27_linear_440_11069)"/>
<path d="M19.6008 29.0943L27.2686 15.3855L25.8164 20.6174L19.6008 29.0943Z" fill="url(#paint28_linear_440_11069)"/>
<path d="M27.2686 15.3855L32.0318 21.9171L30.4657 13.4291L27.2686 15.3855Z" fill="url(#paint29_linear_440_11069)"/>
<path d="M15.1412 18.543L16.6135 22.215L20.2939 20.5596L17.5233 25.4235L18.3257 29.7724L15.1412 29.1064L11.9566 33.4496L12.759 28.1742L9.98853 26.5095L13.669 23.9149L15.1412 18.543Z" fill="url(#paint30_linear_440_11069)"/>
<path d="M16.6134 22.2149L15.8851 26.4258L20.2938 20.5596L16.6134 22.2149Z" fill="url(#paint31_linear_440_11069)"/>
<path d="M15.1412 18.543L15.8852 26.4258L13.6689 23.9149L15.1412 18.543Z" fill="url(#paint32_linear_440_11069)"/>
<path d="M15.8852 26.4259L9.98853 26.5095L12.759 28.1742L15.8852 26.4259Z" fill="url(#paint33_linear_440_11069)"/>
<path d="M11.9567 33.4497L15.8853 26.4259L15.1413 29.1065L11.9567 33.4497Z" fill="url(#paint34_linear_440_11069)"/>
<path d="M15.8851 26.4258L18.3256 29.7724L17.5232 25.4235L15.8851 26.4258Z" fill="url(#paint35_linear_440_11069)"/>
<path d="M36.4482 5.97583L37.9203 9.64783L41.6009 7.99249L38.8303 12.8563L39.6327 17.2053L36.4482 16.5393L33.2636 20.8825L34.066 15.607L31.2954 13.9422L34.9759 11.3478L36.4482 5.97583Z" fill="url(#paint36_linear_440_11069)"/>
<path d="M37.9204 9.64778L37.1923 13.8587L41.6009 7.99243L37.9204 9.64778Z" fill="url(#paint37_linear_440_11069)"/>
<path d="M36.4482 5.97583L37.1922 13.8587L34.976 11.3478L36.4482 5.97583Z" fill="url(#paint38_linear_440_11069)"/>
<path d="M37.1922 13.8586L31.2954 13.9422L34.066 15.6069L37.1922 13.8586Z" fill="url(#paint39_linear_440_11069)"/>
<path d="M33.2635 20.8824L37.1921 13.8586L36.4481 16.5392L33.2635 20.8824Z" fill="url(#paint40_linear_440_11069)"/>
<path d="M37.1923 13.8587L39.6328 17.2053L38.8304 12.8563L37.1923 13.8587Z" fill="url(#paint41_linear_440_11069)"/>
<defs>
<linearGradient id="paint0_linear_440_11069" x1="23.3181" y1="50.0333" x2="23.3181" y2="-20.277" gradientUnits="userSpaceOnUse">
<stop stop-color="#1D182F"/>
<stop offset="0.1795" stop-color="#292243"/>
<stop offset="0.5463" stop-color="#493D76"/>
<stop offset="1" stop-color="#7662BD"/>
</linearGradient>
<linearGradient id="paint1_linear_440_11069" x1="26.888" y1="13.1218" x2="32.0474" y2="4.18525" gradientUnits="userSpaceOnUse">
<stop stop-color="#0F0C18"/>
<stop offset="1" stop-color="#0F0C18" stop-opacity="0"/>
</linearGradient>
<linearGradient id="paint2_linear_440_11069" x1="14.4606" y1="42.2973" x2="14.4606" y2="48.5178" gradientUnits="userSpaceOnUse">
<stop stop-color="#0F0C18"/>
<stop offset="1" stop-color="#0F0C18" stop-opacity="0"/>
</linearGradient>
<linearGradient id="paint3_linear_440_11069" x1="8.84857" y1="40.2142" x2="11.4379" y2="35.7292" gradientUnits="userSpaceOnUse">
<stop stop-color="#0F0C18"/>
<stop offset="1" stop-color="#0F0C18" stop-opacity="0"/>
</linearGradient>
<linearGradient id="paint4_linear_440_11069" x1="20.5501" y1="16.1299" x2="25.769" y2="7.09038" gradientUnits="userSpaceOnUse">
<stop stop-color="#0F0C18"/>
<stop offset="1" stop-color="#0F0C18" stop-opacity="0"/>
</linearGradient>
<linearGradient id="paint5_linear_440_11069" x1="22.3572" y1="12.9999" x2="27.5762" y2="3.96035" gradientUnits="userSpaceOnUse">
<stop stop-color="#594A8E" stop-opacity="0"/>
<stop offset="0.4701" stop-color="#594A8E" stop-opacity="0.89"/>
<stop offset="0.5279" stop-color="#594A8E"/>
<stop offset="0.5968" stop-color="#594A8E" stop-opacity="0.854"/>
<stop offset="1" stop-color="#594A8E" stop-opacity="0"/>
</linearGradient>
<linearGradient id="paint6_linear_440_11069" x1="9.57014" y1="28.1186" x2="17.9585" y2="13.5894" gradientUnits="userSpaceOnUse">
<stop stop-color="#0F0C18"/>
<stop offset="1" stop-color="#0F0C18" stop-opacity="0"/>
</linearGradient>
<linearGradient id="paint7_linear_440_11069" x1="13.4023" y1="21.4811" x2="18.9024" y2="11.9546" gradientUnits="userSpaceOnUse">
<stop stop-color="#594A8E" stop-opacity="0"/>
<stop offset="0.4701" stop-color="#594A8E" stop-opacity="0.89"/>
<stop offset="0.5279" stop-color="#594A8E"/>
<stop offset="0.5968" stop-color="#594A8E" stop-opacity="0.854"/>
<stop offset="1" stop-color="#594A8E" stop-opacity="0"/>
</linearGradient>
<linearGradient id="paint8_linear_440_11069" x1="9.80931" y1="32.2056" x2="14.126" y2="24.7288" gradientUnits="userSpaceOnUse">
<stop stop-color="#0F0C18"/>
<stop offset="1" stop-color="#0F0C18" stop-opacity="0"/>
</linearGradient>
<linearGradient id="paint9_linear_440_11069" x1="9.04047" y1="33.5372" x2="13.3573" y2="26.0603" gradientUnits="userSpaceOnUse">
<stop stop-color="#594A8E" stop-opacity="0"/>
<stop offset="0.4701" stop-color="#594A8E" stop-opacity="0.89"/>
<stop offset="0.5279" stop-color="#594A8E"/>
<stop offset="0.5968" stop-color="#594A8E" stop-opacity="0.854"/>
<stop offset="1" stop-color="#594A8E" stop-opacity="0"/>
</linearGradient>
<linearGradient id="paint10_linear_440_11069" x1="25.4932" y1="50.7279" x2="0.727846" y2="7.83433" gradientUnits="userSpaceOnUse">
<stop stop-color="#43386B"/>
<stop offset="0.0815" stop-color="#453A6E"/>
<stop offset="1" stop-color="#594A8E"/>
</linearGradient>
<linearGradient id="paint11_linear_440_11069" x1="24.4072" y1="35.686" x2="24.4072" y2="0.905883" gradientUnits="userSpaceOnUse">
<stop stop-color="#1E1B28"/>
<stop offset="1" stop-color="#1E1B28" stop-opacity="0"/>
</linearGradient>
<linearGradient id="paint12_linear_440_11069" x1="14.1097" y1="36.104" x2="6.06741" y2="22.1749" gradientUnits="userSpaceOnUse">
<stop stop-color="#1E1B28"/>
<stop offset="1" stop-color="#1E1B28" stop-opacity="0"/>
</linearGradient>
<linearGradient id="paint13_linear_440_11069" x1="34.5073" y1="25.3515" x2="34.5073" y2="6.90955" gradientUnits="userSpaceOnUse">
<stop stop-color="#1E1B28"/>
<stop offset="1" stop-color="#1E1B28" stop-opacity="0"/>
</linearGradient>
<linearGradient id="paint14_linear_440_11069" x1="26.2546" y1="36.2139" x2="30.6833" y2="43.8848" gradientUnits="userSpaceOnUse">
<stop stop-color="#1E1B28"/>
<stop offset="1" stop-color="#1E1B28" stop-opacity="0"/>
</linearGradient>
<linearGradient id="paint15_linear_440_11069" x1="20.157" y1="40.6818" x2="21.2691" y2="38.7555" gradientUnits="userSpaceOnUse">
<stop stop-color="#C9BAEC"/>
<stop offset="0.3503" stop-color="#D9CDF3"/>
<stop offset="1" stop-color="#F3EDFF"/>
</linearGradient>
<linearGradient id="paint16_linear_440_11069" x1="35.6929" y1="22.7233" x2="36.6386" y2="21.0852" gradientUnits="userSpaceOnUse">
<stop stop-color="#C9BAEC"/>
<stop offset="0.3503" stop-color="#D9CDF3"/>
<stop offset="1" stop-color="#F3EDFF"/>
</linearGradient>
<linearGradient id="paint17_linear_440_11069" x1="30.5416" y1="24.9637" x2="31.3026" y2="23.6453" gradientUnits="userSpaceOnUse">
<stop stop-color="#C9BAEC"/>
<stop offset="0.3503" stop-color="#D9CDF3"/>
<stop offset="1" stop-color="#F3EDFF"/>
</linearGradient>
<linearGradient id="paint18_linear_440_11069" x1="27.2844" y1="26.496" x2="27.8066" y2="25.5913" gradientUnits="userSpaceOnUse">
<stop stop-color="#C9BAEC"/>
<stop offset="0.3503" stop-color="#D9CDF3"/>
<stop offset="1" stop-color="#F3EDFF"/>
</linearGradient>
<linearGradient id="paint19_linear_440_11069" x1="23.3183" y1="29.9252" x2="24.4166" y2="28.023" gradientUnits="userSpaceOnUse">
<stop stop-color="#C9BAEC"/>
<stop offset="0.3503" stop-color="#D9CDF3"/>
<stop offset="1" stop-color="#F3EDFF"/>
</linearGradient>
<linearGradient id="paint20_linear_440_11069" x1="18.307" y1="32.9154" x2="19.4812" y2="30.8818" gradientUnits="userSpaceOnUse">
<stop stop-color="#C9BAEC"/>
<stop offset="0.3503" stop-color="#D9CDF3"/>
<stop offset="1" stop-color="#F3EDFF"/>
</linearGradient>
<linearGradient id="paint21_linear_440_11069" x1="24.9763" y1="42.1914" x2="18.9328" y2="31.7237" gradientUnits="userSpaceOnUse">
<stop stop-color="#C62834"/>
<stop offset="0.4744" stop-color="#E33746"/>
<stop offset="1" stop-color="#FF4557"/>
</linearGradient>
<linearGradient id="paint22_linear_440_11069" x1="32.2827" y1="38.6929" x2="25.9795" y2="27.7756" gradientUnits="userSpaceOnUse">
<stop stop-color="#C62834"/>
<stop offset="0.4744" stop-color="#E33746"/>
<stop offset="1" stop-color="#FF4557"/>
</linearGradient>
<linearGradient id="paint23_linear_440_11069" x1="38.5746" y1="35.1694" x2="32.4521" y2="24.5647" gradientUnits="userSpaceOnUse">
<stop stop-color="#C62834"/>
<stop offset="0.4744" stop-color="#E33746"/>
<stop offset="1" stop-color="#FF4557"/>
</linearGradient>
<linearGradient id="paint24_linear_440_11069" x1="25.8162" y1="30.222" x2="10.1197" y2="3.03557" gradientUnits="userSpaceOnUse">
<stop stop-color="#FFE026"/>
<stop offset="1" stop-color="#FFF2B0"/>
</linearGradient>
<linearGradient id="paint25_linear_440_11069" x1="19.796" y1="6.99029" x2="32.1894" y2="9.80091" gradientUnits="userSpaceOnUse">
<stop stop-color="#FF7B2A"/>
<stop offset="1" stop-color="#FFC51E"/>
</linearGradient>
<linearGradient id="paint26_linear_440_11069" x1="24.4544" y1="17.8072" x2="26.3998" y2="3.25312" gradientUnits="userSpaceOnUse">
<stop stop-color="#FF7B2A"/>
<stop offset="0.3616" stop-color="#FF9B25"/>
<stop offset="0.77" stop-color="#FFBA20"/>
<stop offset="1" stop-color="#FFC51E"/>
</linearGradient>
<linearGradient id="paint27_linear_440_11069" x1="25.131" y1="11.4589" x2="18.2657" y2="19.0664" gradientUnits="userSpaceOnUse">
<stop stop-color="#FF7B2A"/>
<stop offset="1" stop-color="#FFC51E"/>
</linearGradient>
<linearGradient id="paint28_linear_440_11069" x1="20.4485" y1="29.9581" x2="25.2039" y2="19.2226" gradientUnits="userSpaceOnUse">
<stop stop-color="#FF7B2A"/>
<stop offset="1" stop-color="#FFC51E"/>
</linearGradient>
<linearGradient id="paint29_linear_440_11069" x1="25.7396" y1="23.403" x2="32.4403" y2="15.2612" gradientUnits="userSpaceOnUse">
<stop stop-color="#FF7B2A"/>
<stop offset="1" stop-color="#FFC51E"/>
</linearGradient>
<linearGradient id="paint30_linear_440_11069" x1="15.1412" y1="34.0306" x2="7.09898" y2="20.1014" gradientUnits="userSpaceOnUse">
<stop stop-color="#FFE026"/>
<stop offset="1" stop-color="#FFF2B0"/>
</linearGradient>
<linearGradient id="paint31_linear_440_11069" x1="12.0566" y1="22.1245" x2="18.4064" y2="23.5645" gradientUnits="userSpaceOnUse">
<stop stop-color="#FF7B2A"/>
<stop offset="1" stop-color="#FFC51E"/>
</linearGradient>
<linearGradient id="paint32_linear_440_11069" x1="14.4434" y1="27.6666" x2="15.4402" y2="20.2097" gradientUnits="userSpaceOnUse">
<stop stop-color="#FF7B2A"/>
<stop offset="0.3616" stop-color="#FF9B25"/>
<stop offset="0.77" stop-color="#FFBA20"/>
<stop offset="1" stop-color="#FFC51E"/>
</linearGradient>
<linearGradient id="paint33_linear_440_11069" x1="14.7901" y1="24.4141" x2="11.2726" y2="28.3119" gradientUnits="userSpaceOnUse">
<stop stop-color="#FF7B2A"/>
<stop offset="1" stop-color="#FFC51E"/>
</linearGradient>
<linearGradient id="paint34_linear_440_11069" x1="12.391" y1="33.8923" x2="14.8275" y2="28.3918" gradientUnits="userSpaceOnUse">
<stop stop-color="#FF7B2A"/>
<stop offset="1" stop-color="#FFC51E"/>
</linearGradient>
<linearGradient id="paint35_linear_440_11069" x1="15.1018" y1="30.5337" x2="18.535" y2="26.3622" gradientUnits="userSpaceOnUse">
<stop stop-color="#FF7B2A"/>
<stop offset="1" stop-color="#FFC51E"/>
</linearGradient>
<linearGradient id="paint36_linear_440_11069" x1="36.4482" y1="21.4634" x2="28.4059" y2="7.53416" gradientUnits="userSpaceOnUse">
<stop stop-color="#FFE026"/>
<stop offset="1" stop-color="#FFF2B0"/>
</linearGradient>
<linearGradient id="paint37_linear_440_11069" x1="33.3636" y1="9.55731" x2="39.7135" y2="10.9974" gradientUnits="userSpaceOnUse">
<stop stop-color="#FF7B2A"/>
<stop offset="1" stop-color="#FFC51E"/>
</linearGradient>
<linearGradient id="paint38_linear_440_11069" x1="35.7504" y1="15.0995" x2="36.7471" y2="7.64252" gradientUnits="userSpaceOnUse">
<stop stop-color="#FF7B2A"/>
<stop offset="0.3616" stop-color="#FF9B25"/>
<stop offset="0.77" stop-color="#FFBA20"/>
<stop offset="1" stop-color="#FFC51E"/>
</linearGradient>
<linearGradient id="paint39_linear_440_11069" x1="36.0971" y1="11.8468" x2="32.5796" y2="15.7446" gradientUnits="userSpaceOnUse">
<stop stop-color="#FF7B2A"/>
<stop offset="1" stop-color="#FFC51E"/>
</linearGradient>
<linearGradient id="paint40_linear_440_11069" x1="33.6979" y1="21.325" x2="36.1343" y2="15.8246" gradientUnits="userSpaceOnUse">
<stop stop-color="#FF7B2A"/>
<stop offset="1" stop-color="#FFC51E"/>
</linearGradient>
<linearGradient id="paint41_linear_440_11069" x1="36.4089" y1="17.9665" x2="39.842" y2="13.795" gradientUnits="userSpaceOnUse">
<stop stop-color="#FF7B2A"/>
<stop offset="1" stop-color="#FFC51E"/>
</linearGradient>
</defs>
</svg>
