<svg width="49" height="48" viewBox="0 0 49 48" fill="none" xmlns="http://www.w3.org/2000/svg">
<path d="M14.7242 46.9361L14.7244 46.9363C17.3389 47.7561 20.3545 48.0978 23.43 47.976L23.4312 47.9755L32.2811 46.3072L32.291 46.3062C33.6994 45.8082 35.0422 45.202 36.2781 44.4885C37.4557 43.8086 38.4638 43.0726 39.3026 42.3013L42.3604 31.4285L7.13697 34.2791V39.2645C7.13688 39.2802 7.13688 39.296 7.13697 39.3116V39.3374L7.13754 39.3373C7.14982 40.8094 7.72572 42.2379 8.878 43.5083L14.7242 46.9361Z" fill="url(#paint0_linear_440_11129)"/>
<path d="M8.87799 43.5084C9.53949 44.2377 10.3904 44.9152 11.4353 45.5185C12.427 46.091 13.5341 46.563 14.7241 46.9361V41.9792L8.87799 38.5511V43.5084Z" fill="url(#paint1_linear_440_11129)"/>
<path d="M7.13697 39.2644C7.13688 39.2802 7.13688 39.2959 7.13697 39.3117V39.3375L7.13754 39.3374C7.156 41.5398 8.43475 43.6448 11.0212 45.2682L16.0736 42.3512L10.1872 34.0323L7.13697 34.2792V39.2644Z" fill="url(#paint2_linear_440_11129)"/>
<path d="M39.3026 42.3014C41.3355 40.4321 42.3673 38.3539 42.3601 36.3541H42.3604V31.4286L39.3026 37.345V42.3014Z" fill="url(#paint3_linear_440_11129)"/>
<path d="M40.6184 27.1985L34.7731 23.7708C32.1582 22.9509 29.1421 22.6092 26.0662 22.731L17.2162 24.3972C15.8042 24.8958 14.458 25.5032 13.2192 26.2184C12.0419 26.8982 11.0334 27.634 10.1947 28.4051L7.1969 33.5016C6.94528 35.2804 7.49822 37.0293 8.87869 38.5514L14.7244 41.9792C17.3392 42.7992 20.3554 43.1409 23.4313 43.019L32.2812 41.3529C33.6933 40.8541 35.0394 40.2468 36.2783 39.5316C37.4557 38.8518 38.4641 38.1161 39.3028 37.345L42.3584 31.433C42.3623 29.9385 41.787 28.4872 40.6184 27.1985Z" fill="url(#paint4_linear_440_11129)"/>
<path d="M34.4895 27.251C29.8304 24.5611 21.6923 24.8984 16.3125 28.0045C10.9326 31.1105 10.3484 35.8091 15.0075 38.4989C19.6666 41.1888 27.8046 40.8515 33.1845 37.7455C38.5643 34.6395 39.1486 29.941 34.4895 27.251ZM31.9047 37.0066C27.341 39.6415 20.4376 39.9276 16.4854 37.6458C12.5331 35.3639 13.0288 31.3783 17.5924 28.7434C22.1561 26.1086 29.0596 25.8224 33.0118 28.1042C36.9639 30.3861 36.4683 34.3718 31.9047 37.0066Z" fill="url(#paint5_linear_440_11129)"/>
<path d="M16.3125 28.4294C21.6923 25.3233 29.8304 24.986 34.4895 27.6759C36.5129 28.8441 37.546 30.3913 37.6281 32.0223C37.7176 30.2369 36.6879 28.5203 34.4895 27.251C29.8304 24.5611 21.6923 24.8984 16.3125 28.0045C13.2692 29.7615 11.7618 32.0281 11.8687 34.1525C11.9689 32.1542 13.4713 30.0697 16.3125 28.4294Z" fill="url(#paint6_linear_440_11129)"/>
<path d="M16.4853 38.0706C20.4375 40.3524 27.3409 40.0663 31.9046 37.4314C34.5017 35.9321 35.7792 33.9954 35.6715 32.184C35.572 33.8692 34.2994 35.6238 31.9046 37.0065C27.3409 39.6413 20.4375 39.9274 16.4853 37.6456C14.7821 36.6623 13.907 35.3624 13.8255 33.9907C13.7354 35.5169 14.6071 36.9862 16.4853 38.0706Z" fill="url(#paint7_linear_440_11129)"/>
<path d="M16.1815 38.8005L16.7997 38.384C17.307 38.6223 17.8614 38.8305 18.4475 39.003L17.9579 39.4678C17.3259 39.2818 16.7283 39.0574 16.1815 38.8005ZM14.6959 37.9381C14.254 37.621 13.8684 37.2747 13.5495 36.9086L14.3563 36.628C14.6521 36.9674 15.0098 37.2888 15.4198 37.583L14.6959 37.9381ZM19.9676 39.9145L20.3115 39.4173C20.9599 39.5192 21.6381 39.585 22.3274 39.6131L22.14 40.1254C21.3974 40.0952 20.6664 40.0243 19.9676 39.9145ZM12.7864 35.7456C12.5998 35.3413 12.4805 34.9188 12.4317 34.4898L13.3194 34.384C13.3647 34.7822 13.4753 35.1742 13.6485 35.5493L12.7864 35.7456ZM24.4001 40.0951L24.4254 39.5849C25.1299 39.5383 25.8394 39.4541 26.5341 39.3344L26.672 39.8252C25.9234 39.9541 25.1589 40.0449 24.4001 40.0951ZM12.4949 33.1843C12.5855 32.746 12.7463 32.3048 12.9727 31.8729L13.8216 31.9548C13.6114 32.3557 13.4621 32.7652 13.378 33.1721L12.4949 33.1843ZM28.879 39.3238L28.5815 38.8692C29.2446 38.6801 29.8894 38.4562 30.4977 38.2037L30.9451 38.6061C30.2891 38.8784 29.594 39.1198 28.879 39.3238ZM13.8517 30.5998C14.2081 30.1877 14.6293 29.7873 15.1037 29.4096L15.798 29.67C15.3581 30.0204 14.9674 30.3917 14.6369 30.7738L13.8517 30.5998ZM32.7997 37.6979L32.2174 37.3618L32.246 37.3453C32.7806 37.0365 33.2733 36.7031 33.7102 36.3541L34.4056 36.6138C33.9348 36.9898 33.4041 37.349 32.8283 37.6815L32.7997 37.6979ZM17.265 28.6799L16.6835 28.3432C17.2599 28.0113 17.8828 27.7054 18.535 27.434L18.9835 27.8359C18.3784 28.0878 17.8001 28.3718 17.265 28.6799ZM34.8686 35.2495C35.1979 34.8673 35.4712 34.4698 35.6809 34.068L36.5301 34.1492C36.3042 34.5823 36.0095 35.0108 35.6545 35.4227L34.8686 35.2495ZM20.8984 27.1688L20.5997 26.7147C21.3135 26.5104 22.0557 26.341 22.8057 26.2112L22.9449 26.7018C22.249 26.8221 21.5605 26.9792 20.8984 27.1688ZM36.1212 32.8507C36.2041 32.4442 36.2226 32.0366 36.1764 31.6389L37.064 31.5324C37.1137 31.9606 37.0939 32.3998 37.0046 32.8377L36.1212 32.8507ZM25.0535 26.4494L25.0774 25.9393C25.8357 25.8884 26.5963 25.8776 27.3379 25.907L27.152 26.4193C26.4635 26.3921 25.7575 26.4022 25.0535 26.4494ZM35.844 30.474C35.6694 30.0986 35.4303 29.7359 35.1331 29.3963L35.9392 29.1149C36.2598 29.4813 36.5176 29.8723 36.7058 30.2771L35.844 30.474ZM29.1688 26.6132L29.5114 26.1159C30.2121 26.2252 30.8889 26.3748 31.5228 26.5605L31.0343 27.0256C30.4464 26.8533 29.8188 26.7146 29.1688 26.6132ZM34.0666 28.4425C33.6587 28.1507 33.1887 27.8789 32.6844 27.643L33.3015 27.226C33.8445 27.48 34.3503 27.7725 34.7897 28.0868L34.0666 28.4425Z" fill="url(#paint8_linear_440_11129)"/>
<path d="M31.0652 36.522C35.0936 34.1962 35.5311 30.678 32.0424 28.6638C28.5538 26.6497 22.46 26.9023 18.4317 29.228C14.4033 31.5538 13.9658 35.072 17.4545 37.0861C20.9431 39.1003 27.0369 38.8477 31.0652 36.522Z" fill="url(#paint9_linear_440_11129)"/>
<path d="M38.0617 25.1885C37.07 24.616 35.9629 24.1438 34.7729 23.7706L34.018 24.2065C33.2772 24.6342 33.1968 25.2812 33.8383 25.6516L37.4069 27.712C38.0484 28.0824 39.1691 28.036 39.9099 27.6082L40.619 27.1988C39.9573 26.4694 39.1067 25.7919 38.0617 25.1885Z" fill="url(#paint10_linear_440_11129)"/>
<path d="M17.2159 24.3971L17.4046 24.9416C17.5898 25.4763 18.52 25.7596 19.4824 25.5743L24.8354 24.5442C25.7977 24.359 26.4277 23.7755 26.2425 23.2408L26.0659 22.7311C23.0671 22.8499 20.0118 23.4096 17.2159 24.3971Z" fill="url(#paint11_linear_440_11129)"/>
<path d="M12.177 29.707C12.4978 29.1514 12.0071 28.6143 11.0811 28.5074L10.1944 28.405C8.44834 30.0104 7.44175 31.7699 7.19678 33.5016L8.13512 33.6099C9.06118 33.7169 10.0719 33.3532 10.3927 32.7975L12.177 29.707Z" fill="url(#paint12_linear_440_11129)"/>
<path d="M15.6587 40.0983L12.0901 38.0379C11.4486 37.6675 10.3279 37.7139 9.58712 38.1417L8.87799 38.5511C9.53968 39.2805 10.3904 39.9581 11.4353 40.5614C12.427 41.1339 13.5341 41.606 14.7241 41.9793L15.479 41.5434C16.2198 41.1156 16.3003 40.4687 15.6587 40.0983Z" fill="url(#paint13_linear_440_11129)"/>
<path d="M23.4311 47.9756C26.4303 47.8568 29.4847 47.2949 32.281 46.3072V41.3528L23.4311 43.0189V47.9756Z" fill="url(#paint14_linear_440_11129)"/>
<path d="M32.0924 40.8084C31.9072 40.2738 30.9768 39.9906 30.0145 40.1757L24.6616 41.2058C23.6992 41.391 23.0692 41.9746 23.2544 42.5093L23.4309 43.019C26.4297 42.9001 29.4849 42.3403 32.2808 41.3528L32.0924 40.8084Z" fill="url(#paint15_linear_440_11129)"/>
<path d="M42.3605 31.4286L41.5602 31.3791C40.6341 31.2722 39.6234 31.6359 39.3026 32.1916L37.3201 36.0429C36.9993 36.5986 37.49 37.1357 38.416 37.2425L39.3027 37.3449C41.0487 35.7396 42.2695 33.3463 42.3605 31.4286Z" fill="url(#paint16_linear_440_11129)"/>
<path d="M11.4352 40.5614C12.7926 41.345 14.3666 41.9401 16.0736 42.3511H19.6801V30.6031H8.31792C6.05273 34.1491 7.02323 38.0141 11.4352 40.5614Z" fill="url(#paint17_linear_440_11129)"/>
<path d="M12.2868 41.287L12.2871 41.2871C14.9016 42.1069 17.9172 42.4486 20.9927 42.3268L20.9939 42.3264L29.8438 40.658L29.8537 40.657C31.2621 40.159 32.6049 39.5529 33.8408 38.8393C35.0184 38.1595 36.0265 37.4234 36.8653 36.6521L39.9231 25.7793L4.69966 28.63V33.6153C4.69956 33.631 4.69966 33.6468 4.69966 33.6625V33.6882H4.70022C4.71259 35.1603 5.28841 36.5889 6.44069 37.8593L12.2868 41.287Z" fill="url(#paint18_linear_440_11129)"/>
<path d="M6.4407 37.8594C7.1022 38.5888 7.95308 39.2663 8.99802 39.8695C9.98961 40.4421 11.0968 40.914 12.2869 41.2872V36.3303L6.4407 32.9022V37.8594Z" fill="url(#paint19_linear_440_11129)"/>
<path d="M4.70011 33.6153C4.70002 33.6311 4.70002 33.6468 4.70011 33.6625V33.6883H4.70068C4.72008 36.0055 6.13355 38.2153 8.99836 39.8693C9.19655 39.9837 9.39933 40.0941 9.60643 40.2005L15.133 37.0097L10.4105 28.1681L4.70021 28.6302V33.6153H4.70011Z" fill="url(#paint20_linear_440_11129)"/>
<path d="M36.8653 36.6524C38.8981 34.7831 39.93 32.7049 39.9227 30.7051H39.9231V25.7795L36.8653 31.6959V36.6524Z" fill="url(#paint21_linear_440_11129)"/>
<path d="M38.1811 21.5494L32.3356 18.1218C29.7208 17.3018 26.7047 16.9601 23.6287 17.082L14.7788 18.748C13.3667 19.2468 12.0206 19.8541 10.7818 20.5693C9.60446 21.2491 8.59599 21.9847 7.75731 22.7559L4.75956 27.8525C4.50793 29.6314 5.06087 31.3803 6.44134 32.9024L12.287 36.3302C14.9019 37.1501 17.918 37.4918 20.994 37.3699L29.8439 35.7039C31.2559 35.2052 32.6021 34.5979 33.841 33.8826C35.0184 33.2029 36.0268 32.4671 36.8655 31.696L39.9211 25.784C39.925 24.2894 39.3497 22.838 38.1811 21.5494Z" fill="url(#paint22_linear_440_11129)"/>
<path d="M32.0523 21.602C27.3932 18.9121 19.2551 19.2494 13.8753 22.3554C8.49542 25.4615 7.91117 30.16 12.5702 32.8499C17.2293 35.5398 25.3673 35.2025 30.7472 32.0964C36.127 28.9904 36.7113 24.2918 32.0523 21.602ZM29.4674 31.3575C24.9037 33.9923 18.0003 34.2785 14.048 31.9967C10.0958 29.7148 10.5915 25.7291 15.1551 23.0943C19.7188 20.4594 26.6223 20.1733 30.5745 22.4551C34.5267 24.7369 34.0311 28.7227 29.4674 31.3575Z" fill="url(#paint23_linear_440_11129)"/>
<path d="M13.8752 22.7803C19.2551 19.6743 27.3932 19.337 32.0522 22.0268C34.0757 23.1951 35.1088 24.7423 35.1909 26.3733C35.2803 24.5879 34.2507 22.8712 32.0522 21.602C27.3932 18.9121 19.2551 19.2494 13.8752 22.3554C10.8319 24.1125 9.32453 26.3791 9.4315 28.5035C9.53162 26.5052 11.034 24.4207 13.8752 22.7803Z" fill="url(#paint24_linear_440_11129)"/>
<path d="M14.0479 32.4216C18.0001 34.7033 24.9036 34.4172 29.4673 31.7824C32.0643 30.283 33.3419 28.3463 33.2341 26.5349C33.1347 28.2202 31.8621 29.9748 29.4673 31.3574C24.9036 33.9923 18.0001 34.2784 14.0479 31.9966C12.3448 31.0133 11.4697 29.7133 11.3881 28.3417C11.2981 29.8679 12.1697 31.3373 14.0479 32.4216Z" fill="url(#paint25_linear_440_11129)"/>
<path d="M13.7442 33.1516L14.3624 32.7351C14.8697 32.9734 15.4241 33.1816 16.0102 33.3541L15.5206 33.8188C14.8886 33.6329 14.291 33.4084 13.7442 33.1516ZM12.2585 32.2892C11.8167 31.972 11.4311 31.6257 11.1122 31.2596L11.919 30.979C12.2148 31.3186 12.5725 31.6399 12.9825 31.9341L12.2585 32.2892ZM17.5303 34.2655L17.8742 33.7684C18.5225 33.8702 19.2008 33.9361 19.8901 33.9641L19.7027 34.4765C18.9601 34.4463 18.2291 34.3752 17.5303 34.2655ZM10.349 30.0965C10.1625 29.6923 10.0431 29.2698 9.99438 28.8408L10.8821 28.7349C10.9274 29.1331 11.038 29.5251 11.2112 29.9002L10.349 30.0965ZM21.9628 34.4462L21.9881 33.936C22.6925 33.8894 23.402 33.8051 24.0968 33.6855L24.2347 34.1763C23.4861 34.3051 22.7217 34.3959 21.9628 34.4462ZM10.0576 27.5352C10.1481 27.0969 10.3089 26.6557 10.5354 26.2237L11.3842 26.3057C11.1739 26.7066 11.0247 27.1161 10.9406 27.5229L10.0576 27.5352ZM26.4417 33.6748L26.1443 33.2202C26.8074 33.0311 27.4521 32.8072 28.0605 32.5548L28.5079 32.9572C27.8519 33.2295 27.1566 33.4709 26.4417 33.6748ZM11.4144 24.9508C11.7708 24.5388 12.192 24.1384 12.6664 23.7606L13.3607 24.021C12.9208 24.3713 12.53 24.7427 12.1996 25.1248L11.4144 24.9508ZM30.3624 32.0489L29.78 31.7126L29.8086 31.6961C30.3434 31.3874 30.8359 31.0539 31.2729 30.705L31.9683 30.9647C31.4974 31.3407 30.9668 31.7 30.391 32.0323L30.3624 32.0489ZM14.8277 23.031L14.2462 22.6942C14.8226 22.3624 15.4455 22.0565 16.0977 21.7851L16.5462 22.187C15.941 22.4388 15.3628 22.7227 14.8277 23.031ZM32.4313 29.6004C32.7605 29.2183 33.0339 28.8208 33.2435 28.419L34.0928 28.5002C33.8669 28.9333 33.5722 29.3617 33.2172 29.7737L32.4313 29.6004ZM18.461 21.5197L18.1624 21.0656C18.8762 20.8613 19.6184 20.6919 20.3684 20.5622L20.5076 21.0528C19.8117 21.1731 19.1232 21.3303 18.461 21.5197ZM33.6839 27.2016C33.7668 26.7951 33.7853 26.3875 33.7391 25.9898L34.6267 25.8833C34.6764 26.3116 34.6565 26.7508 34.5673 27.1886L33.6839 27.2016ZM22.6161 20.8004L22.64 20.2903C23.3984 20.2394 24.159 20.2285 24.9006 20.258L24.7146 20.7703C24.0262 20.743 23.3202 20.7531 22.6161 20.8004ZM33.4067 24.8251C33.2322 24.4496 32.9929 24.087 32.6958 23.7473L33.5019 23.466C33.8224 23.8324 34.0803 24.2233 34.2685 24.6281L33.4067 24.8251ZM26.7315 20.9642L27.074 20.4668C27.7748 20.5761 28.4516 20.7258 29.0854 20.9115L28.597 21.3766C28.0092 21.2043 27.3815 21.0656 26.7315 20.9642ZM31.6293 22.7934C31.2213 22.5017 30.7514 22.2299 30.247 21.9939L30.8641 21.5769C31.4071 21.831 31.9129 22.1235 32.3524 22.4377L31.6293 22.7934Z" fill="url(#paint26_linear_440_11129)"/>
<path d="M28.6279 30.8728C32.6563 28.5471 33.0938 25.0288 29.6052 23.0147C26.1166 21.0005 20.0228 21.2531 15.9945 23.5789C11.9661 25.9046 11.5286 29.4229 15.0173 31.437C18.5059 33.4512 24.5996 33.1986 28.6279 30.8728Z" fill="url(#paint27_linear_440_11129)"/>
<path d="M35.6244 19.5396C34.6327 18.967 33.5256 18.4949 32.3356 18.1217L31.5807 18.5575C30.8399 18.9852 30.7594 19.6323 31.401 20.0027L34.9696 22.063C35.6111 22.4335 36.7318 22.387 37.4726 21.9593L38.1817 21.5499C37.52 20.8205 36.6693 20.1429 35.6244 19.5396Z" fill="url(#paint28_linear_440_11129)"/>
<path d="M14.7786 18.7481L14.9672 19.2926C15.1525 19.8272 16.0828 20.1105 17.0451 19.9253L22.3981 18.8952C23.3604 18.7099 23.9904 18.1264 23.8053 17.5918L23.6287 17.082C20.6298 17.2008 17.5745 17.7607 14.7786 18.7481Z" fill="url(#paint29_linear_440_11129)"/>
<path d="M9.73965 24.058C10.0605 23.5023 9.56978 22.9652 8.64371 22.8584L7.75712 22.756C6.01093 24.3614 5.00434 26.1209 4.75937 27.8525L5.69771 27.9609C6.62378 28.0679 7.63449 27.7041 7.95531 27.1485L9.73965 24.058Z" fill="url(#paint30_linear_440_11129)"/>
<path d="M13.2215 34.4492L9.65286 32.3888C9.01133 32.0184 7.89064 32.0649 7.14983 32.4926L6.4407 32.902C7.10239 33.6314 7.95308 34.309 8.99802 34.9123C9.9897 35.4848 11.0968 35.957 12.2869 36.3302L13.0417 35.8943C13.7825 35.4666 13.863 34.8196 13.2215 34.4492Z" fill="url(#paint31_linear_440_11129)"/>
<path d="M20.9938 42.3265C23.993 42.2076 27.0475 41.6459 29.8437 40.6581V35.7037L20.9938 37.3699V42.3265Z" fill="url(#paint32_linear_440_11129)"/>
<path d="M29.6551 35.1593C29.47 34.6246 28.5397 34.3414 27.5773 34.5265L22.2243 35.5567C21.262 35.7418 20.632 36.3254 20.8171 36.8601L20.9937 37.3698C23.9925 37.251 27.0477 36.6911 29.8436 35.7038L29.6551 35.1593Z" fill="url(#paint33_linear_440_11129)"/>
<path d="M39.9231 25.7796L39.1229 25.7301C38.1968 25.6231 37.1861 25.9869 36.8653 26.5425L34.8827 30.3939C34.5619 30.9495 35.0526 31.4866 35.9786 31.5935L36.8653 31.6959C38.6114 30.0905 39.8322 27.6972 39.9231 25.7796Z" fill="url(#paint34_linear_440_11129)"/>
<path d="M20.5935 20.8005C20.5935 20.8005 15.1732 20.8331 10.3222 20.844C3.39973 25.0872 2.76654 31.3143 8.99839 34.9124C10.7442 35.9203 12.8479 36.6165 15.133 37.0097H21.4074L20.5935 20.8005Z" fill="url(#paint35_linear_440_11129)"/>
<path d="M14.1703 35.9704L14.1706 35.9705C16.7851 36.7903 19.8006 37.132 22.8761 37.0102L22.8773 37.0098L31.7272 35.3414L31.7372 35.3405C33.1456 34.8425 34.4884 34.2363 35.7243 33.5227C36.9019 32.8429 37.91 32.1068 38.7487 31.3355L41.8066 20.4629L6.58311 23.3134V28.2987C6.58301 28.3145 6.58301 28.3302 6.58311 28.3459V28.3716H6.58367C6.59605 29.8437 7.17186 31.2723 8.32414 32.5427L14.1703 35.9704Z" fill="url(#paint36_linear_440_11129)"/>
<path d="M8.32413 32.5425C8.98563 33.2718 9.8365 33.9493 10.8814 34.5525C11.8731 35.1251 12.9802 35.5971 14.1703 35.9702V31.0134L8.32413 27.5853V32.5425Z" fill="url(#paint37_linear_440_11129)"/>
<path d="M6.5832 28.2985C6.58311 28.3143 6.58311 28.33 6.5832 28.3457V28.3714L6.58376 28.3714C6.60223 30.5737 7.88098 32.6788 10.4675 34.3022L15.5198 31.3851L13.5462 22.7496L6.5832 23.3132V28.2985Z" fill="url(#paint38_linear_440_11129)"/>
<path d="M38.7487 31.3357C40.7816 29.4665 41.8134 27.3882 41.8062 25.3884H41.8066V20.4629L38.7487 26.3793V31.3357Z" fill="url(#paint39_linear_440_11129)"/>
<path d="M40.0644 16.2326L34.2191 12.805C31.6042 11.9851 28.5881 11.6433 25.5122 11.7652L16.6623 13.4313C15.2502 13.9301 13.904 14.5374 12.6652 15.2526C11.4879 15.9324 10.4794 16.6681 9.64076 17.4392L6.64301 22.5359C6.39138 24.3147 6.94432 26.0636 8.32479 27.5857L14.1705 31.0135C16.7854 31.8334 19.8015 32.1751 22.8774 32.0533L31.7273 30.3872C33.1394 29.8885 34.4855 29.2812 35.7244 28.566C36.9019 27.8862 37.9102 27.1505 38.7489 26.3793L41.8045 20.4674C41.8083 18.9726 41.2329 17.5213 40.0644 16.2326Z" fill="url(#paint40_linear_440_11129)"/>
<path d="M33.9357 16.2853C29.2766 13.5954 21.1385 13.9327 15.7587 17.0388C10.3789 20.1448 9.79461 24.8434 14.4537 27.5332C19.1128 30.2231 27.2509 29.8858 32.6307 26.7798C38.0105 23.6737 38.5948 18.9752 33.9357 16.2853ZM31.3508 26.0408C26.7872 28.6757 19.8837 28.9618 15.9315 26.68C11.9793 24.3982 12.4749 20.4125 17.0386 17.7776C21.6022 15.1428 28.5057 14.8567 32.4579 17.1384C36.4101 19.4203 35.9145 23.4061 31.3508 26.0408Z" fill="url(#paint41_linear_440_11129)"/>
<path d="M15.7587 17.4637C21.1385 14.3576 29.2766 14.0203 33.9357 16.7102C35.9591 17.8784 36.9922 19.4257 37.0744 21.0566C37.1638 19.2712 36.1341 17.5546 33.9357 16.2853C29.2766 13.5954 21.1385 13.9327 15.7587 17.0388C12.7154 18.7958 11.208 21.0624 11.315 23.1868C11.4151 21.1885 12.9174 19.1041 15.7587 17.4637Z" fill="url(#paint42_linear_440_11129)"/>
<path d="M15.9315 27.1048C19.8837 29.3866 26.7871 29.1005 31.3508 26.4656C33.9479 24.9663 35.2254 23.0296 35.1177 21.2183C35.0182 22.9035 33.7456 24.6581 31.3508 26.0408C26.7871 28.6756 19.8837 28.9617 15.9315 26.6799C14.2283 25.6966 13.3532 24.3967 13.2717 23.025C13.1816 24.5512 14.0532 26.0205 15.9315 27.1048Z" fill="url(#paint43_linear_440_11129)"/>
<path d="M15.6276 27.8349L16.2458 27.4184C16.7531 27.6567 17.3075 27.8649 17.8937 28.0374L17.404 28.5022C16.772 28.3162 16.1745 28.0917 15.6276 27.8349ZM14.1421 26.9725C13.7002 26.6554 13.3146 26.3091 12.9957 25.943L13.8025 25.6624C14.0983 26.0018 14.456 26.3232 14.866 26.6174L14.1421 26.9725ZM19.4138 28.9489L19.7577 28.4517C20.4061 28.5535 21.0843 28.6194 21.7736 28.6475L21.5862 29.1598C20.8435 29.1296 20.1126 29.0586 19.4138 28.9489ZM12.2325 24.7799C12.0459 24.3757 11.9266 23.9531 11.8778 23.5241L12.7655 23.4183C12.8108 23.8165 12.9214 24.2085 13.0946 24.5836L12.2325 24.7799ZM23.8462 29.1295L23.8715 28.6193C24.576 28.5727 25.2855 28.4885 25.9802 28.3688L26.1182 28.8596C25.3696 28.9884 24.6051 29.0793 23.8462 29.1295ZM11.941 22.2186C12.0316 21.7803 12.1923 21.3391 12.4188 20.9071L13.2677 20.989C13.0575 21.3899 12.9082 21.7994 12.8241 22.2063L11.941 22.2186ZM28.3251 28.3582L28.0277 27.9036C28.6908 27.7145 29.3356 27.4906 29.9439 27.2381L30.3913 27.6405C29.7353 27.9128 29.0401 28.1542 28.3251 28.3582ZM13.2979 19.6341C13.6543 19.2221 14.0755 18.8217 14.5499 18.444L15.2442 18.7044C14.8043 19.0548 14.4136 19.4261 14.0831 19.8082L13.2979 19.6341ZM32.2458 26.7322L31.6635 26.3961L31.6921 26.3796C32.2267 26.0708 32.7194 25.7374 33.1563 25.3884L33.8517 25.6481C33.3809 26.0242 32.8502 26.3833 32.2744 26.7158L32.2458 26.7322ZM16.7111 17.7143L16.1297 17.3776C16.706 17.0457 17.3289 16.7398 17.9811 16.4684L18.4296 16.8703C17.8245 17.1221 17.2462 17.4061 16.7111 17.7143ZM34.3147 24.2838C34.644 23.9017 34.9173 23.5042 35.127 23.1023L35.9762 23.1835C35.7503 23.6166 35.4557 24.0451 35.1006 24.457L34.3147 24.2838ZM20.3445 16.2031L20.0458 15.749C20.7596 15.5447 21.5018 15.3753 22.2518 15.2455L22.391 15.7361C21.6952 15.8565 21.0066 16.0136 20.3445 16.2031ZM35.5673 21.885C35.6502 21.4785 35.6687 21.0709 35.6225 20.6732L36.5102 20.5667C36.5598 20.9949 36.54 21.4342 36.4507 21.872L35.5673 21.885ZM24.4996 15.4837L24.5235 14.9737C25.2818 14.9227 26.0424 14.9119 26.7841 14.9413L26.5981 15.4537C25.9097 15.4264 25.2036 15.4365 24.4996 15.4837ZM35.2901 19.5084C35.1155 19.133 34.8764 18.7703 34.5792 18.4307L35.3853 18.1493C35.7059 18.5157 35.9637 18.9066 36.1519 19.3115L35.2901 19.5084ZM28.6149 15.6475L28.9575 15.1502C29.6582 15.2595 30.335 15.4091 30.9689 15.5948L30.4804 16.0599C29.8926 15.8876 29.265 15.749 28.6149 15.6475ZM33.5127 17.4768C33.1048 17.185 32.6348 16.9133 32.1305 16.6773L32.7476 16.2603C33.2906 16.5143 33.7964 16.8068 34.2358 17.1211L33.5127 17.4768Z" fill="url(#paint44_linear_440_11129)"/>
<path d="M30.5114 25.5561C34.5397 23.2304 34.9772 19.7121 31.4885 17.698C28 15.6839 21.9062 15.9364 17.8779 18.2622C13.8496 20.5879 13.412 24.1061 16.9007 26.1203C20.3894 28.1344 26.483 27.8819 30.5114 25.5561Z" fill="url(#paint45_linear_440_11129)"/>
<path d="M37.5078 14.2228C36.5161 13.6503 35.409 13.1782 34.219 12.8049L33.4641 13.2408C32.7233 13.6685 32.6429 14.3155 33.2844 14.6859L36.853 16.7463C37.4945 17.1167 38.6152 17.0703 39.356 16.6425L40.0651 16.2331C39.4035 15.5037 38.5528 14.8261 37.5078 14.2228Z" fill="url(#paint46_linear_440_11129)"/>
<path d="M16.6621 13.4313L16.8508 13.9758C17.036 14.5104 17.9663 14.7938 18.9286 14.6085L24.2816 13.5784C25.2439 13.3931 25.8739 12.8096 25.6887 12.275L25.5121 11.7653C22.5133 11.884 19.458 12.4439 16.6621 13.4313Z" fill="url(#paint47_linear_440_11129)"/>
<path d="M11.6231 18.7413C11.9439 18.1858 11.4532 17.6486 10.5273 17.5417L9.64057 17.4393C7.89448 19.0447 6.88788 20.8042 6.64291 22.536L7.58126 22.6443C8.50732 22.7513 9.51804 22.3876 9.83885 21.8319L11.6231 18.7413Z" fill="url(#paint48_linear_440_11129)"/>
<path d="M15.1049 29.1324L11.5363 27.0721C10.8948 26.7017 9.77407 26.7481 9.03325 27.1759L8.32413 27.5853C8.98581 28.3147 9.8365 28.9923 10.8814 29.5956C11.8731 30.1681 12.9802 30.6402 14.1703 31.0134L14.9252 30.5776C15.666 30.1499 15.7465 29.5028 15.1049 29.1324Z" fill="url(#paint49_linear_440_11129)"/>
<path d="M22.8772 37.0097C25.8764 36.891 28.9308 36.3291 31.7271 35.3414V30.387L22.8772 32.0531V37.0097Z" fill="url(#paint50_linear_440_11129)"/>
<path d="M31.5386 29.8426C31.3534 29.308 30.4231 29.0247 29.4607 29.2099L24.1078 30.24C23.1454 30.4252 22.5154 31.0088 22.7006 31.5434L22.8771 32.0531C25.8759 31.9344 28.9311 31.3745 31.727 30.387L31.5386 29.8426Z" fill="url(#paint51_linear_440_11129)"/>
<path d="M41.8066 20.4628L41.0063 20.4133C40.0802 20.3063 39.0695 20.6701 38.7487 21.2258L36.7662 25.0771C36.4454 25.6328 36.9361 26.1698 37.8621 26.2767L38.7488 26.3791C40.4949 24.7737 41.7156 22.3805 41.8066 20.4628Z" fill="url(#paint52_linear_440_11129)"/>
<path d="M20.0456 17.4822L10.7131 16.5439C5.22579 20.7168 5.1311 26.2753 10.8814 29.5953C12.2388 30.3789 13.8128 30.9739 15.5198 31.385H23.846L20.0456 17.4822Z" fill="url(#paint53_linear_440_11129)"/>
<path d="M16.1641 30.3213L16.1644 30.3214C18.7789 31.1412 21.7944 31.4829 24.8699 31.3611L24.8711 31.3607L33.721 29.6923L33.7309 29.6913C35.1394 29.1933 36.4821 28.5872 37.718 27.8736C38.8956 27.1938 39.9037 26.4577 40.7425 25.6864L43.8004 14.8136L8.57688 17.6643V22.6496C8.57679 22.6653 8.57688 22.6811 8.57688 22.6968V22.7225H8.57745C8.58982 24.1946 9.16563 25.6232 10.3179 26.8936L16.1641 30.3213Z" fill="url(#paint54_linear_440_11129)"/>
<path d="M10.3179 26.8935C10.9794 27.6228 11.8303 28.3003 12.8752 28.9036C13.8668 29.4761 14.974 29.948 16.1641 30.3213V25.3643L10.3179 21.9362V26.8935Z" fill="url(#paint55_linear_440_11129)"/>
<path d="M8.57697 22.6494C8.57688 22.6652 8.57688 22.6809 8.57697 22.6966V22.7224L8.57754 22.7223C8.5931 24.5859 9.51119 26.3797 11.3599 27.8711L15.868 25.2684L10.4348 17.5139L8.57697 17.6643V22.6494Z" fill="url(#paint56_linear_440_11129)"/>
<path d="M40.7425 25.6866C42.7754 23.8173 43.8072 21.739 43.8 19.7393H43.8003V14.8137L40.7425 20.7301V25.6866Z" fill="url(#paint57_linear_440_11129)"/>
<path d="M42.0584 10.5835L36.213 7.15594C33.5981 6.336 30.582 5.99428 27.5061 6.11616L18.6562 7.78229C17.2441 8.28104 15.8979 8.88835 14.6591 9.60357C13.4818 10.2833 12.4733 11.0191 11.6347 11.7902L8.63691 16.8868C8.38528 18.6656 8.93822 20.4146 10.3187 21.9367L16.1644 25.3644C18.7793 26.1844 21.7954 26.5261 24.8713 26.4042L33.7212 24.7382C35.1333 24.2394 36.4794 23.6321 37.7183 22.9169C38.8958 22.2371 39.9041 21.5015 40.7428 20.7303L43.7984 14.8183C43.8022 13.3236 43.2269 11.8723 42.0584 10.5835Z" fill="url(#paint58_linear_440_11129)"/>
<path d="M35.9295 10.6361C31.2704 7.94626 23.1323 8.28358 17.7525 11.3896C12.3726 14.4956 11.7884 19.1942 16.4475 21.8841C21.1066 24.574 29.2446 24.2366 34.6245 21.1306C40.0042 18.0246 40.5886 13.3261 35.9295 10.6361ZM33.3446 20.3918C28.781 23.0266 21.8775 23.3127 17.9253 21.031C13.973 18.7491 14.4687 14.7634 19.0324 12.1285C23.596 9.4937 30.4995 9.20758 34.4517 11.4894C38.4039 13.7712 37.9083 17.7569 33.3446 20.3918Z" fill="url(#paint59_linear_440_11129)"/>
<path d="M17.7525 11.8145C23.1323 8.70845 31.2704 8.37114 35.9295 11.061C37.9529 12.2292 38.986 13.7765 39.0681 15.4075C39.1576 13.6221 38.1279 11.9054 35.9295 10.6361C31.2704 7.94626 23.1323 8.28358 17.7525 11.3896C14.7092 13.1467 13.2018 15.4133 13.3087 17.5376C13.4088 15.5395 14.9112 13.4549 17.7525 11.8145Z" fill="url(#paint60_linear_440_11129)"/>
<path d="M17.9253 21.4559C21.8775 23.7377 28.781 23.4515 33.3446 20.8167C35.9417 19.3173 37.2192 17.3807 37.1115 15.5692C37.012 17.2545 35.7395 19.0091 33.3446 20.3917C28.781 23.0266 21.8775 23.3127 17.9253 21.0309C16.2221 20.0476 15.347 18.7476 15.2655 17.376C15.1754 18.9021 16.047 20.3715 17.9253 21.4559Z" fill="url(#paint61_linear_440_11129)"/>
<path d="M17.6214 22.1858L18.2396 21.7692C18.7469 22.0075 19.3013 22.2158 19.8874 22.3883L19.3978 22.853C18.7658 22.6671 18.1682 22.4425 17.6214 22.1858ZM16.1358 21.3234C15.694 21.0062 15.3084 20.6599 14.9895 20.2938L15.7963 20.0132C16.0921 20.3527 16.4498 20.674 16.8598 20.9682L16.1358 21.3234ZM21.4076 23.2997L21.7515 22.8025C22.3998 22.9044 23.0781 22.9703 23.7674 22.9983L23.58 23.5106C22.8373 23.4804 22.1064 23.4095 21.4076 23.2997ZM14.2262 19.1308C14.0397 18.7266 13.9203 18.304 13.8716 17.875L14.7592 17.7693C14.8045 18.1674 14.9151 18.5595 15.0883 18.9346L14.2262 19.1308ZM25.84 23.4804L25.8653 22.9702C26.5697 22.9236 27.2792 22.8393 27.974 22.7197L28.1119 23.2105C27.3633 23.3393 26.5989 23.4301 25.84 23.4804ZM13.9348 16.5695C14.0253 16.1312 14.1862 15.69 14.4126 15.2581L15.2615 15.34C15.0512 15.7409 14.902 16.1504 14.8179 16.5573L13.9348 16.5695ZM30.3189 22.709L30.0214 22.2544C30.6845 22.0653 31.3292 21.8414 31.9376 21.5889L32.385 21.9913C31.7291 22.2637 31.0339 22.5051 30.3189 22.709ZM15.2917 13.985C15.6481 13.5729 16.0693 13.1725 16.5436 12.7948L17.238 13.0553C16.7981 13.4056 16.4073 13.7769 16.0769 14.1591L15.2917 13.985ZM34.2396 21.0832L33.6572 20.747L33.6858 20.7305C34.2205 20.4218 34.7131 20.0883 35.1501 19.7394L35.8455 19.999C35.3746 20.3751 34.844 20.7342 34.2682 21.0668L34.2396 21.0832ZM18.7049 12.0652L18.1234 11.7284C18.6998 11.3965 19.3227 11.0906 19.9749 10.8192L20.4234 11.2211C19.8182 11.473 19.24 11.757 18.7049 12.0652ZM36.3085 18.6347C36.6377 18.2526 36.9111 17.8551 37.1207 17.4533L37.97 17.5344C37.7441 17.9676 37.4494 18.396 37.0944 18.8079L36.3085 18.6347ZM22.3382 10.554L22.0396 10.0999C22.7534 9.89561 23.4956 9.7262 24.2456 9.59645L24.3848 10.087C23.689 10.2073 23.0004 10.3644 22.3382 10.554ZM37.5611 16.2358C37.644 15.8293 37.6625 15.4217 37.6163 15.024L38.5039 14.9175C38.5536 15.3458 38.5337 15.785 38.4445 16.2228L37.5611 16.2358ZM26.4933 9.83457L26.5172 9.32448C27.2756 9.27357 28.0362 9.2627 28.7778 9.29214L28.5918 9.80448C27.9034 9.77729 27.1974 9.78732 26.4933 9.83457ZM37.2839 13.8593C37.1094 13.4838 36.8701 13.1212 36.573 12.7815L37.3791 12.5002C37.6996 12.8665 37.9575 13.2575 38.1457 13.6623L37.2839 13.8593ZM30.6087 9.99836L30.9512 9.50101C31.652 9.61032 32.3288 9.75995 32.9626 9.94567L32.4742 10.4108C31.8864 10.2385 31.2587 10.0998 30.6087 9.99836ZM35.5065 11.8277C35.0986 11.5359 34.6286 11.2643 34.1243 11.0282L34.7414 10.6112C35.2844 10.8653 35.7901 11.1578 36.2296 11.472L35.5065 11.8277Z" fill="url(#paint62_linear_440_11129)"/>
<path d="M32.5051 19.9071C36.5335 17.5813 36.971 14.0631 33.4823 12.049C29.9937 10.0348 23.8999 10.2874 19.8716 12.6131C15.8432 14.9389 15.4057 18.4571 18.8944 20.4713C22.3831 22.4855 28.4768 22.2329 32.5051 19.9071Z" fill="url(#paint63_linear_440_11129)"/>
<path d="M39.5016 8.57376C38.5099 8.00123 37.4028 7.5291 36.2128 7.15588L35.4579 7.59173C34.7171 8.01941 34.6366 8.66648 35.2782 9.03688L38.8468 11.0972C39.4883 11.4676 40.609 11.4212 41.3498 10.9934L42.0589 10.584C41.3972 9.85467 40.5465 9.17713 39.5016 8.57376Z" fill="url(#paint64_linear_440_11129)"/>
<path d="M18.6559 7.78224L18.8446 8.32674C19.0298 8.8614 19.9601 9.14462 20.9224 8.95946L26.2754 7.92934C27.2377 7.74409 27.8677 7.16059 27.6825 6.62593L27.5059 6.11621C24.5071 6.2349 21.4519 6.79477 18.6559 7.78224Z" fill="url(#paint65_linear_440_11129)"/>
<path d="M13.6169 13.0922C13.9377 12.5365 13.447 11.9994 12.521 11.8925L11.6343 11.7902C9.88825 13.3956 8.88166 15.155 8.63669 16.8868L9.57503 16.9952C10.5011 17.1021 11.5118 16.7384 11.8326 16.1827L13.6169 13.0922Z" fill="url(#paint66_linear_440_11129)"/>
<path d="M17.0987 23.4834L13.5301 21.423C12.8885 21.0526 11.7678 21.099 11.027 21.5268L10.3179 21.9362C10.9796 22.6656 11.8303 23.3432 12.8752 23.9465C13.8669 24.519 14.974 24.9912 16.1641 25.3644L16.9189 24.9285C17.6597 24.5008 17.7403 23.8538 17.0987 23.4834Z" fill="url(#paint67_linear_440_11129)"/>
<path d="M24.871 31.3608C27.8703 31.2419 30.9246 30.6802 33.7209 29.6924V24.738L24.871 26.4042V31.3608Z" fill="url(#paint68_linear_440_11129)"/>
<path d="M33.5324 24.1937C33.3472 23.659 32.4168 23.3758 31.4545 23.561L26.1016 24.5912C25.1392 24.7763 24.5092 25.3599 24.6944 25.8946L24.8709 26.4043C27.8697 26.2855 30.925 25.7257 33.7208 24.7382L33.5324 24.1937Z" fill="url(#paint69_linear_440_11129)"/>
<path d="M43.8004 14.8137L43.0001 14.7643C42.0741 14.6573 41.0633 15.021 40.7425 15.5767L38.76 19.428C38.4392 19.9837 38.9299 20.5208 39.8558 20.6277L40.7425 20.73C42.4887 19.1246 43.7094 16.7313 43.8004 14.8137Z" fill="url(#paint70_linear_440_11129)"/>
<path d="M12.8751 23.9465C13.784 24.4712 14.7901 24.9114 15.8679 25.2686H21.4074L8.5779 17.6454C8.54874 20.0062 9.9609 22.2639 12.8751 23.9465Z" fill="url(#paint71_linear_440_11129)"/>
<path d="M14.1699 24.2292L14.1702 24.2294C16.7847 25.0492 19.8002 25.3909 22.8757 25.2691L22.8769 25.2687L31.7268 23.6003L31.7368 23.5993C33.1452 23.1013 34.488 22.4951 35.7239 21.7816C36.9015 21.1017 37.9096 20.3657 38.7483 19.5944L41.8062 8.72168L6.58271 11.5722V16.5576C6.58262 16.5733 6.58262 16.5891 6.58271 16.6047V16.6305H6.58327C6.59565 18.1026 7.17146 19.5311 8.32374 20.8016L14.1699 24.2292Z" fill="url(#paint72_linear_440_11129)"/>
<path d="M38.7484 19.5945C40.7812 17.7252 41.813 15.647 41.8058 13.6472H41.8062V8.72168L38.7484 14.6381V19.5945Z" fill="url(#paint73_linear_440_11129)"/>
<path d="M40.0643 4.49137L34.2189 1.06368C31.604 0.243841 28.5879 -0.0978779 25.5119 0.0239971L16.662 1.69012C15.25 2.18878 13.9038 2.79618 12.665 3.5114C11.4877 4.19118 10.4792 4.92693 9.64052 5.69803L6.64277 10.7946C6.39114 12.5734 6.94408 14.3224 8.32455 15.8444L14.1702 19.2722C16.7851 20.0921 19.8012 20.4338 22.8772 20.312L31.7271 18.6459C33.1391 18.1472 34.4853 17.5399 35.7241 16.8247C36.9015 16.1449 37.9099 15.4091 38.7486 14.638L41.8042 8.72606C41.8081 7.2315 41.2328 5.78015 40.0643 4.49137Z" fill="url(#paint74_linear_440_11129)"/>
<path d="M33.9353 4.54398C29.2762 1.8541 21.1381 2.19141 15.7583 5.29745C10.3785 8.40348 9.7942 13.102 14.4532 15.7919C19.1123 18.4819 27.2504 18.1445 32.6302 15.0384C38.01 11.9325 38.5944 7.23395 33.9353 4.54398ZM31.3504 14.2996C26.7868 16.9344 19.8833 17.2206 15.9311 14.9388C11.9789 12.6569 12.4745 8.67123 17.0382 6.03638C21.6018 3.40154 28.5053 3.11541 32.4575 5.39719C36.4097 7.67907 35.9141 11.6648 31.3504 14.2996Z" fill="url(#paint75_linear_440_11129)"/>
<path d="M15.7583 5.72232C21.1381 2.61629 29.2762 2.27898 33.9353 4.96885C35.9587 6.13707 36.9918 7.68432 37.074 9.31529C37.1634 7.52991 36.1337 5.81326 33.9353 4.54398C29.2762 1.8541 21.1381 2.19141 15.7583 5.29744C12.715 7.05451 11.2076 9.3211 11.3146 11.4455C11.4147 9.44719 12.917 7.36266 15.7583 5.72232Z" fill="url(#paint76_linear_440_11129)"/>
<path d="M15.9311 15.3637C19.8833 17.6455 26.7868 17.3594 31.3504 14.7245C33.9474 13.2252 35.225 11.2885 35.1173 9.47705C35.0178 11.1623 33.7454 12.9169 31.3504 14.2996C26.7868 16.9344 19.8833 17.2205 15.9311 14.9387C14.2279 13.9554 13.3529 12.6555 13.2713 11.2838C13.1812 12.81 14.0528 14.2793 15.9311 15.3637Z" fill="url(#paint77_linear_440_11129)"/>
<path d="M15.6273 16.0936L16.2454 15.6771C16.7527 15.9154 17.3072 16.1236 17.8933 16.2961L17.4036 16.7608C16.7717 16.5749 16.1741 16.3505 15.6273 16.0936ZM14.1417 15.2312C13.6999 14.914 13.3143 14.5677 12.9953 14.2016L13.8021 13.921C14.0979 14.2606 14.4557 14.5819 14.8656 14.8761L14.1417 15.2312ZM19.4134 17.2075L19.7573 16.7104C20.4057 16.8122 21.084 16.8781 21.7732 16.9061L21.5858 17.4185C20.8431 17.3883 20.1122 17.3173 19.4134 17.2075ZM12.2321 13.0387C12.0455 12.6344 11.9262 12.2119 11.8774 11.7829L12.7652 11.677C12.8104 12.0753 12.9211 12.4673 13.0942 12.8423L12.2321 13.0387ZM23.8458 17.3882L23.8712 16.878C24.5756 16.8314 25.2852 16.7471 25.98 16.6275L26.1179 17.1183C25.3692 17.2471 24.6048 17.3379 23.8458 17.3882ZM11.9406 10.4773C12.0312 10.039 12.1921 9.59785 12.4185 9.16585L13.2674 9.24779C13.0571 9.64866 12.9078 10.0582 12.8238 10.465L11.9406 10.4773ZM28.3248 16.6168L28.0274 16.1622C28.6905 15.9731 29.3352 15.7493 29.9435 15.4968L30.3909 15.8993C29.7349 16.1715 29.0398 16.4129 28.3248 16.6168ZM13.2976 7.89282C13.6539 7.48079 14.0751 7.08038 14.5496 6.70266L15.2439 6.9631C14.804 7.31344 14.4133 7.68479 14.0828 8.06691L13.2976 7.89282ZM32.2455 14.991L31.6631 14.6547L31.6917 14.6382C32.2263 14.3295 32.719 13.996 33.156 13.6471L33.8513 13.9068C33.3805 14.2828 32.8499 14.6421 32.2741 14.9745L32.2455 14.991ZM16.7107 5.97301L16.1293 5.63625C16.7057 5.30438 17.3285 4.99847 17.9808 4.72707L18.4293 5.12897C17.8241 5.38088 17.2458 5.66485 16.7107 5.97301ZM34.3143 12.5425C34.6436 12.1604 34.917 11.7629 35.1266 11.3611L35.9759 11.4423C35.7498 11.8754 35.4553 12.3038 35.1003 12.7158L34.3143 12.5425ZM20.3441 4.46185L20.0454 4.00772C20.7592 3.80344 21.5014 3.63404 22.2514 3.50429L22.3907 3.99488C21.6948 4.11516 21.0063 4.27229 20.3441 4.46185ZM35.5669 10.1438C35.6498 9.73725 35.6684 9.32963 35.6222 8.93194L36.5098 8.82544C36.5595 9.25369 36.5396 9.69291 36.4503 10.1307L35.5669 10.1438ZM24.4992 3.74241L24.5231 3.23232C25.2814 3.18141 26.0421 3.17054 26.7837 3.19997L26.5977 3.71232C25.9093 3.68513 25.2033 3.69516 24.4992 3.74241ZM35.2897 7.7671C35.1153 7.39163 34.876 7.029 34.5788 6.68935L35.385 6.408C35.7055 6.77429 35.9634 7.16522 36.1516 7.57013L35.2897 7.7671ZM28.6145 3.90629L28.9571 3.40894C29.6579 3.51825 30.3347 3.66788 30.9685 3.8536L30.4801 4.31869C29.8923 4.14638 29.2646 4.00763 28.6145 3.90629ZM33.5123 5.73554C33.1043 5.44379 32.6344 5.17201 32.1302 4.93604L32.7472 4.51904C33.2902 4.7731 33.796 5.0656 34.2354 5.37985L33.5123 5.73554Z" fill="url(#paint78_linear_440_11129)"/>
<path d="M30.511 13.8148C34.5393 11.4891 34.9769 7.97084 31.4881 5.95671C27.9995 3.94249 21.9058 4.19515 17.8774 6.5209C13.8491 8.84665 13.4116 12.3649 16.9002 14.379C20.389 16.3932 26.4826 16.1407 30.511 13.8148Z" fill="url(#paint79_linear_440_11129)"/>
<path d="M37.5074 2.4815C36.5157 1.90897 35.4087 1.43685 34.2186 1.06372L33.4637 1.49956C32.7229 1.92725 32.6425 2.57431 33.284 2.94472L36.8526 5.00506C37.4942 5.37547 38.6148 5.32906 39.3556 4.90128L40.0647 4.49188C39.4031 3.76241 38.5524 3.08488 37.5074 2.4815Z" fill="url(#paint80_linear_440_11129)"/>
<path d="M16.6618 1.69008L16.8504 2.23458C17.0356 2.76924 17.9659 3.05245 18.9283 2.8673L24.2812 1.83717C25.2436 1.65192 25.8736 1.06842 25.6883 0.533767L25.5118 0.0240479C22.5129 0.142829 19.4577 0.70261 16.6618 1.69008Z" fill="url(#paint81_linear_440_11129)"/>
<path d="M11.6227 7.00012C11.9435 6.44446 11.4528 5.90737 10.5269 5.8005L9.64017 5.69812C7.89408 7.3035 6.88749 9.06299 6.64252 10.7947L7.58095 10.903C8.50702 11.01 9.51774 10.6462 9.83855 10.0906L11.6227 7.00012Z" fill="url(#paint82_linear_440_11129)"/>
<path d="M8.32373 20.8013C8.98523 21.5307 9.83611 22.2081 10.881 22.8114C11.8727 23.384 12.9798 23.856 14.1699 24.2291V19.2722L8.32373 15.8441V20.8013Z" fill="url(#paint83_linear_440_11129)"/>
<path d="M15.1045 17.3912L11.5359 15.3309C10.8944 14.9605 9.77367 15.0069 9.03286 15.4347L8.32373 15.8441C8.98542 16.5734 9.83611 17.2511 10.881 17.8544C11.8727 18.4269 12.9798 18.899 14.1699 19.2722L14.9248 18.8364C15.6656 18.4086 15.7461 17.7616 15.1045 17.3912Z" fill="url(#paint84_linear_440_11129)"/>
<path d="M22.8768 25.2687C25.8761 25.1498 28.9305 24.588 31.7267 23.6003V18.6459L22.8768 20.312V25.2687Z" fill="url(#paint85_linear_440_11129)"/>
<path d="M31.5382 18.1014C31.3531 17.5667 30.4228 17.2835 29.4603 17.4687L24.1074 18.4988C23.1451 18.6841 22.5151 19.2676 22.7003 19.8022L22.8768 20.3119C25.8756 20.1932 28.9308 19.6333 31.7268 18.6459L31.5382 18.1014Z" fill="url(#paint86_linear_440_11129)"/>
<path d="M41.8062 8.7216L41.0059 8.6721C40.0799 8.56514 39.0692 8.92889 38.7483 9.48454L36.7658 13.3359C36.445 13.8915 36.9357 14.4286 37.8618 14.5355L38.7484 14.6379C40.4945 13.0326 41.7153 10.6393 41.8062 8.7216Z" fill="url(#paint87_linear_440_11129)"/>
<defs>
<linearGradient id="paint0_linear_440_11129" x1="17.0283" y1="39.7143" x2="32.5838" y2="39.7143" gradientUnits="userSpaceOnUse">
<stop stop-color="#43386B"/>
<stop offset="1" stop-color="#594A8E"/>
</linearGradient>
<linearGradient id="paint1_linear_440_11129" x1="17.0282" y1="42.7436" x2="32.5838" y2="42.7436" gradientUnits="userSpaceOnUse">
<stop stop-color="#C5BAEB"/>
<stop offset="1" stop-color="#D7D1EB"/>
</linearGradient>
<linearGradient id="paint2_linear_440_11129" x1="9.91253" y1="38.663" x2="15.2594" y2="47.9241" gradientUnits="userSpaceOnUse">
<stop stop-color="#43386B"/>
<stop offset="1" stop-color="#43386B" stop-opacity="0"/>
</linearGradient>
<linearGradient id="paint3_linear_440_11129" x1="16.5815" y1="36.865" x2="32.4491" y2="36.865" gradientUnits="userSpaceOnUse">
<stop stop-color="#C5BAEB"/>
<stop offset="1" stop-color="#D7D1EB"/>
</linearGradient>
<linearGradient id="paint4_linear_440_11129" x1="24.7482" y1="43.5297" x2="24.7482" y2="23.5968" gradientUnits="userSpaceOnUse">
<stop stop-color="#7662BD"/>
<stop offset="1" stop-color="#A996EB"/>
</linearGradient>
<linearGradient id="paint5_linear_440_11129" x1="33.1375" y1="37.8152" x2="5.87717" y2="21.7619" gradientUnits="userSpaceOnUse">
<stop stop-color="#43386B"/>
<stop offset="1" stop-color="#594A8E"/>
</linearGradient>
<linearGradient id="paint6_linear_440_11129" x1="29.7834" y1="29.7938" x2="19.2812" y2="29.7938" gradientUnits="userSpaceOnUse">
<stop stop-color="#43386B"/>
<stop offset="1" stop-color="#594A8E"/>
</linearGradient>
<linearGradient id="paint7_linear_440_11129" x1="16.3551" y1="35.8976" x2="26.1824" y2="35.8976" gradientUnits="userSpaceOnUse">
<stop stop-color="#43386B"/>
<stop offset="1" stop-color="#594A8E"/>
</linearGradient>
<linearGradient id="paint8_linear_440_11129" x1="15.4564" y1="38.378" x2="24.7645" y2="22.2563" gradientUnits="userSpaceOnUse">
<stop stop-color="#F2EFFA"/>
<stop offset="1" stop-color="white"/>
</linearGradient>
<linearGradient id="paint9_linear_440_11129" x1="17.1058" y1="37.2847" x2="24.2529" y2="24.9059" gradientUnits="userSpaceOnUse">
<stop stop-color="#F2EFFA"/>
<stop offset="1" stop-color="white"/>
</linearGradient>
<linearGradient id="paint10_linear_440_11129" x1="35.5625" y1="26.7207" x2="36.7936" y2="24.5884" gradientUnits="userSpaceOnUse">
<stop stop-color="#F2EFFA"/>
<stop offset="1" stop-color="white"/>
</linearGradient>
<linearGradient id="paint11_linear_440_11129" x1="18.5516" y1="25.9901" x2="21.6994" y2="20.5381" gradientUnits="userSpaceOnUse">
<stop stop-color="#F2EFFA"/>
<stop offset="1" stop-color="white"/>
</linearGradient>
<linearGradient id="paint12_linear_440_11129" x1="6.15713" y1="33.0756" x2="9.31583" y2="27.6048" gradientUnits="userSpaceOnUse">
<stop stop-color="#F2EFFA"/>
<stop offset="1" stop-color="white"/>
</linearGradient>
<linearGradient id="paint13_linear_440_11129" x1="11.3015" y1="40.5481" x2="12.5327" y2="38.4158" gradientUnits="userSpaceOnUse">
<stop stop-color="#F2EFFA"/>
<stop offset="1" stop-color="white"/>
</linearGradient>
<linearGradient id="paint14_linear_440_11129" x1="17.0282" y1="44.6642" x2="32.5839" y2="44.6642" gradientUnits="userSpaceOnUse">
<stop stop-color="#C5BAEB"/>
<stop offset="1" stop-color="#D7D1EB"/>
</linearGradient>
<linearGradient id="paint15_linear_440_11129" x1="24.2131" y1="43.6441" x2="27.361" y2="38.192" gradientUnits="userSpaceOnUse">
<stop stop-color="#F2EFFA"/>
<stop offset="1" stop-color="white"/>
</linearGradient>
<linearGradient id="paint16_linear_440_11129" x1="36.2868" y1="36.4207" x2="39.8081" y2="30.3219" gradientUnits="userSpaceOnUse">
<stop stop-color="#F2EFFA"/>
<stop offset="1" stop-color="white"/>
</linearGradient>
<linearGradient id="paint17_linear_440_11129" x1="12.9691" y1="37.0717" x2="2.50101" y2="43.1155" gradientUnits="userSpaceOnUse">
<stop offset="0.0319" stop-color="#45356D"/>
<stop offset="1" stop-color="#45356D" stop-opacity="0"/>
</linearGradient>
<linearGradient id="paint18_linear_440_11129" x1="14.5909" y1="34.0652" x2="30.1465" y2="34.0652" gradientUnits="userSpaceOnUse">
<stop stop-color="#00395E"/>
<stop offset="1" stop-color="#0072BC"/>
</linearGradient>
<linearGradient id="paint19_linear_440_11129" x1="14.591" y1="37.0946" x2="30.1465" y2="37.0946" gradientUnits="userSpaceOnUse">
<stop stop-color="#C5BAEB"/>
<stop offset="1" stop-color="#D7D1EB"/>
</linearGradient>
<linearGradient id="paint20_linear_440_11129" x1="6.52346" y1="29.8922" x2="12.3437" y2="39.9732" gradientUnits="userSpaceOnUse">
<stop stop-color="#43386B"/>
<stop offset="1" stop-color="#43386B" stop-opacity="0"/>
</linearGradient>
<linearGradient id="paint21_linear_440_11129" x1="14.1441" y1="31.2159" x2="30.0118" y2="31.2159" gradientUnits="userSpaceOnUse">
<stop stop-color="#C5BAEB"/>
<stop offset="1" stop-color="#D7D1EB"/>
</linearGradient>
<linearGradient id="paint22_linear_440_11129" x1="22.3109" y1="37.8807" x2="22.3109" y2="17.9478" gradientUnits="userSpaceOnUse">
<stop stop-color="#0072BC"/>
<stop offset="1" stop-color="#2F97F7"/>
</linearGradient>
<linearGradient id="paint23_linear_440_11129" x1="30.7002" y1="32.1661" x2="3.43986" y2="16.1128" gradientUnits="userSpaceOnUse">
<stop stop-color="#00395E"/>
<stop offset="1" stop-color="#0072BC"/>
</linearGradient>
<linearGradient id="paint24_linear_440_11129" x1="27.3461" y1="24.1447" x2="16.8438" y2="24.1447" gradientUnits="userSpaceOnUse">
<stop stop-color="#00395E"/>
<stop offset="1" stop-color="#0072BC"/>
</linearGradient>
<linearGradient id="paint25_linear_440_11129" x1="13.9179" y1="30.2485" x2="23.7451" y2="30.2485" gradientUnits="userSpaceOnUse">
<stop stop-color="#00395E"/>
<stop offset="1" stop-color="#0072BC"/>
</linearGradient>
<linearGradient id="paint26_linear_440_11129" x1="13.019" y1="32.7304" x2="22.3272" y2="16.6088" gradientUnits="userSpaceOnUse">
<stop stop-color="#F2EFFA"/>
<stop offset="1" stop-color="white"/>
</linearGradient>
<linearGradient id="paint27_linear_440_11129" x1="14.6684" y1="31.6371" x2="21.8156" y2="19.2582" gradientUnits="userSpaceOnUse">
<stop stop-color="#F2EFFA"/>
<stop offset="1" stop-color="white"/>
</linearGradient>
<linearGradient id="paint28_linear_440_11129" x1="33.1252" y1="21.0733" x2="34.3563" y2="18.941" gradientUnits="userSpaceOnUse">
<stop stop-color="#F2EFFA"/>
<stop offset="1" stop-color="white"/>
</linearGradient>
<linearGradient id="paint29_linear_440_11129" x1="16.1143" y1="20.3426" x2="19.2621" y2="14.8906" gradientUnits="userSpaceOnUse">
<stop stop-color="#F2EFFA"/>
<stop offset="1" stop-color="white"/>
</linearGradient>
<linearGradient id="paint30_linear_440_11129" x1="3.71986" y1="27.428" x2="6.87856" y2="21.9572" gradientUnits="userSpaceOnUse">
<stop stop-color="#F2EFFA"/>
<stop offset="1" stop-color="white"/>
</linearGradient>
<linearGradient id="paint31_linear_440_11129" x1="8.86423" y1="34.9005" x2="10.0953" y2="32.7682" gradientUnits="userSpaceOnUse">
<stop stop-color="#F2EFFA"/>
<stop offset="1" stop-color="white"/>
</linearGradient>
<linearGradient id="paint32_linear_440_11129" x1="14.5909" y1="39.0152" x2="30.1466" y2="39.0152" gradientUnits="userSpaceOnUse">
<stop stop-color="#C5BAEB"/>
<stop offset="1" stop-color="#D7D1EB"/>
</linearGradient>
<linearGradient id="paint33_linear_440_11129" x1="21.7759" y1="37.9965" x2="24.9237" y2="32.5444" gradientUnits="userSpaceOnUse">
<stop stop-color="#F2EFFA"/>
<stop offset="1" stop-color="white"/>
</linearGradient>
<linearGradient id="paint34_linear_440_11129" x1="33.8494" y1="30.7731" x2="37.3707" y2="24.6742" gradientUnits="userSpaceOnUse">
<stop stop-color="#F2EFFA"/>
<stop offset="1" stop-color="white"/>
</linearGradient>
<linearGradient id="paint35_linear_440_11129" x1="13.9304" y1="30.0436" x2="-0.459018" y2="38.3514" gradientUnits="userSpaceOnUse">
<stop stop-color="#43386B"/>
<stop offset="1" stop-color="#43386B" stop-opacity="0"/>
</linearGradient>
<linearGradient id="paint36_linear_440_11129" x1="16.4744" y1="28.7486" x2="32.03" y2="28.7486" gradientUnits="userSpaceOnUse">
<stop stop-color="#236568"/>
<stop offset="1" stop-color="#2F878A"/>
</linearGradient>
<linearGradient id="paint37_linear_440_11129" x1="16.4744" y1="31.7777" x2="32.0299" y2="31.7777" gradientUnits="userSpaceOnUse">
<stop stop-color="#C5BAEB"/>
<stop offset="1" stop-color="#D7D1EB"/>
</linearGradient>
<linearGradient id="paint38_linear_440_11129" x1="6.05126" y1="19.36" x2="14.7231" y2="34.3802" gradientUnits="userSpaceOnUse">
<stop stop-color="#43386B"/>
<stop offset="1" stop-color="#43386B" stop-opacity="0"/>
</linearGradient>
<linearGradient id="paint39_linear_440_11129" x1="16.0277" y1="25.8993" x2="31.8952" y2="25.8993" gradientUnits="userSpaceOnUse">
<stop stop-color="#C5BAEB"/>
<stop offset="1" stop-color="#D7D1EB"/>
</linearGradient>
<linearGradient id="paint40_linear_440_11129" x1="24.1941" y1="32.5639" x2="24.1941" y2="12.631" gradientUnits="userSpaceOnUse">
<stop stop-color="#06DAAE"/>
<stop offset="1" stop-color="#9BF0DF"/>
</linearGradient>
<linearGradient id="paint41_linear_440_11129" x1="32.5836" y1="26.8494" x2="5.32339" y2="10.7962" gradientUnits="userSpaceOnUse">
<stop stop-color="#236568"/>
<stop offset="1" stop-color="#2F878A"/>
</linearGradient>
<linearGradient id="paint42_linear_440_11129" x1="29.2295" y1="18.8281" x2="18.7274" y2="18.8281" gradientUnits="userSpaceOnUse">
<stop stop-color="#236568"/>
<stop offset="1" stop-color="#2F878A"/>
</linearGradient>
<linearGradient id="paint43_linear_440_11129" x1="15.8013" y1="24.9318" x2="25.6286" y2="24.9318" gradientUnits="userSpaceOnUse">
<stop stop-color="#236568"/>
<stop offset="1" stop-color="#2F878A"/>
</linearGradient>
<linearGradient id="paint44_linear_440_11129" x1="14.9025" y1="27.416" x2="24.2107" y2="11.2944" gradientUnits="userSpaceOnUse">
<stop stop-color="#F2EFFA"/>
<stop offset="1" stop-color="white"/>
</linearGradient>
<linearGradient id="paint45_linear_440_11129" x1="16.5519" y1="26.3226" x2="23.6991" y2="13.9438" gradientUnits="userSpaceOnUse">
<stop stop-color="#F2EFFA"/>
<stop offset="1" stop-color="white"/>
</linearGradient>
<linearGradient id="paint46_linear_440_11129" x1="35.0086" y1="15.7587" x2="36.2397" y2="13.6264" gradientUnits="userSpaceOnUse">
<stop stop-color="#F2EFFA"/>
<stop offset="1" stop-color="white"/>
</linearGradient>
<linearGradient id="paint47_linear_440_11129" x1="17.9977" y1="15.028" x2="21.1456" y2="9.576" gradientUnits="userSpaceOnUse">
<stop stop-color="#F2EFFA"/>
<stop offset="1" stop-color="white"/>
</linearGradient>
<linearGradient id="paint48_linear_440_11129" x1="5.6033" y1="22.1136" x2="8.762" y2="16.6427" gradientUnits="userSpaceOnUse">
<stop stop-color="#F2EFFA"/>
<stop offset="1" stop-color="white"/>
</linearGradient>
<linearGradient id="paint49_linear_440_11129" x1="10.7477" y1="29.586" x2="11.9788" y2="27.4537" gradientUnits="userSpaceOnUse">
<stop stop-color="#F2EFFA"/>
<stop offset="1" stop-color="white"/>
</linearGradient>
<linearGradient id="paint50_linear_440_11129" x1="16.4744" y1="33.6984" x2="32.03" y2="33.6984" gradientUnits="userSpaceOnUse">
<stop stop-color="#C5BAEB"/>
<stop offset="1" stop-color="#D7D1EB"/>
</linearGradient>
<linearGradient id="paint51_linear_440_11129" x1="23.6593" y1="32.682" x2="26.8072" y2="27.2299" gradientUnits="userSpaceOnUse">
<stop stop-color="#F2EFFA"/>
<stop offset="1" stop-color="white"/>
</linearGradient>
<linearGradient id="paint52_linear_440_11129" x1="35.7328" y1="25.4585" x2="39.2541" y2="19.3596" gradientUnits="userSpaceOnUse">
<stop stop-color="#F2EFFA"/>
<stop offset="1" stop-color="white"/>
</linearGradient>
<linearGradient id="paint53_linear_440_11129" x1="21.1492" y1="21.7305" x2="-5.29718" y2="36.9993" gradientUnits="userSpaceOnUse">
<stop stop-color="#43386B"/>
<stop offset="1" stop-color="#43386B" stop-opacity="0"/>
</linearGradient>
<linearGradient id="paint54_linear_440_11129" x1="18.4682" y1="23.0994" x2="34.0238" y2="23.0994" gradientUnits="userSpaceOnUse">
<stop stop-color="#FFA538"/>
<stop offset="1" stop-color="#FFC538"/>
</linearGradient>
<linearGradient id="paint55_linear_440_11129" x1="18.4682" y1="26.1288" x2="34.0237" y2="26.1288" gradientUnits="userSpaceOnUse">
<stop stop-color="#C5BAEB"/>
<stop offset="1" stop-color="#D7D1EB"/>
</linearGradient>
<linearGradient id="paint56_linear_440_11129" x1="9.06663" y1="19.2803" x2="13.8406" y2="27.5488" gradientUnits="userSpaceOnUse">
<stop stop-color="#43386B"/>
<stop offset="1" stop-color="#43386B" stop-opacity="0"/>
</linearGradient>
<linearGradient id="paint57_linear_440_11129" x1="18.0214" y1="20.2502" x2="33.889" y2="20.2502" gradientUnits="userSpaceOnUse">
<stop stop-color="#C5BAEB"/>
<stop offset="1" stop-color="#D7D1EB"/>
</linearGradient>
<linearGradient id="paint58_linear_440_11129" x1="26.1881" y1="26.9149" x2="26.1881" y2="6.98194" gradientUnits="userSpaceOnUse">
<stop stop-color="#F7E041"/>
<stop offset="1" stop-color="#FCF3B3"/>
</linearGradient>
<linearGradient id="paint59_linear_440_11129" x1="34.5774" y1="21.2004" x2="7.31717" y2="5.14698" gradientUnits="userSpaceOnUse">
<stop stop-color="#FFA538"/>
<stop offset="1" stop-color="#FFC538"/>
</linearGradient>
<linearGradient id="paint60_linear_440_11129" x1="31.2233" y1="13.1789" x2="20.7212" y2="13.1789" gradientUnits="userSpaceOnUse">
<stop stop-color="#FFA538"/>
<stop offset="1" stop-color="#FFC538"/>
</linearGradient>
<linearGradient id="paint61_linear_440_11129" x1="17.7951" y1="19.2827" x2="27.6224" y2="19.2827" gradientUnits="userSpaceOnUse">
<stop stop-color="#FFA538"/>
<stop offset="1" stop-color="#FFC538"/>
</linearGradient>
<linearGradient id="paint62_linear_440_11129" x1="16.8963" y1="21.7693" x2="26.2044" y2="5.64756" gradientUnits="userSpaceOnUse">
<stop stop-color="#F2EFFA"/>
<stop offset="1" stop-color="white"/>
</linearGradient>
<linearGradient id="paint63_linear_440_11129" x1="18.5457" y1="20.676" x2="25.6928" y2="8.29712" gradientUnits="userSpaceOnUse">
<stop stop-color="#F2EFFA"/>
<stop offset="1" stop-color="white"/>
</linearGradient>
<linearGradient id="paint64_linear_440_11129" x1="37.0025" y1="10.1121" x2="38.2336" y2="7.97977" gradientUnits="userSpaceOnUse">
<stop stop-color="#F2EFFA"/>
<stop offset="1" stop-color="white"/>
</linearGradient>
<linearGradient id="paint65_linear_440_11129" x1="19.9915" y1="9.38126" x2="23.1393" y2="3.92923" gradientUnits="userSpaceOnUse">
<stop stop-color="#F2EFFA"/>
<stop offset="1" stop-color="white"/>
</linearGradient>
<linearGradient id="paint66_linear_440_11129" x1="7.59706" y1="16.4668" x2="10.7558" y2="10.9959" gradientUnits="userSpaceOnUse">
<stop stop-color="#F2EFFA"/>
<stop offset="1" stop-color="white"/>
</linearGradient>
<linearGradient id="paint67_linear_440_11129" x1="12.7415" y1="23.9393" x2="13.9726" y2="21.807" gradientUnits="userSpaceOnUse">
<stop stop-color="#F2EFFA"/>
<stop offset="1" stop-color="white"/>
</linearGradient>
<linearGradient id="paint68_linear_440_11129" x1="18.4683" y1="28.0495" x2="34.0238" y2="28.0495" gradientUnits="userSpaceOnUse">
<stop stop-color="#C5BAEB"/>
<stop offset="1" stop-color="#D7D1EB"/>
</linearGradient>
<linearGradient id="paint69_linear_440_11129" x1="25.6531" y1="27.0354" x2="28.8009" y2="21.5833" gradientUnits="userSpaceOnUse">
<stop stop-color="#F2EFFA"/>
<stop offset="1" stop-color="white"/>
</linearGradient>
<linearGradient id="paint70_linear_440_11129" x1="37.7267" y1="19.8118" x2="41.248" y2="13.7129" gradientUnits="userSpaceOnUse">
<stop stop-color="#F2EFFA"/>
<stop offset="1" stop-color="white"/>
</linearGradient>
<linearGradient id="paint71_linear_440_11129" x1="14.8563" y1="21.5356" x2="7.63749" y2="25.7035" gradientUnits="userSpaceOnUse">
<stop stop-color="#43386B"/>
<stop offset="1" stop-color="#43386B" stop-opacity="0"/>
</linearGradient>
<linearGradient id="paint72_linear_440_11129" x1="16.474" y1="17.0074" x2="32.0297" y2="17.0074" gradientUnits="userSpaceOnUse">
<stop stop-color="#AB2C37"/>
<stop offset="1" stop-color="#FF4757"/>
</linearGradient>
<linearGradient id="paint73_linear_440_11129" x1="16.0272" y1="14.1581" x2="31.8949" y2="14.1581" gradientUnits="userSpaceOnUse">
<stop stop-color="#C5BAEB"/>
<stop offset="1" stop-color="#D7D1EB"/>
</linearGradient>
<linearGradient id="paint74_linear_440_11129" x1="24.194" y1="20.8227" x2="24.194" y2="0.889779" gradientUnits="userSpaceOnUse">
<stop stop-color="#FF4757"/>
<stop offset="1" stop-color="#FF7A85"/>
</linearGradient>
<linearGradient id="paint75_linear_440_11129" x1="32.5832" y1="15.1082" x2="5.32298" y2="-0.945179" gradientUnits="userSpaceOnUse">
<stop stop-color="#AB2C37"/>
<stop offset="1" stop-color="#FF4757"/>
</linearGradient>
<linearGradient id="paint76_linear_440_11129" x1="29.2291" y1="7.08666" x2="18.727" y2="7.08666" gradientUnits="userSpaceOnUse">
<stop stop-color="#AB2C37"/>
<stop offset="1" stop-color="#FF4757"/>
</linearGradient>
<linearGradient id="paint77_linear_440_11129" x1="15.801" y1="13.1907" x2="25.6281" y2="13.1907" gradientUnits="userSpaceOnUse">
<stop stop-color="#AB2C37"/>
<stop offset="1" stop-color="#FF4757"/>
</linearGradient>
<linearGradient id="paint78_linear_440_11129" x1="14.9022" y1="15.6788" x2="24.2103" y2="-0.442853" gradientUnits="userSpaceOnUse">
<stop stop-color="#F2EFFA"/>
<stop offset="1" stop-color="white"/>
</linearGradient>
<linearGradient id="paint79_linear_440_11129" x1="16.5515" y1="14.5854" x2="23.6986" y2="2.20662" gradientUnits="userSpaceOnUse">
<stop stop-color="#F2EFFA"/>
<stop offset="1" stop-color="white"/>
</linearGradient>
<linearGradient id="paint80_linear_440_11129" x1="35.0082" y1="4.02153" x2="36.2393" y2="1.88923" gradientUnits="userSpaceOnUse">
<stop stop-color="#F2EFFA"/>
<stop offset="1" stop-color="white"/>
</linearGradient>
<linearGradient id="paint81_linear_440_11129" x1="17.9974" y1="3.29087" x2="21.1452" y2="-2.16125" gradientUnits="userSpaceOnUse">
<stop stop-color="#F2EFFA"/>
<stop offset="1" stop-color="white"/>
</linearGradient>
<linearGradient id="paint82_linear_440_11129" x1="5.60299" y1="10.3765" x2="8.76168" y2="4.90561" gradientUnits="userSpaceOnUse">
<stop stop-color="#F2EFFA"/>
<stop offset="1" stop-color="white"/>
</linearGradient>
<linearGradient id="paint83_linear_440_11129" x1="16.474" y1="20.0366" x2="32.0295" y2="20.0366" gradientUnits="userSpaceOnUse">
<stop stop-color="#C5BAEB"/>
<stop offset="1" stop-color="#D7D1EB"/>
</linearGradient>
<linearGradient id="paint84_linear_440_11129" x1="10.7473" y1="17.8488" x2="11.9784" y2="15.7165" gradientUnits="userSpaceOnUse">
<stop stop-color="#F2EFFA"/>
<stop offset="1" stop-color="white"/>
</linearGradient>
<linearGradient id="paint85_linear_440_11129" x1="16.474" y1="21.9573" x2="32.0296" y2="21.9573" gradientUnits="userSpaceOnUse">
<stop stop-color="#C5BAEB"/>
<stop offset="1" stop-color="#D7D1EB"/>
</linearGradient>
<linearGradient id="paint86_linear_440_11129" x1="23.659" y1="20.9448" x2="26.8068" y2="15.4928" gradientUnits="userSpaceOnUse">
<stop stop-color="#F2EFFA"/>
<stop offset="1" stop-color="white"/>
</linearGradient>
<linearGradient id="paint87_linear_440_11129" x1="35.7326" y1="13.7214" x2="39.2538" y2="7.62252" gradientUnits="userSpaceOnUse">
<stop stop-color="#F2EFFA"/>
<stop offset="1" stop-color="white"/>
</linearGradient>
</defs>
</svg>
