<svg width="49" height="48" viewBox="0 0 49 48" fill="none" xmlns="http://www.w3.org/2000/svg">
<path d="M25.7801 4.15686L25.034 3.71914C24.7098 3.52958 24.2671 3.59604 23.8094 3.95904L7.3655 17.0033C6.54866 17.6513 5.99366 18.9977 6.12594 20.0105L9.59178 46.547C9.65009 46.9936 9.83253 47.3002 10.0881 47.4485L10.8143 47.8709L25.7801 4.15686Z" fill="url(#paint0_linear_440_11022)"/>
<path d="M24.5618 4.3948L8.13071 17.429C7.31443 18.0765 6.76009 19.423 6.89246 20.4366L10.3611 46.9944C10.4935 48.008 11.2625 48.3049 12.0787 47.6573L28.5098 34.6232C29.3261 33.9756 29.8804 32.6291 29.7481 31.6155L26.2794 5.0577C26.147 4.04408 25.378 3.74727 24.5618 4.3948Z" fill="url(#paint1_linear_440_11022)"/>
<path d="M10.5954 20.2477L9.03811 21.483L8.91352 22.262C8.87968 22.4734 8.76258 22.6867 8.61689 22.8023C8.35618 23.0091 8.13839 22.8139 8.20589 22.434L8.91389 18.4501C8.97436 18.1102 9.16346 17.7719 9.3968 17.5869C9.62986 17.402 9.8633 17.4045 9.99296 17.5933L11.5147 19.8088C11.6598 20.02 11.5291 20.4921 11.2682 20.699L11.2498 20.7136C11.1041 20.8292 10.9585 20.8243 10.881 20.7013L10.5954 20.2477ZM10.2555 19.7097L9.5153 18.5369L9.19168 20.5535L10.2555 19.7097Z" fill="#FF4757"/>
<path d="M28.0349 29.2135C27.8892 29.3291 27.7721 29.5423 27.7383 29.7537L27.6137 30.5326L26.0564 31.768L25.7709 31.3145C25.6933 31.1914 25.5477 31.1865 25.402 31.3021L25.3836 31.3167C25.1227 31.5237 24.9921 31.9958 25.1371 32.207L26.6589 34.4225C26.7885 34.6112 27.022 34.6137 27.255 34.4289C27.4883 34.2438 27.6775 33.9057 27.7379 33.5656L28.4459 29.5817C28.5134 29.2018 28.2956 29.0067 28.0349 29.2135ZM27.1364 33.4788L26.3963 32.3061L27.46 31.4622L27.1364 33.4788Z" fill="#FF4757"/>
<path d="M22.1448 17.8342C20.733 17.2408 18.7371 18.8067 17.7109 21.2995C16.2875 20.75 14.2957 22.3472 13.2894 24.8587C12.3043 27.3172 12.6755 29.7105 14.0746 30.2505L18.5628 31.9827C18.8789 32.1047 19.3199 31.7549 19.5478 31.2014L22.7833 23.3424C23.7918 20.8925 23.5267 18.415 22.1448 17.8342Z" fill="#FF4757"/>
<path d="M11.2096 21.8094C10.8321 21.6507 10.2983 22.0694 10.0238 22.7361C9.64312 22.5892 9.11053 23.0163 8.84137 23.6879C8.57793 24.3454 8.67721 24.9854 9.05137 25.1298L10.2517 25.593C10.3362 25.6256 10.4542 25.5321 10.5151 25.384L11.3803 23.2824C11.65 22.6272 11.5792 21.9647 11.2096 21.8094Z" fill="#FF4757"/>
<path d="M25.4421 30.2063C25.8197 30.3649 26.3534 29.9462 26.6279 29.2796C27.0086 29.4265 27.5412 28.9993 27.8104 28.3277C28.0738 27.6703 27.9745 27.0302 27.6004 26.8858L26.4001 26.4226C26.3155 26.39 26.1976 26.4836 26.1366 26.6316L25.2714 28.7333C25.0017 29.3884 25.0726 30.0509 25.4421 30.2063Z" fill="#FF4757"/>
<path d="M25.034 3.71914C24.7098 3.52958 24.2671 3.59604 23.8094 3.95904L14.494 11.3486L15.7813 11.3599L16.4698 10.8137L25.7801 4.15686L25.034 3.71914Z" fill="url(#paint2_linear_440_11022)"/>
<path d="M15.7814 11.3599L13.3381 40.8963C13.243 42.0473 13.8322 42.6984 14.6542 42.3507L23.3652 38.6662L28.4963 34.5959C29.3131 33.9479 29.8681 32.6016 29.7359 31.5888L26.2701 5.05211C26.2354 4.78623 26.1558 4.57126 26.044 4.40833L22.8013 5.77998L15.7814 11.3599Z" fill="url(#paint3_linear_440_11022)"/>
<path d="M36.345 0.546797L35.607 0.117516L35.6063 0.119016C35.3821 -0.0241407 35.0951 -0.0444844 34.7707 0.0926718L18.2232 7.09195C17.4012 7.43967 16.6576 8.65458 16.5625 9.80555L14.0689 39.9627C14.0103 40.671 14.2116 41.1888 14.5662 41.4022L14.5655 41.4034L15.2993 41.8308L36.345 0.546797Z" fill="url(#paint4_linear_440_11022)"/>
<path d="M35.4808 0.462568L18.9189 7.46813C18.0961 7.81613 17.3519 9.03216 17.2567 10.1841L14.7611 40.3674C14.6658 41.5194 15.2556 42.1711 16.0783 41.8231L32.6403 34.8176C33.4631 34.4696 34.2073 33.2537 34.3025 32.1017L36.7981 1.91841C36.8933 0.766318 36.3036 0.114568 35.4808 0.462568Z" fill="url(#paint5_linear_440_11022)"/>
<path d="M31.6258 17.9641L26.9693 12.818C26.7195 12.5418 26.2613 12.7357 25.9459 13.2509L20.07 22.852C19.7548 23.3672 19.7017 24.0087 19.9515 24.2849L24.608 29.431C24.8579 29.7071 25.316 29.5133 25.6314 28.9982L31.5073 19.397C31.8225 18.8817 31.8756 18.2402 31.6258 17.9641Z" fill="#FF4757"/>
<path d="M20.908 14.3804L19.6537 12.9942C19.5864 12.9198 19.463 12.972 19.3781 13.1108L17.7953 15.6971C17.7103 15.8358 17.6961 16.0087 17.7634 16.0831L19.0178 17.4693C19.0851 17.5436 19.2085 17.4915 19.2934 17.3526L20.8762 14.7663C20.961 14.6276 20.9753 14.4548 20.908 14.3804Z" fill="#FF4757"/>
<path d="M30.6693 27.8686L31.9237 29.2548C31.991 29.3292 32.1144 29.277 32.1993 29.1381L33.7821 26.5518C33.867 26.4131 33.8813 26.2402 33.814 26.1659L32.5596 24.7797C32.4923 24.7054 32.3689 24.7576 32.284 24.8963L30.7012 27.4826C30.6164 27.6214 30.602 27.7941 30.6693 27.8686Z" fill="#FF4757"/>
<path d="M20.4283 11.5739L18.8587 12.2378L18.594 13.0256C18.5222 13.2394 18.3795 13.4194 18.2327 13.4814C17.9699 13.5926 17.8257 13.288 17.9604 12.9068L19.3736 8.90813C19.4941 8.56688 19.7233 8.2831 19.9585 8.18363C20.1933 8.08426 20.3903 8.18748 20.4613 8.44716L21.2954 11.4955C21.3749 11.7863 21.1679 12.2399 20.9051 12.3511L20.8865 12.359C20.7397 12.4211 20.6175 12.3532 20.5771 12.1869L20.4283 11.5739ZM20.2507 10.8464L19.8644 9.26091L19.1786 11.2999L20.2507 10.8464Z" fill="#FF4757"/>
<path d="M33.3447 28.7674C33.1977 28.8296 33.0551 29.0095 32.9833 29.2233L32.7187 30.011L31.1491 30.675L31.0003 30.0621C30.9599 29.8958 30.8378 29.8279 30.691 29.89L30.6724 29.8979C30.4094 30.0091 30.2024 30.4627 30.282 30.7534L31.1161 33.8018C31.1872 34.0615 31.3841 34.1647 31.619 34.0654C31.8541 33.9659 32.0832 33.682 32.2039 33.3409L33.6171 29.3422C33.7517 28.9609 33.6074 28.6563 33.3447 28.7674ZM31.7128 32.988L31.3266 31.4025L32.3987 30.949L31.7128 32.988Z" fill="#FF4757"/>
<path d="M32.7281 22.4231C31.85 22.9301 31.0096 23.6296 30.2341 24.468L26.9178 27.8245C24.0594 30.5591 21.9409 35.2084 21.8024 39.4018L32.6402 34.8175C33.463 34.4695 34.2072 33.2535 34.3024 32.1015L35.1714 21.5918C34.4101 21.6568 33.587 21.9271 32.7281 22.4231Z" fill="url(#paint6_linear_440_11022)"/>
<path d="M30.818 23.7336L30.8178 23.7337C29.5952 24.8921 28.5092 26.409 27.6542 28.0966L27.6541 28.0973L25.9011 33.3483L25.8986 33.3539C25.7445 34.2591 25.6681 35.1615 25.6813 36.0386C25.6938 36.8744 25.7873 37.6359 25.9504 38.3171L30.873 43.213L39.8844 23.4482L37.2077 21.9562C37.1993 21.9514 37.1909 21.9467 37.1824 21.942L37.1687 21.9343L37.1686 21.9346C36.3745 21.5006 35.4351 21.3823 34.4082 21.6207L30.818 23.7336Z" fill="url(#paint7_linear_440_11022)"/>
<path d="M25.9504 38.317C26.3457 39.968 27.1526 41.144 28.2285 41.7385L28.2284 41.7387L30.8729 43.2128L28.6115 39.8003L25.9504 38.317Z" fill="url(#paint8_linear_440_11022)"/>
<path d="M33.6656 43.5436L37.2554 41.4311C38.4782 40.2725 39.5643 38.7554 40.4195 37.0675L42.1737 31.8173C42.3285 30.9099 42.4053 30.0054 42.3921 29.1262C42.3795 28.2906 42.2863 27.529 42.1233 26.8479L40.2841 23.7131C39.4044 23.0456 38.2999 22.8191 37.0695 23.1047L33.4796 25.2174C32.2568 26.3759 31.1706 27.893 30.3154 29.581L28.5613 34.8312C28.4064 35.7386 28.3296 36.6431 28.3428 37.5224C28.3554 38.3579 28.4487 39.1196 28.6116 39.8007L30.8713 43.2106C31.6725 43.66 32.6239 43.7854 33.6656 43.5436Z" fill="url(#paint9_linear_440_11022)"/>
<path d="M35.4716 40.2373C38.3102 38.5409 40.5647 34.0705 40.5072 30.2525C40.4496 26.4344 38.1018 24.7145 35.2632 26.4109C32.4245 28.1073 30.17 32.5777 30.2276 36.3957C30.2851 40.2139 32.6329 41.9338 35.4716 40.2373ZM31.0073 35.9298C30.9585 32.691 32.871 28.8988 35.2789 27.4597C37.6869 26.0207 39.6785 27.4797 39.7274 30.7185C39.7762 33.9574 37.8637 37.7495 35.4557 39.1885C33.0478 40.6276 31.0561 39.1687 31.0073 35.9298Z" fill="url(#paint10_linear_440_11022)"/>
<path d="M40.279 30.1254C40.3366 33.9435 38.0821 38.4138 35.2434 40.1102C34.0106 40.847 32.8707 40.9386 31.9704 40.4946C32.9022 41.077 34.1321 41.0379 35.4715 40.2375C38.3101 38.541 40.5646 34.0707 40.5071 30.2526C40.4746 28.0927 39.7087 26.6051 38.5361 26.0267C39.5791 26.6785 40.2486 28.1089 40.279 30.1254Z" fill="url(#paint11_linear_440_11022)"/>
<path d="M35.0509 27.3325C32.6429 28.7716 30.7304 32.5638 30.7792 35.8026C30.807 37.6457 31.4645 38.9112 32.4693 39.3955C31.5942 38.8378 31.033 37.6294 31.0074 35.9298C30.9586 32.691 32.8711 28.8988 35.279 27.4598C36.3168 26.8396 37.2766 26.7589 38.0375 27.1255C37.245 26.6204 36.1953 26.6487 35.0509 27.3325Z" fill="url(#paint12_linear_440_11022)"/>
<path d="M34.7499 26.9509L34.7885 27.4074C34.5088 27.6085 34.231 27.8439 33.963 28.1069L33.86 27.7049C34.149 27.4213 34.4483 27.1676 34.7499 26.9509ZM35.6575 26.4114C35.96 26.269 36.2614 26.1656 36.5534 26.104L36.4626 26.6211C36.1918 26.6783 35.9122 26.7742 35.6316 26.9063L35.6575 26.4114ZM33.0186 28.6503L33.1826 28.9837C32.9339 29.3013 32.6955 29.6457 32.4742 30.0074L32.2552 29.7535C32.4937 29.3638 32.7506 28.9927 33.0186 28.6503ZM37.4062 26.0424C37.6791 26.0632 37.9416 26.1255 38.1866 26.2278L37.9777 26.7361C37.7504 26.6412 37.5068 26.5833 37.2536 26.564L37.4062 26.0424ZM31.595 30.976L31.8614 31.1424C31.6756 31.5345 31.5085 31.9407 31.3648 32.3496L31.06 32.2767C31.2149 31.8362 31.395 31.3986 31.595 30.976ZM38.8686 26.6524C39.0769 26.8322 39.2656 27.0505 39.4297 27.3014L39.1317 27.7327C38.9794 27.4998 38.8042 27.2971 38.6109 27.1301L38.8686 26.6524ZM30.6687 33.6117L31.0018 33.5881C30.9049 34.0007 30.8321 34.4139 30.7856 34.816L30.4356 34.9358C30.4858 34.5021 30.5643 34.0566 30.6687 33.6117ZM39.8502 28.1545C39.9648 28.4691 40.0537 28.8151 40.1145 29.1829L39.7669 29.4777C39.7104 29.1367 39.628 28.8158 39.5217 28.524L39.8502 28.1545ZM30.3682 36.2034L30.7231 35.9913L30.7234 36.0115C30.7291 36.391 30.7607 36.7554 30.8173 37.0944L30.4698 37.39C30.4088 37.0246 30.3747 36.6322 30.3686 36.2236L30.3682 36.2034ZM39.8594 30.5616L40.2142 30.3502C40.2199 30.7589 40.1977 31.1849 40.1482 31.6164L39.7982 31.7369C39.8441 31.3366 39.8647 30.9412 39.8594 30.5616ZM31.0637 38.047C31.1703 38.3381 31.3019 38.6038 31.4549 38.8366L31.1571 39.2683C30.9922 39.0174 30.8504 38.731 30.7354 38.4171L31.0637 38.047ZM39.5834 32.9647L39.9166 32.9402C39.8126 33.3846 39.6814 33.8338 39.5267 34.2753L39.2216 34.2032C39.3652 33.7936 39.4869 33.3769 39.5834 32.9647ZM31.9767 39.4374C32.1701 39.6035 32.3835 39.7355 32.6108 39.8297L32.4023 40.3382C32.1575 40.2368 31.9277 40.0945 31.7194 39.9156L31.9767 39.4374ZM38.726 35.4109L38.9928 35.5764C38.7932 35.9988 38.5714 36.4105 38.3336 36.7998L38.1142 36.5466C38.3348 36.1851 38.5407 35.803 38.726 35.4109ZM33.3357 39.9999C33.5895 40.0185 33.8558 39.9986 34.1271 39.9407L34.0369 40.4577C33.7444 40.5202 33.4573 40.5416 33.1836 40.5216L33.3357 39.9999ZM37.4064 37.5714L37.5709 37.9041C37.3025 38.2477 37.0196 38.5662 36.7302 38.851L36.6266 38.4495C36.8951 38.1855 37.1574 37.89 37.4064 37.5714ZM34.9584 39.6535C35.2371 39.5218 35.5237 39.3508 35.8013 39.1507L35.8405 39.6068C35.5415 39.8223 35.2331 40.0063 34.9329 40.1482L34.9584 39.6535Z" fill="url(#paint13_linear_440_11022)"/>
<path d="M31.5188 35.6241C31.5619 38.483 33.3199 39.7709 35.4454 38.5007C37.5709 37.2303 39.2591 33.883 39.2161 31.0241C39.1729 28.1652 37.4149 26.8773 35.2894 28.1476C33.1638 29.4179 31.4757 32.7652 31.5188 35.6241Z" fill="url(#paint14_linear_440_11022)"/>
<path d="M35.5098 42.7724C36.114 42.4113 36.6988 41.9582 37.2553 41.4309L37.2472 40.8952C37.2393 40.3695 36.916 40.1327 36.5251 40.3662L34.3508 41.6656C33.96 41.8992 33.6495 42.5148 33.6574 43.0405L33.665 43.5438C34.2547 43.4068 34.8731 43.1529 35.5098 42.7724Z" fill="url(#paint15_linear_440_11022)"/>
<path d="M42.1736 31.8172L41.8248 31.7555C41.4824 31.6949 41.0519 32.1096 40.8632 32.6818L39.8143 35.8641C39.6256 36.4363 39.7504 36.9492 40.093 37.0097L40.4195 37.0675C41.2531 35.4217 41.8669 33.6138 42.1736 31.8172Z" fill="url(#paint16_linear_440_11022)"/>
<path d="M40.8307 27.5225C41.033 27.8611 41.4682 27.7584 41.8028 27.2932L42.1232 26.8478C41.7838 25.4299 41.1404 24.3628 40.284 23.713L39.945 24.1844C39.6104 24.6496 39.5032 25.3011 39.7055 25.6397L40.8307 27.5225Z" fill="url(#paint17_linear_440_11022)"/>
<path d="M34.4081 21.6207C33.8185 21.7576 33.2001 22.0118 32.5634 22.3922C31.9592 22.7532 31.3745 23.2064 30.818 23.7338L33.4794 25.2173L37.0696 23.1044L34.4081 21.6207Z" fill="url(#paint18_linear_440_11022)"/>
<path d="M34.2096 26.2821L36.3839 24.9827C36.7747 24.7491 37.0852 24.1335 37.0773 23.6077L37.0697 23.1045C36.4801 23.2415 35.8617 23.4954 35.225 23.8759C34.6208 24.2369 34.036 24.6901 33.4795 25.2173L33.4876 25.753C33.4954 26.2788 33.8187 26.5157 34.2096 26.2821Z" fill="url(#paint19_linear_440_11022)"/>
<path d="M27.6541 28.0975C26.8202 29.7434 26.2077 31.5515 25.9011 33.3485L28.5612 34.8312L30.3153 29.581L27.6541 28.0975Z" fill="url(#paint20_linear_440_11022)"/>
<path d="M28.91 34.8928C29.2524 34.9533 29.6829 34.5387 29.8716 33.9665L30.9205 30.7842C31.1092 30.212 30.9844 29.6991 30.6419 29.6386L30.3154 29.5808C29.4817 31.2264 28.8679 33.0344 28.5612 34.831L28.91 34.8928Z" fill="url(#paint21_linear_440_11022)"/>
<path d="M30.8729 43.2131L31.139 42.7983C31.4736 42.3331 31.5808 41.6815 31.3784 41.343L29.9039 39.1259C29.7016 38.7874 29.2664 38.89 28.9319 39.3552L28.6115 39.8006C28.9509 41.2186 29.8705 42.5903 30.8729 43.2131Z" fill="url(#paint22_linear_440_11022)"/>
<defs>
<linearGradient id="paint0_linear_440_11022" x1="14.1329" y1="23.505" x2="15.5488" y2="21.0528" gradientUnits="userSpaceOnUse">
<stop stop-color="#43386B"/>
<stop offset="1" stop-color="#7662BD"/>
</linearGradient>
<linearGradient id="paint1_linear_440_11022" x1="21.1001" y1="47.8631" x2="2.70684" y2="24.6681" gradientUnits="userSpaceOnUse">
<stop stop-color="#D7D1EB"/>
<stop offset="1" stop-color="#F2EDFF"/>
</linearGradient>
<linearGradient id="paint2_linear_440_11022" x1="23.3092" y1="5.14123" x2="7.49168" y2="16.6868" gradientUnits="userSpaceOnUse">
<stop stop-color="#43386B"/>
<stop offset="1" stop-color="#43386B" stop-opacity="0"/>
</linearGradient>
<linearGradient id="paint3_linear_440_11022" x1="29.5649" y1="19.0418" x2="-8.39235" y2="37.6719" gradientUnits="userSpaceOnUse">
<stop stop-color="#43386B"/>
<stop offset="1" stop-color="#43386B" stop-opacity="0"/>
</linearGradient>
<linearGradient id="paint4_linear_440_11022" x1="22.846" y1="13.4938" x2="24.3119" y2="10.9546" gradientUnits="userSpaceOnUse">
<stop stop-color="#43386B"/>
<stop offset="1" stop-color="#7662BD"/>
</linearGradient>
<linearGradient id="paint5_linear_440_11022" x1="23.6652" y1="45.9582" x2="10.1819" y2="14.1021" gradientUnits="userSpaceOnUse">
<stop stop-color="#D7D1EB"/>
<stop offset="1" stop-color="#F2EDFF"/>
</linearGradient>
<linearGradient id="paint6_linear_440_11022" x1="39.2724" y1="30.9117" x2="20.1141" y2="30.1748" gradientUnits="userSpaceOnUse">
<stop stop-color="#7662BD"/>
<stop offset="1" stop-color="#7662BD" stop-opacity="0"/>
</linearGradient>
<linearGradient id="paint7_linear_440_11022" x1="27.9656" y1="37.8749" x2="36.0738" y2="23.8311" gradientUnits="userSpaceOnUse">
<stop stop-color="#00395E"/>
<stop offset="1" stop-color="#0072BC"/>
</linearGradient>
<linearGradient id="paint8_linear_440_11022" x1="30.6037" y1="36.9682" x2="37.1298" y2="25.6646" gradientUnits="userSpaceOnUse">
<stop stop-color="#C5BAEB"/>
<stop offset="1" stop-color="#D7D1EB"/>
</linearGradient>
<linearGradient id="paint9_linear_440_11022" x1="35.3673" y1="44.0524" x2="35.3673" y2="22.1414" gradientUnits="userSpaceOnUse">
<stop stop-color="#0072BC"/>
<stop offset="1" stop-color="#2F97F7"/>
</linearGradient>
<linearGradient id="paint10_linear_440_11022" x1="30.1206" y1="36.429" x2="46.905" y2="26.5897" gradientUnits="userSpaceOnUse">
<stop stop-color="#00395E"/>
<stop offset="1" stop-color="#0072BC"/>
</linearGradient>
<linearGradient id="paint11_linear_440_11022" x1="35.4339" y1="37.0283" x2="38.5777" y2="31.3864" gradientUnits="userSpaceOnUse">
<stop stop-color="#00395E"/>
<stop offset="1" stop-color="#0072BC"/>
</linearGradient>
<linearGradient id="paint12_linear_440_11022" x1="36.1744" y1="27.9873" x2="33.2327" y2="33.2666" gradientUnits="userSpaceOnUse">
<stop stop-color="#00395E"/>
<stop offset="1" stop-color="#0072BC"/>
</linearGradient>
<linearGradient id="paint13_linear_440_11022" x1="35.2717" y1="26.713" x2="41.146" y2="36.5378" gradientUnits="userSpaceOnUse">
<stop stop-color="#F2EFFA"/>
<stop offset="1" stop-color="white"/>
</linearGradient>
<linearGradient id="paint14_linear_440_11022" x1="35.3673" y1="38.1128" x2="35.3673" y2="26.7654" gradientUnits="userSpaceOnUse">
<stop stop-color="#F2EFFA"/>
<stop offset="1" stop-color="white"/>
</linearGradient>
<linearGradient id="paint15_linear_440_11022" x1="35.4563" y1="42.6679" x2="35.4563" y2="21.9944" gradientUnits="userSpaceOnUse">
<stop stop-color="#F2EFFA"/>
<stop offset="1" stop-color="white"/>
</linearGradient>
<linearGradient id="paint16_linear_440_11022" x1="40.95" y1="42.668" x2="40.95" y2="21.9944" gradientUnits="userSpaceOnUse">
<stop stop-color="#F2EFFA"/>
<stop offset="1" stop-color="white"/>
</linearGradient>
<linearGradient id="paint17_linear_440_11022" x1="40.8633" y1="42.668" x2="40.8633" y2="21.9944" gradientUnits="userSpaceOnUse">
<stop stop-color="#F2EFFA"/>
<stop offset="1" stop-color="white"/>
</linearGradient>
<linearGradient id="paint18_linear_440_11022" x1="28.3476" y1="33.112" x2="33.8156" y2="23.6411" gradientUnits="userSpaceOnUse">
<stop stop-color="#C5BAEB"/>
<stop offset="1" stop-color="#D7D1EB"/>
</linearGradient>
<linearGradient id="paint19_linear_440_11022" x1="35.2785" y1="42.6681" x2="35.2785" y2="21.9945" gradientUnits="userSpaceOnUse">
<stop stop-color="#F2EFFA"/>
<stop offset="1" stop-color="white"/>
</linearGradient>
<linearGradient id="paint20_linear_440_11022" x1="26.6468" y1="33.9945" x2="32.7648" y2="23.3978" gradientUnits="userSpaceOnUse">
<stop stop-color="#C5BAEB"/>
<stop offset="1" stop-color="#D7D1EB"/>
</linearGradient>
<linearGradient id="paint21_linear_440_11022" x1="29.7848" y1="42.6679" x2="29.7848" y2="21.9945" gradientUnits="userSpaceOnUse">
<stop stop-color="#F2EFFA"/>
<stop offset="1" stop-color="white"/>
</linearGradient>
<linearGradient id="paint22_linear_440_11022" x1="30.0462" y1="42.6681" x2="30.0462" y2="21.9946" gradientUnits="userSpaceOnUse">
<stop stop-color="#F2EFFA"/>
<stop offset="1" stop-color="white"/>
</linearGradient>
</defs>
</svg>
