<svg width="32" height="33" viewBox="0 0 32 33" fill="none" xmlns="http://www.w3.org/2000/svg">
<g clip-path="url(#clip0_440_10963)">
<path d="M27.4794 15.4235C27.9518 14.9631 28.1186 14.2874 27.9148 13.6593C27.7106 13.0312 27.1786 12.5828 26.525 12.4877L20.7139 11.6433C20.4664 11.6073 20.2525 11.452 20.142 11.2276L17.544 5.9624C17.2523 5.37081 16.6602 5.00317 16.0004 5.00317C15.341 5.00317 14.749 5.37081 14.4572 5.9624L11.8588 11.2281C11.7482 11.4525 11.5339 11.6077 11.2864 11.6438L5.47527 12.4882C4.82217 12.5828 4.28969 13.0317 4.08544 13.6598C3.88168 14.2879 4.04844 14.9636 4.52085 15.424L8.72541 19.5224C8.90467 19.6973 8.98684 19.9491 8.94455 20.1952L7.95264 25.9823C7.8647 26.4917 7.9983 26.9872 8.32797 27.3779C8.84027 27.9868 9.73462 28.1723 10.4497 27.7964L15.6467 25.0639C15.8639 24.95 16.1373 24.951 16.3541 25.0639L21.5515 27.7964C21.8043 27.9296 22.0739 27.9968 22.3522 27.9968C22.8601 27.9968 23.3417 27.771 23.6728 27.3779C24.0029 26.9872 24.1361 26.4907 24.0481 25.9823L23.0557 20.1952C23.0134 19.9486 23.0956 19.6973 23.2749 19.5224L27.4794 15.4235Z" fill="#EB5328" fill-opacity="0.2"/>
</g>
<defs>
<clipPath id="clip0_440_10963">
<rect width="24" height="24" fill="white" transform="translate(4 4.5)"/>
</clipPath>
</defs>
</svg>
