<svg width="33" height="33" viewBox="0 0 33 33" fill="none" xmlns="http://www.w3.org/2000/svg">
<g clip-path="url(#clip0_440_10943)">
<path d="M27.9794 15.4235C28.4518 14.9631 28.6186 14.2874 28.4148 13.6593C28.2106 13.0312 27.6786 12.5828 27.025 12.4877L21.2139 11.6433C20.9664 11.6073 20.7525 11.452 20.642 11.2276L18.044 5.9624C17.7523 5.37081 17.1602 5.00317 16.5004 5.00317C15.841 5.00317 15.249 5.37081 14.9572 5.9624L12.3588 11.2281C12.2482 11.4525 12.0339 11.6077 11.7864 11.6438L5.97527 12.4882C5.32217 12.5828 4.78969 13.0317 4.58544 13.6598C4.38168 14.2879 4.54844 14.9636 5.02085 15.424L9.22541 19.5224C9.40467 19.6973 9.48684 19.9491 9.44455 20.1952L8.45264 25.9823C8.3647 26.4917 8.4983 26.9872 8.82797 27.3779C9.34027 27.9868 10.2346 28.1723 10.9497 27.7964L16.1467 25.0639C16.3639 24.95 16.6373 24.951 16.8541 25.0639L22.0515 27.7964C22.3043 27.9296 22.5739 27.9968 22.8522 27.9968C23.3601 27.9968 23.8417 27.771 24.1728 27.3779C24.5029 26.9872 24.6361 26.4907 24.5481 25.9823L23.5557 20.1952C23.5134 19.9486 23.5956 19.6973 23.7749 19.5224L27.9794 15.4235Z" fill="#EB5328"/>
</g>
<defs>
<clipPath id="clip0_440_10943">
<rect width="24" height="24" fill="white" transform="translate(4.5 4.5)"/>
</clipPath>
</defs>
</svg>
