<svg width="24" height="24" viewBox="0 0 24 24" fill="none" xmlns="http://www.w3.org/2000/svg">
<g clip-path="url(#clip0_3218_12171)">
<path d="M12 13.2188C10.1907 13.2188 8.71875 14.6907 8.71875 16.5C8.71875 18.3093 10.1907 19.7812 12 19.7812C13.8093 19.7812 15.2812 18.3093 15.2812 16.5C15.2812 14.6907 13.8093 13.2188 12 13.2188ZM12 18.8438C10.7077 18.8438 9.65625 17.7923 9.65625 16.5C9.65625 15.2077 10.7077 14.1562 12 14.1562C13.2923 14.1562 14.3438 15.2077 14.3438 16.5C14.3438 17.7923 13.2923 18.8438 12 18.8438Z" fill="#647385"/>
<path d="M12 16.9688C12.2589 16.9688 12.4688 16.7589 12.4688 16.5C12.4688 16.2411 12.2589 16.0312 12 16.0312C11.7411 16.0312 11.5312 16.2411 11.5312 16.5C11.5312 16.7589 11.7411 16.9688 12 16.9688Z" fill="#647385"/>
<path d="M23.8627 0.137344C23.7755 0.0501094 23.655 0 23.5312 0H14.1094C13.8511 0 13.6406 0.210469 13.6406 0.46875C13.6406 0.727031 13.8511 0.9375 14.1094 0.9375H14.1098H23.0625V2.85938H0.9375V0.9375H9.89062C10.1489 0.9375 10.3594 0.727031 10.3594 0.46875C10.3594 0.210469 10.1489 0 9.89062 0H0.46875C0.345469 0 0.224531 0.0501094 0.137344 0.137344C0.0501563 0.224531 0 0.345469 0 0.46875V3.32812C0 3.45141 0.0501563 3.57234 0.137344 3.65948C0.224531 3.74672 0.345469 3.79688 0.46875 3.79688H1.17188V13.1719C1.17188 16.0642 2.29819 18.7833 4.34334 20.8285C6.38855 22.8737 9.10767 24 12 24C14.8923 24 17.6115 22.8737 19.6567 20.8285C21.7018 18.7833 22.8281 16.0642 22.8281 13.1719V3.79688H23.5312C23.6545 3.79688 23.7755 3.74672 23.8627 3.65948C23.9498 3.57234 24 3.45141 24 3.32812V0.46875C24 0.345469 23.9498 0.224531 23.8627 0.137344ZM12 23.0625C8.39437 23.0625 5.23369 21.1228 3.50531 18.2324C5.90995 17.7787 7.70302 15.7776 7.70302 13.4077C7.70302 11.2107 9.63066 9.42328 12 9.42328C14.3694 9.42328 16.2971 11.2107 16.2971 13.4077C16.2971 15.7776 18.0901 17.7787 20.4948 18.2324C18.7663 21.1228 15.6056 23.0625 12 23.0625ZM21.8906 13.1719C21.8906 14.6664 21.5568 16.0843 20.9608 17.3557C18.8479 17.0963 17.2345 15.4154 17.2345 13.4077C17.2345 10.6937 14.8863 8.48578 12 8.48578C9.11367 8.48578 6.76547 10.6937 6.76547 13.4077C6.76547 15.4154 5.15208 17.0963 3.03923 17.3557C2.44322 16.0843 2.10938 14.6664 2.10938 13.1719V7.54819H21.8906V13.1719ZM21.8906 6.61069H2.10938V3.79688H21.8906V6.61069Z" fill="#647385"/>
<path d="M12 0.9375C12.2589 0.9375 12.4688 0.727633 12.4688 0.46875C12.4688 0.209867 12.2589 0 12 0C11.7411 0 11.5312 0.209867 11.5312 0.46875C11.5312 0.727633 11.7411 0.9375 12 0.9375Z" fill="#647385"/>
<path d="M9.65625 5.67188H14.3438C14.6026 5.67188 14.8125 5.46197 14.8125 5.20312C14.8125 4.94428 14.6026 4.73438 14.3438 4.73438H9.65625C9.39736 4.73438 9.1875 4.94428 9.1875 5.20312C9.1875 5.46197 9.39736 5.67188 9.65625 5.67188Z" fill="#647385"/>
<path d="M17.668 19.3086C17.9269 19.3086 18.1367 19.0987 18.1367 18.8398C18.1367 18.5809 17.9269 18.3711 17.668 18.3711C17.4091 18.3711 17.1992 18.5809 17.1992 18.8398C17.1992 19.0987 17.4091 19.3086 17.668 19.3086Z" fill="#647385"/>
<path d="M15.9994 20.5884C16.2583 20.5884 16.4681 20.3786 16.4681 20.1197C16.4681 19.8608 16.2583 19.6509 15.9994 19.6509C15.7405 19.6509 15.5306 19.8608 15.5306 20.1197C15.5306 20.3786 15.7405 20.5884 15.9994 20.5884Z" fill="#647385"/>
<path d="M14.0553 21.3901C14.3142 21.3901 14.524 21.1803 14.524 20.9214C14.524 20.6625 14.3142 20.4526 14.0553 20.4526C13.7964 20.4526 13.5865 20.6625 13.5865 20.9214C13.5865 21.1803 13.7964 21.3901 14.0553 21.3901Z" fill="#647385"/>
<path d="M11.9691 21.6562C12.2279 21.6562 12.4378 21.4464 12.4378 21.1875C12.4378 20.9286 12.2279 20.7188 11.9691 20.7188C11.7102 20.7188 11.5003 20.9286 11.5003 21.1875C11.5003 21.4464 11.7102 21.6562 11.9691 21.6562Z" fill="#647385"/>
<path d="M9.88464 21.3739C10.1435 21.3739 10.3534 21.164 10.3534 20.9051C10.3534 20.6462 10.1435 20.4364 9.88464 20.4364C9.62576 20.4364 9.41589 20.6462 9.41589 20.9051C9.41589 21.164 9.62576 21.3739 9.88464 21.3739Z" fill="#647385"/>
<path d="M7.94666 20.5573C8.20554 20.5573 8.41541 20.3474 8.41541 20.0885C8.41541 19.8296 8.20554 19.6198 7.94666 19.6198C7.68777 19.6198 7.47791 19.8296 7.47791 20.0885C7.47791 20.3474 7.68777 20.5573 7.94666 20.5573Z" fill="#647385"/>
<path d="M6.2879 19.2642C6.54679 19.2642 6.75665 19.0543 6.75665 18.7954C6.75665 18.5365 6.54679 18.3267 6.2879 18.3267C6.02902 18.3267 5.81915 18.5365 5.81915 18.7954C5.81915 19.0543 6.02902 19.2642 6.2879 19.2642Z" fill="#647385"/>
</g>
<defs>
<clipPath id="clip0_3218_12171">
<rect width="24" height="24" fill="white"/>
</clipPath>
</defs>
</svg>
