<svg width="24" height="24" viewBox="0 0 24 24" fill="none" xmlns="http://www.w3.org/2000/svg">
<g clip-path="url(#clip0_3218_12159)">
<path d="M14.061 21.661C14.3199 21.661 14.5297 21.4511 14.5297 21.1922C14.5297 20.9333 14.3199 20.7235 14.061 20.7235C13.8021 20.7235 13.5922 20.9333 13.5922 21.1922C13.5922 21.4511 13.8021 21.661 14.061 21.661Z" fill="#647385"/>
<path d="M18.7935 9.02363C19.1985 8.87363 19.6604 8.63082 20.0378 8.25347C21.2569 7.03425 21.3591 5.15368 20.2662 4.06102C19.7288 3.52336 18.9899 3.25571 18.1872 3.30774C17.9987 3.31993 17.8117 3.34946 17.6288 3.39586C17.867 2.44571 17.6527 1.4468 16.9653 0.75966C16.428 0.222003 15.6895 -0.0451841 14.8864 0.00637836C14.1057 0.0570034 13.3551 0.405753 12.7727 0.98841C12.3803 1.38075 12.1425 1.84341 12 2.23196C11.8575 1.84336 11.6198 1.38071 11.2273 0.98841C10.645 0.405753 9.89433 0.0570034 9.11363 0.00637836C8.31094 -0.0456529 7.572 0.222003 7.03467 0.75966C6.3473 1.44685 6.13303 2.44575 6.37121 3.39586C6.18835 3.34946 6.00127 3.31993 5.81278 3.30774C5.00963 3.25571 4.27116 3.52336 3.73383 4.06102C2.64089 5.15368 2.74313 7.03425 3.96216 8.25347C4.3396 8.63082 4.80146 8.87363 5.20655 9.02363C4.80146 9.17363 4.3396 9.41644 3.96216 9.79379C2.74308 11.013 2.64089 12.8936 3.73383 13.9862C4.27116 14.5239 5.00963 14.7911 5.81278 14.7395C6.00127 14.7273 6.18835 14.6978 6.37121 14.6514C6.13303 15.6015 6.3473 16.6005 7.03467 17.2876C7.572 17.8253 8.31047 18.0929 9.11363 18.0409C9.89428 17.9903 10.6449 17.6415 11.2273 17.0588C11.6198 16.6665 11.8575 16.2038 12 15.8153C12.0891 16.0581 12.2152 16.33 12.3934 16.5953C12.4074 16.87 12.4149 17.133 12.4149 17.3814C12.4154 18.6194 12.2335 19.5751 11.8753 20.222C11.5386 20.8248 11.126 21.0807 10.7303 21.2678C10.4753 21.3863 10.2736 21.5326 10.1133 21.7154C9.91589 21.9385 9.79819 22.2207 9.78272 22.5104C9.78085 22.5385 9.77991 22.5671 9.77991 22.5948C9.77991 22.9534 9.91542 23.2951 10.1616 23.5567C10.4082 23.8192 10.7425 23.9757 11.103 23.9978C11.1307 23.9992 11.1593 24.0001 11.1874 24.0001H11.1884C11.3525 24.0001 11.5138 23.9715 11.668 23.9153C12.1824 23.7456 12.6475 23.5065 13.0503 23.2046C13.257 23.0499 13.2992 22.7556 13.1445 22.5484C13.055 22.4293 12.918 22.3609 12.7685 22.3609C12.6667 22.3609 12.5669 22.3896 12.4881 22.4542C11.9336 22.9084 11.3497 23.0335 11.3497 23.0335C11.2544 23.07 11.1682 23.0621 11.1588 23.0617C10.924 23.0483 10.7377 22.863 10.7191 22.6327C10.7181 22.6202 10.7181 22.5761 10.7185 22.5667C10.7256 22.4748 10.7528 22.4111 10.8198 22.3319C10.8864 22.2545 10.9975 22.1762 11.1246 22.1181C11.4397 21.9742 11.7233 21.7942 11.9677 21.5828C12.2603 21.3297 12.5055 21.0245 12.6963 20.6753C13.1225 19.9014 13.3373 18.8706 13.3518 17.5268C13.6228 17.7016 13.914 17.8347 14.2169 17.9228C14.208 18.3536 14.1817 18.7422 14.1367 19.1041C14.1217 19.2283 14.1555 19.3511 14.2323 19.4496C14.3097 19.5485 14.4203 19.6113 14.5446 19.6268C14.5638 19.6291 14.5835 19.63 14.6027 19.63C14.8386 19.63 15.0383 19.4533 15.0674 19.2189C15.1124 18.8547 15.1405 18.468 15.1518 18.0461C15.8513 18.0297 16.4881 17.7653 16.9654 17.2877C17.6528 16.6005 17.867 15.6016 17.6288 14.6515C17.8117 14.6979 17.9988 14.7274 18.1873 14.7396C18.99 14.7916 19.7289 14.524 20.2662 13.9863C21.3592 12.8937 21.2569 11.0131 20.0379 9.79388C19.6604 9.41644 19.1985 9.17363 18.7935 9.02363ZM19.6032 13.3234C19.2591 13.6675 18.7775 13.8381 18.2477 13.8039C17.6949 13.7683 17.1586 13.5166 16.7371 13.0951C16.5542 12.9119 16.2574 12.9119 16.074 13.0951C15.9826 13.1866 15.9367 13.3066 15.9367 13.4265C15.9367 13.5466 15.9826 13.6665 16.074 13.758C16.9269 14.6111 17.0296 15.8973 16.3024 16.6248C16.0032 16.9238 15.6005 17.0917 15.1523 17.1081C15.0848 17.1104 15.0163 17.1095 14.9469 17.1053C14.6951 17.0884 14.4461 17.0274 14.2103 16.9257C13.929 16.8043 13.665 16.6253 13.4357 16.396C13.3921 16.3524 13.3509 16.3065 13.3119 16.2596C12.8829 15.7421 12.7413 15.0648 12.7291 14.911C12.7282 14.8979 12.4732 13.3838 12.4685 12.4136C12.4671 12.1558 12.2575 11.9472 11.9996 11.9472C11.7413 11.9472 11.5316 12.1558 11.5307 12.4141C11.5269 13.3806 11.2719 14.8984 11.271 14.911C11.2578 15.0788 11.0904 15.8692 10.5644 16.396C10.1429 16.8174 9.606 17.0692 9.05321 17.1053C8.52338 17.1395 8.04183 16.9688 7.69772 16.6248C6.9705 15.8973 7.07321 14.6111 7.92605 13.758C8.0175 13.6665 8.06344 13.5466 8.06344 13.4265C8.06344 13.3066 8.0175 13.1866 7.92605 13.0951C7.74272 12.9119 7.44591 12.9119 7.26305 13.0951C6.84155 13.5166 6.30516 13.7683 5.75236 13.8039C5.22253 13.8381 4.74099 13.6675 4.39688 13.3234C3.66966 12.5959 3.77189 11.3102 4.62521 10.4566C5.1705 9.91144 6.00839 9.75488 6.15089 9.74644C6.16683 9.7455 7.72069 9.49472 8.71889 9.49238C8.97769 9.49191 9.18685 9.28191 9.18685 9.02363C9.18685 8.76535 8.97774 8.55535 8.71889 8.55488C7.72064 8.55254 6.16683 8.30175 6.15089 8.30082C6.00835 8.29238 5.1705 8.13582 4.62521 7.59066C3.77185 6.73707 3.66966 5.45133 4.39688 4.72383C4.74103 4.37977 5.22253 4.20914 5.75236 4.24336C6.30516 4.27899 6.84155 4.53071 7.26305 4.95211C7.44591 5.13539 7.74272 5.13539 7.92605 4.95211C8.0175 4.86071 8.06344 4.74071 8.06344 4.62071C8.06344 4.50071 8.0175 4.38071 7.92605 4.2893C7.07316 3.43617 6.9705 2.14993 7.69772 1.42247C8.04188 1.07841 8.52342 0.907785 9.05321 0.942003C9.606 0.978097 10.1429 1.22982 10.5644 1.65122C11.0904 2.1781 11.2578 2.96841 11.271 3.13622C11.2719 3.14935 11.5293 4.50732 11.5312 5.2395C11.5321 5.49778 11.7417 5.70685 12 5.70685C12.2584 5.70685 12.468 5.49778 12.4689 5.2395C12.4708 4.50732 12.7282 3.14888 12.7291 3.13622C12.7423 2.96841 12.9097 2.1781 13.4357 1.65122C13.8572 1.22982 14.3941 0.978097 14.9469 0.942003C15.4767 0.907785 15.9583 1.07841 16.3024 1.42247C17.0296 2.14997 16.9269 3.43622 16.074 4.2893C15.9826 4.38071 15.9367 4.50071 15.9367 4.62071C15.9367 4.74071 15.9826 4.86071 16.074 4.95211C16.2574 5.13539 16.5542 5.13539 16.7371 4.95211C17.1586 4.53071 17.6949 4.27899 18.2477 4.24336C18.7776 4.20914 19.2591 4.37977 19.6032 4.72383C20.3304 5.45133 20.2282 6.73707 19.3749 7.59066C18.8296 8.13582 17.9917 8.29238 17.8492 8.30082C17.8333 8.30175 16.3371 8.55113 15.3994 8.55488C15.141 8.55582 14.9324 8.76535 14.9324 9.02363C14.9324 9.28191 15.141 9.49144 15.3994 9.49238C16.3371 9.49613 17.8333 9.7455 17.8492 9.74644C17.9918 9.75488 18.8296 9.91144 19.3749 10.4566C20.2282 11.3101 20.3304 12.5959 19.6032 13.3234Z" fill="#647385"/>
<path d="M12 9.49237C12.259 9.49237 12.4689 9.2825 12.4689 9.02362C12.4689 8.76474 12.259 8.55487 12 8.55487C11.7411 8.55487 11.5311 8.76474 11.5311 9.02362C11.5311 9.2825 11.7411 9.49237 12 9.49237Z" fill="#647385"/>
</g>
<defs>
<clipPath id="clip0_3218_12159">
<rect width="24" height="24" fill="white"/>
</clipPath>
</defs>
</svg>
