<svg width="140" height="33" viewBox="0 0 140 33" fill="none" xmlns="http://www.w3.org/2000/svg">
<g clip-path="url(#clip0_440_9576)">
<path d="M131.726 9.96279C133.096 8.57148 133.726 6.73496 133.589 4.89844L135.261 6.59583L138.576 9.96279C140.466 11.8828 140.466 14.9993 138.576 16.9193L130.576 25.0445C128.685 26.9645 125.617 26.9645 123.726 25.0445C121.836 23.1245 121.836 20.008 123.726 18.088L131.726 9.96279Z" fill="#FF4200"/>
<path d="M130.576 1.83844C132.466 3.75844 132.466 6.87496 130.576 8.79496L127.151 12.2732L123.726 8.79496C121.836 6.87496 121.836 3.75844 123.726 1.83844C125.617 -0.0815625 128.685 -0.0815625 130.576 1.83844Z" fill="#8F00FF"/>
<path d="M18.0822 6.87053C13.6164 6.87053 10 10.5436 10 15.0792C10 19.6149 13.6438 23.2879 18.0822 23.2879C22.5205 23.2879 26.1644 19.6149 26.1644 15.0792C26.1644 10.5436 22.5479 6.87053 18.0822 6.87053ZM18.0822 20.0044C15.3973 20.0044 13.2329 17.8062 13.2329 15.0792C13.2329 12.3523 15.4247 10.154 18.0822 10.154C20.7397 10.154 22.9315 12.3523 22.9315 15.0792C22.9315 17.8062 20.7671 20.0044 18.0822 20.0044ZM75.2877 6.87053C73.4795 6.87053 71.7808 7.4827 70.4384 8.51227V3.58705C70.4384 2.66879 69.726 1.94531 68.8219 1.94531H67.2055V23.2879H70.4384V21.6462C71.7808 22.6757 73.4795 23.2879 75.2877 23.2879C79.7534 23.2879 83.3699 19.6149 83.3699 15.0792C83.3699 10.5436 79.7534 6.87053 75.2877 6.87053ZM75.2877 20.0044C72.6027 20.0044 70.4384 17.8062 70.4384 15.0792C70.4384 12.3523 72.6027 10.154 75.2877 10.154C77.9726 10.154 80.137 12.3523 80.137 15.0792C80.137 17.8062 77.9726 20.0044 75.2877 20.0044ZM60.4384 6.87053H63.6712V22.314C63.6712 26.8218 60.1644 30.5784 55.726 30.6618C51.2055 30.7453 47.5069 27.0444 47.5069 22.4531H49.3151C50.0548 22.4531 50.6849 22.954 50.8767 23.6775C51.4247 25.8479 53.3973 27.434 55.726 27.3784C58.3562 27.2949 60.4384 25.041 60.4384 22.3418V19.9766C59.0685 21.0062 57.3699 21.6184 55.5343 21.6184C51.0685 21.5905 47.5069 17.8062 47.5069 13.2705V6.87053H49.1233C50.0274 6.87053 50.7397 7.59401 50.7397 8.51227V13.3262C50.7397 15.9975 52.7945 18.2792 55.4521 18.3627C58.1918 18.4462 60.4384 16.1923 60.4384 13.4375V6.87053ZM44.6027 15.0792V23.2879H42.9863C42.0822 23.2879 41.3699 22.5644 41.3699 21.6462V15.0792C41.3699 12.3523 39.2055 10.154 36.5206 10.154C33.8356 10.154 31.6712 12.3523 31.6712 15.0792V23.2879H28.4384V6.87053H31.6712V8.51227C33.0137 7.4827 34.7123 6.87053 36.5206 6.87053C40.9863 6.87053 44.6027 10.5436 44.6027 15.0792ZM8.08219 20.0044V23.2879C3.61644 23.2879 0 19.6149 0 15.0792V3.58705H1.61644C2.52055 3.58705 3.23288 4.31053 3.23288 5.22879V6.87053H8.08219V10.154H3.23288V15.0792C3.23288 17.7784 5.39726 20.0044 8.08219 20.0044ZM106.959 10.154V15.0792C106.959 17.8062 109.123 20.0044 111.808 20.0044V23.2879C107.342 23.2879 103.726 19.6149 103.726 15.0792V3.58705H105.342C106.247 3.58705 106.959 4.31053 106.959 5.22879V6.87053H111.808V10.154H106.959ZM101.233 16.2201C101.288 15.8584 101.315 15.4688 101.315 15.0792C101.315 10.4323 97.5343 6.70357 92.9315 6.87053C88.7397 7.03749 85.3425 10.4879 85.1781 14.7453C85.0137 19.4201 88.6849 23.2601 93.2603 23.2601C95.8904 23.2601 98.2192 21.9801 99.6712 20.0323L98.6849 19.4479C97.726 18.8914 96.5206 18.8636 95.5343 19.3923C94.7397 19.8375 93.8082 20.0601 92.8219 19.9488C90.7397 19.754 89.0137 18.2236 88.5206 16.1923H101.233V16.2201ZM93.726 10.1818C95.5891 10.3766 97.1781 11.6844 97.7808 13.4375H88.6575C89.3699 11.3784 91.3973 9.9314 93.726 10.1818Z" fill="white"/>
</g>
<defs>
<clipPath id="clip0_440_9576">
<rect width="140" height="32" fill="white" transform="translate(0 0.5)"/>
</clipPath>
</defs>
</svg>
