<svg width="24" height="24" viewBox="0 0 24 24" fill="none" xmlns="http://www.w3.org/2000/svg">
<g clip-path="url(#clip0_3218_12186)">
<path d="M7.28448 15.7486C7.54337 15.7486 7.75323 15.5387 7.75323 15.2798C7.75323 15.021 7.54337 14.8111 7.28448 14.8111C7.0256 14.8111 6.81573 15.021 6.81573 15.2798C6.81573 15.5387 7.0256 15.7486 7.28448 15.7486Z" fill="#647385"/>
<path d="M21.2859 1.42406C21.1687 1.14703 21.0009 0.898125 20.7877 0.684797C20.5739 0.471047 20.325 0.303234 20.0484 0.186516C19.7616 0.0651094 19.4569 0.00375 19.1428 0.00375H18.5588C18.1903 0.00375 17.8195 0.10125 17.4853 0.286359C17.4825 0.288234 17.4797 0.289641 17.4769 0.291516C17.3006 0.389953 17.1347 0.512766 16.9842 0.655781C16.9368 0.700266 16.874 0.726094 16.8122 0.726094H16.8112C16.785 0.726094 16.7592 0.721828 16.7334 0.713391C15.2728 0.24 13.7208 0 12.1214 0C10.0631 0 8.34937 0.392812 7.27406 0.721828C7.24828 0.729797 7.22297 0.733547 7.19677 0.733547H7.19578C7.13016 0.733547 7.06406 0.705891 7.01484 0.658125C6.79505 0.442969 6.53437 0.277031 6.23953 0.164953C5.95922 0.0576094 5.66016 0.00375 5.35125 0.00375H4.85719C4.54312 0.00375 4.23844 0.0651563 3.95198 0.186516C3.67495 0.303234 3.42605 0.471047 3.21234 0.684797C2.99902 0.898125 2.8312 1.14698 2.71402 1.42406C2.59266 1.71047 2.53125 2.01516 2.53125 2.32917V5.73933C2.53125 6.05339 2.59266 6.35808 2.71402 6.64453C2.8312 6.92156 2.99902 7.17 3.21234 7.38375C3.42609 7.59755 3.67495 7.76484 3.95198 7.88203C4.23839 8.00348 4.54308 8.06484 4.85719 8.06484H5.04937C5.48395 8.06484 5.90906 7.94156 6.27891 7.70813C6.64219 7.47937 6.93839 7.15411 7.13573 6.76688C7.44094 6.17109 8.05828 5.78016 8.74683 5.74598C8.84995 5.74083 8.95214 5.73802 9.05058 5.73802C10.0635 5.7427 10.6035 5.99583 11.2289 6.28927C11.2289 6.28927 11.3957 6.36877 11.4677 6.40242C12.0427 6.67125 12.7599 6.95813 13.8121 6.95813C14.0057 6.95864 14.2092 6.95067 14.4187 6.93375C12.5953 8.22516 10.0054 10.3622 8.00756 13.2164C7.93584 13.319 7.90819 13.4437 7.93022 13.567C7.95225 13.6902 8.02069 13.7976 8.12334 13.8693C8.20256 13.9246 8.29537 13.9537 8.39147 13.9537C8.5448 13.9537 8.68866 13.8787 8.77631 13.7531C8.77631 13.7531 8.77631 13.7531 8.77631 13.7526C10.4489 11.3582 12.5873 9.48886 14.0868 8.3423C14.9366 7.69261 15.6758 7.20042 16.1465 6.90277C16.4118 6.73448 16.9588 6.41386 16.9588 6.41386C17.1683 6.29948 17.2583 6.04636 17.1683 5.82558C17.0957 5.64839 16.9255 5.53355 16.7347 5.53355C16.6916 5.53355 16.6485 5.53964 16.6068 5.55136C15.4898 5.8673 14.5842 6.02058 13.8383 6.02058H13.8365C12.9563 6.01641 12.4577 5.82539 11.9023 5.56908C11.8368 5.53884 11.6591 5.45573 11.6591 5.45573C11.3174 5.29214 10.9771 5.13511 10.574 5.0137C10.0968 4.87022 9.60647 4.80042 9.07589 4.80042C8.95448 4.80042 8.82741 4.80277 8.69948 4.80928C8.19183 4.83459 7.70011 4.99209 7.27777 5.26444C6.86198 5.53261 6.52402 5.90475 6.30136 6.33975C6.05152 6.82533 5.57198 7.12725 5.04933 7.12725H4.85714C4.09303 7.12584 3.47011 6.50334 3.4687 5.73928V2.32912C3.47011 1.56506 4.09303 0.942094 4.85714 0.940688H5.35167C5.74214 0.940688 6.10917 1.08183 6.35902 1.32792C6.58491 1.54917 6.88209 1.671 7.19667 1.671C7.31522 1.671 7.43339 1.65319 7.54823 1.61855C8.56125 1.30777 10.1766 0.9375 12.1195 0.9375H12.1214C13.6233 0.9375 15.0773 1.16203 16.4442 1.60547C16.5637 1.64386 16.6871 1.66359 16.8104 1.66359H16.8113C17.116 1.66308 17.4066 1.54688 17.6293 1.33594C17.7235 1.24641 17.8261 1.17047 17.9349 1.10953C18.1346 0.997969 18.345 0.94125 18.5597 0.940734H19.1429C19.9069 0.942141 20.5299 1.56511 20.5313 2.32917V5.55469C20.5313 6.59953 20.0344 7.58527 19.2019 8.19187C17.3452 9.54422 15.976 11.2163 15.1318 13.1616C14.4591 14.7103 14.1179 16.4293 14.1179 18.27C14.1179 19.2919 14.2229 20.3409 14.4305 21.3867C14.4488 21.4786 14.4577 21.5714 14.4577 21.6628C14.4577 22.0308 14.3133 22.3795 14.0504 22.6458C13.7841 22.914 13.4288 23.0621 13.0506 23.0625H7.45547C7.08047 23.0625 6.7275 22.9163 6.46078 22.6514C6.19547 22.3856 6.04922 22.0341 6.04875 21.6605V21.6506C6.05859 20.2167 6.32953 18.7739 6.85359 17.362C6.94359 17.1202 6.81984 16.8497 6.57745 16.7597C6.525 16.74 6.46964 16.7302 6.41437 16.7302C6.21937 16.7302 6.04266 16.853 5.97469 17.0358C5.70281 17.7675 5.49234 18.5142 5.34938 19.2558C5.19703 20.0438 5.11687 20.8453 5.11172 21.6389C5.11125 21.6478 5.11125 21.6539 5.11125 21.6572V21.6605C5.11172 21.9764 5.17359 22.283 5.29589 22.5712C5.41406 22.8502 5.58323 23.1 5.79886 23.3152C6.01402 23.5298 6.26475 23.6981 6.5437 23.8162C6.83245 23.9381 7.13948 24 7.45542 24H13.0504L13.0523 23.9977V24C13.3715 24 13.6814 23.9367 13.9733 23.8115C14.2532 23.692 14.5035 23.5214 14.7168 23.3048C14.9296 23.0896 15.0969 22.8398 15.2137 22.5618C15.3341 22.2754 15.3951 21.9726 15.3951 21.6627C15.3951 21.5094 15.3801 21.3552 15.3501 21.2043C15.1541 20.2176 15.0552 19.2304 15.0552 18.2699C15.0552 16.5576 15.3702 14.9647 15.9913 13.5351C16.7704 11.7458 18.036 10.2027 19.754 8.94928C20.0217 8.75428 20.2659 8.52642 20.4796 8.27334C20.6901 8.02397 20.871 7.74923 21.0182 7.45678C21.313 6.87084 21.4687 6.21319 21.4687 5.55459V2.32917C21.4687 2.01516 21.4073 1.71047 21.2859 1.42406Z" fill="#647385"/>
<path d="M12.0787 1.70718H12.0773C10.74 1.70718 9.62623 1.97437 8.92737 2.19797C8.80779 2.2364 8.71081 2.3189 8.65357 2.43C8.59639 2.54156 8.58565 2.66859 8.62404 2.78765C8.68639 2.98265 8.86592 3.11343 9.07034 3.11343C9.11862 3.11343 9.1669 3.10593 9.21378 3.09093C9.21378 3.09093 9.21378 3.09093 9.21425 3.09047C9.84846 2.88703 10.8596 2.64468 12.0755 2.64468H12.0774C13.0163 2.64468 13.9252 2.7914 14.7793 3.08109C14.828 3.09797 14.8787 3.1064 14.9298 3.1064C15.1309 3.1064 15.309 2.97848 15.3737 2.78812C15.4567 2.54343 15.3249 2.27672 15.0802 2.19375C14.129 1.87078 13.1194 1.70718 12.0787 1.70718Z" fill="#647385"/>
<path d="M4.40625 2.745V5.32312C4.40625 5.58192 4.61672 5.79187 4.875 5.79187C5.13328 5.79187 5.34375 5.58192 5.34375 5.32312V2.745C5.34375 2.48671 5.13328 2.27625 4.875 2.27625C4.61672 2.27625 4.40625 2.48671 4.40625 2.745Z" fill="#647385"/>
<path d="M8.7047 17.9456C8.7483 17.8284 8.74408 17.7009 8.692 17.587C8.63997 17.4731 8.54716 17.3859 8.42997 17.3423C8.377 17.3222 8.32169 17.3123 8.26544 17.3123C8.07133 17.3123 7.89466 17.4346 7.82669 17.617C7.82481 17.6213 7.65376 18.0769 7.48028 18.7233C7.24637 19.598 7.13247 20.3283 7.13153 20.9555C7.13153 20.985 7.13153 21.0202 7.13251 21.0577V21.0582C7.13908 21.3043 7.23986 21.5339 7.41658 21.7046C7.59236 21.8747 7.82439 21.9685 8.06955 21.969H10.9219C11.1802 21.969 11.3906 21.7585 11.3906 21.5002C11.3906 21.2414 11.1802 21.0315 10.9219 21.0315H8.07001H8.0695C8.06903 21.009 8.06856 20.9841 8.06856 20.9555C8.06716 20.2496 8.26637 19.4063 8.38544 18.9666C8.50492 18.4658 8.70419 17.9465 8.7047 17.9456Z" fill="#647385"/>
</g>
<defs>
<clipPath id="clip0_3218_12186">
<rect width="24" height="24" fill="white"/>
</clipPath>
</defs>
</svg>
