<svg width="24" height="24" viewBox="0 0 24 24" fill="none" xmlns="http://www.w3.org/2000/svg">
<g clip-path="url(#clip0_3218_12194)">
<path d="M23.8626 12.6061L21.9876 10.7311C21.9005 10.644 21.7795 10.5938 21.6562 10.5938H18.6035L19.3353 8.39826C19.3791 8.26701 19.3627 8.1232 19.2904 8.00522L16.9935 4.25526C16.9083 4.11614 16.7569 4.03134 16.5938 4.03134H7.40625C7.24312 4.03134 7.09172 4.11619 7.00655 4.25526L4.70967 8.00522C4.63739 8.1232 4.62094 8.26701 4.66472 8.39826L5.39658 10.5938H2.34375C2.22047 10.5938 2.09953 10.6439 2.01234 10.7311L0.137344 12.6061C0.0501563 12.6933 0 12.8143 0 12.9375V17.625C0 17.7483 0.0501563 17.8692 0.137344 17.9564L2.01234 19.8314C2.10094 19.92 2.21859 19.9687 2.34375 19.9687H9.91734C10.1756 19.9687 10.3861 19.7583 10.3861 19.5C10.3861 19.2417 10.1756 19.0312 9.91734 19.0312H2.53781L0.9375 17.4309V13.1316L2.53781 11.5313H21.4622L23.0625 13.1316V17.4309L21.4621 19.0312H14.136C13.8773 19.0312 13.6673 19.2417 13.6673 19.5C13.6673 19.7587 13.8773 19.9687 14.136 19.9687H21.6562C21.7814 19.9687 21.8991 19.92 21.9876 19.8314L23.8626 17.9564C23.9513 17.8678 24 17.7502 24 17.625V12.9375C24 12.8124 23.9513 12.6947 23.8626 12.6061ZM7.40625 5.39751L8.86636 7.7813H5.94619L7.40625 5.39751ZM18.0538 7.78134H15.1336L16.5938 5.39751L18.0538 7.78134ZM14.2969 7.35262L12.8368 4.96884H15.7569L14.2969 7.35262ZM13.4601 7.78134H10.5399L12 5.39751L13.4601 7.78134ZM9.70312 7.35262L8.24302 4.96884H11.1632L9.70312 7.35262ZM10.2564 8.71884H13.7435L13.431 10.5938H10.5689L10.2564 8.71884ZM14.3815 10.5938L14.694 8.71879H18.243L17.6306 10.5938H14.3815ZM5.757 8.71884H9.30605L9.61856 10.5938H6.36942L5.757 8.71884Z" fill="#647385"/>
<path d="M12.0267 19.0312C11.768 19.0312 11.558 19.2417 11.558 19.5C11.558 19.7583 11.768 19.9688 12.0267 19.9688C12.285 19.9688 12.4955 19.7583 12.4955 19.5C12.4955 19.2417 12.285 19.0312 12.0267 19.0312Z" fill="#647385"/>
<path d="M5.77821 13.7944C5.69585 13.5956 5.50362 13.4672 5.28832 13.4672C5.28818 13.4672 5.28799 13.4672 5.28799 13.4672C5.07237 13.4675 4.88014 13.5962 4.7981 13.7953C4.79665 13.7988 3.77628 16.4587 3.77628 16.4587C3.68356 16.7004 3.80435 16.9715 4.04604 17.0643C4.28768 17.1568 4.55885 17.0361 4.65157 16.7945L4.78957 16.4346H5.77901L5.91528 16.7931C5.98643 16.9803 6.16451 17.0954 6.35356 17.0954C6.40892 17.0954 6.46521 17.0856 6.52001 17.0647C6.76203 16.9728 6.88362 16.702 6.79165 16.4601C6.7916 16.4601 5.77995 13.7986 5.77821 13.7944ZM5.1492 15.4971L5.28659 15.139L5.42271 15.4971H5.1492Z" fill="#647385"/>
<path d="M11.8028 15.2294L12.8035 14.3162C12.9948 14.1416 13.0083 13.8452 12.8338 13.6539C12.6593 13.4627 12.3629 13.4492 12.1716 13.6237L11.4986 14.2379V13.9359C11.4986 13.6771 11.2887 13.4672 11.0298 13.4672C10.771 13.4672 10.5611 13.6771 10.5611 13.9359V16.6266C10.5611 16.8854 10.771 17.0953 11.0298 17.0953C11.2887 17.0953 11.4986 16.8854 11.4986 16.6266V16.2362L12.2595 16.9651C12.3503 17.0521 12.4671 17.0953 12.5837 17.0953C12.707 17.0953 12.8302 17.0469 12.9223 16.9509C13.1013 16.7639 13.095 16.4671 12.908 16.288L11.8028 15.2294Z" fill="#647385"/>
<path d="M2.45462 13.936V16.1207H2.42912C2.32609 15.9274 2.09781 15.8271 1.88022 15.893C1.63234 15.9678 1.49209 16.2293 1.56686 16.4772C1.64542 16.7375 1.92493 17.06 2.40409 17.06C2.49967 17.06 2.60331 17.0472 2.71478 17.0184C3.13257 16.9107 3.39212 16.5536 3.39212 16.0865V13.936C3.39212 13.6771 3.18226 13.4672 2.92337 13.4672C2.66448 13.4672 2.45462 13.6771 2.45462 13.936Z" fill="#647385"/>
<path d="M8.75806 14.4047C8.93623 14.4047 9.10793 14.4567 9.25456 14.5551C9.46957 14.6992 9.76076 14.6418 9.90495 14.4268C10.0491 14.2118 9.99176 13.9206 9.77675 13.7764C9.47511 13.5742 9.12289 13.4672 8.75811 13.4672C7.7525 13.4672 6.93439 14.281 6.93439 15.2813C6.93439 16.2816 7.7525 17.0953 8.75811 17.0953C9.16311 17.0953 9.52765 16.9623 9.81218 16.7106C9.86815 16.6611 9.92122 16.6068 9.96992 16.5491C10.1369 16.3513 10.1119 16.0556 9.91404 15.8886C9.71618 15.7216 9.42045 15.7466 9.25348 15.9445C9.23407 15.9674 9.21317 15.9889 9.19118 16.0083C9.07896 16.1075 8.93328 16.1578 8.75806 16.1578C8.26939 16.1578 7.87184 15.7646 7.87184 15.2812C7.87184 14.7979 8.26939 14.4047 8.75806 14.4047Z" fill="#647385"/>
<path d="M21.2799 17.0953C21.5388 17.0953 21.7487 16.8854 21.7487 16.6266V14.4047H22.0312C22.2901 14.4047 22.5 14.1948 22.5 13.936C22.5 13.6771 22.2901 13.4672 22.0312 13.4672H20.5347C20.2758 13.4672 20.0659 13.6771 20.0659 13.936C20.0659 14.1948 20.2758 14.4047 20.5347 14.4047H20.8111V16.6266C20.8112 16.8854 21.021 17.0953 21.2799 17.0953Z" fill="#647385"/>
<path d="M14.4285 16.6266V15.9242C14.5389 15.9237 14.6448 15.9233 14.7143 15.9233C15.4027 15.9233 15.9628 15.3724 15.9628 14.6953C15.9628 14.0181 15.4027 13.4672 14.7143 13.4672H13.9597C13.8352 13.4672 13.7157 13.5168 13.6278 13.605C13.5398 13.6933 13.4905 13.8129 13.491 13.9375V16.6266C13.491 16.8854 13.7009 17.0953 13.9597 17.0953C14.2186 17.0953 14.4285 16.8854 14.4285 16.6266ZM14.7143 14.4047C14.8828 14.4047 15.0252 14.5378 15.0252 14.6953C15.0252 14.8527 14.8828 14.9858 14.7143 14.9858C14.6453 14.9858 14.5407 14.9862 14.4312 14.9867C14.4307 14.8738 14.4301 14.5236 14.4298 14.4047H14.7143Z" fill="#647385"/>
<path d="M20.0322 15.2813C20.0322 14.281 19.2141 13.4672 18.2085 13.4672C17.2029 13.4672 16.3848 14.281 16.3848 15.2813C16.3848 16.2816 17.2029 17.0953 18.2085 17.0953C19.2141 17.0953 20.0322 16.2816 20.0322 15.2813ZM17.3223 15.2813C17.3223 14.798 17.7199 14.4047 18.2085 14.4047C18.6972 14.4047 19.0947 14.798 19.0947 15.2813C19.0947 15.7646 18.6972 16.1578 18.2085 16.1578C17.7199 16.1578 17.3223 15.7646 17.3223 15.2813Z" fill="#647385"/>
<path d="M2.98273 4.90162L4.43585 5.77678C4.51155 5.82239 4.5949 5.84409 4.67726 5.84409C4.83621 5.84409 4.99127 5.76314 5.07926 5.61707C5.21281 5.39531 5.14132 5.10726 4.91955 4.97371L3.46643 4.09856C3.24471 3.96492 2.95662 4.0365 2.82302 4.25826C2.68943 4.48003 2.76096 4.76807 2.98273 4.90162Z" fill="#647385"/>
<path d="M19.3228 5.84409C19.4051 5.84409 19.4885 5.82234 19.5641 5.77678L21.0173 4.90163C21.239 4.76803 21.3106 4.48003 21.177 4.25822C21.0434 4.03641 20.7553 3.96492 20.5336 4.09852L19.0804 4.97367C18.8587 5.10727 18.7871 5.39527 18.9207 5.61703C19.0088 5.76319 19.1638 5.84409 19.3228 5.84409Z" fill="#647385"/>
<path d="M2.08943 7.39233L3.21443 7.67358C3.25259 7.68314 3.29084 7.68769 3.32848 7.68769C3.53852 7.68769 3.72963 7.54552 3.78288 7.33257C3.84565 7.08141 3.69298 6.82688 3.44182 6.76411L2.31682 6.48286C2.06557 6.41986 1.81113 6.57282 1.74837 6.82388C1.68556 7.07503 1.83827 7.32957 2.08943 7.39233Z" fill="#647385"/>
<path d="M20.2171 7.33253C20.2704 7.54553 20.4615 7.68765 20.6715 7.68765C20.7091 7.68765 20.7474 7.6831 20.7856 7.67354L21.9106 7.39229C22.1617 7.32953 22.3144 7.07499 22.2516 6.82384C22.1888 6.57268 21.9344 6.41978 21.6831 6.48282L20.5581 6.76407C20.307 6.82684 20.1543 7.08137 20.2171 7.33253Z" fill="#647385"/>
</g>
<defs>
<clipPath id="clip0_3218_12194">
<rect width="24" height="24" fill="white"/>
</clipPath>
</defs>
</svg>
