<svg width="40" height="40" viewBox="0 0 40 40" fill="none" xmlns="http://www.w3.org/2000/svg">
<rect width="40" height="40" rx="20" fill="#F04E34"/>
<path d="M13.6324 14.4263V24.3999H11.6637V16.6958L9.29846 17.4478V15.896L13.4205 14.4263H13.6324ZM23.5787 21.6724C23.5787 22.2967 23.4329 22.8231 23.1412 23.2515C22.8496 23.6753 22.4485 23.9966 21.9381 24.2153C21.4323 24.4295 20.858 24.5366 20.2155 24.5366C19.5729 24.5366 18.9964 24.4295 18.486 24.2153C17.9755 23.9966 17.5722 23.6753 17.276 23.2515C16.9798 22.8231 16.8317 22.2967 16.8317 21.6724C16.8317 21.2531 16.916 20.8748 17.0846 20.5376C17.2532 20.1958 17.4879 19.9041 17.7887 19.6626C18.094 19.4165 18.4518 19.2297 18.8619 19.1021C19.2721 18.9699 19.7187 18.9038 20.2018 18.9038C20.8489 18.9038 21.4277 19.0177 21.9381 19.2456C22.4485 19.4735 22.8496 19.7948 23.1412 20.2095C23.4329 20.6242 23.5787 21.1118 23.5787 21.6724ZM21.5963 21.5425C21.5963 21.2371 21.5371 20.9751 21.4186 20.7563C21.3046 20.533 21.1429 20.3621 20.9332 20.2437C20.7236 20.1252 20.4798 20.0659 20.2018 20.0659C19.9238 20.0659 19.68 20.1252 19.4703 20.2437C19.2607 20.3621 19.0966 20.533 18.9781 20.7563C18.8642 20.9751 18.8073 21.2371 18.8073 21.5425C18.8073 21.8433 18.8642 22.103 18.9781 22.3218C19.0966 22.5405 19.2607 22.7091 19.4703 22.8276C19.6845 22.9416 19.9329 22.9985 20.2155 22.9985C20.498 22.9985 20.7418 22.9416 20.9469 22.8276C21.1565 22.7091 21.316 22.5405 21.4254 22.3218C21.5393 22.103 21.5963 21.8433 21.5963 21.5425ZM23.3668 17.0854C23.3668 17.5913 23.2324 18.0402 22.9635 18.4321C22.6946 18.8195 22.3209 19.1226 21.8424 19.3413C21.3684 19.5601 20.8261 19.6694 20.2155 19.6694C19.6002 19.6694 19.0533 19.5601 18.5748 19.3413C18.0963 19.1226 17.7226 18.8195 17.4537 18.4321C17.1849 18.0402 17.0504 17.5913 17.0504 17.0854C17.0504 16.4839 17.1849 15.978 17.4537 15.5679C17.7272 15.1532 18.1009 14.8387 18.5748 14.6245C19.0533 14.4103 19.5957 14.3032 20.2018 14.3032C20.817 14.3032 21.3616 14.4103 21.8356 14.6245C22.3141 14.8387 22.6878 15.1532 22.9567 15.5679C23.2301 15.978 23.3668 16.4839 23.3668 17.0854ZM21.3981 17.1743C21.3981 16.9054 21.3502 16.673 21.2545 16.4771C21.1588 16.2765 21.0221 16.1216 20.8444 16.0122C20.6712 15.9028 20.457 15.8481 20.2018 15.8481C19.9557 15.8481 19.7438 15.9006 19.566 16.0054C19.3929 16.1102 19.2584 16.2629 19.1627 16.4634C19.0716 16.6593 19.026 16.8963 19.026 17.1743C19.026 17.4432 19.0716 17.6802 19.1627 17.8853C19.2584 18.0858 19.3951 18.243 19.5729 18.3569C19.7506 18.4709 19.9648 18.5278 20.2155 18.5278C20.4661 18.5278 20.678 18.4709 20.8512 18.3569C21.0289 18.243 21.1634 18.0858 21.2545 17.8853C21.3502 17.6802 21.3981 17.4432 21.3981 17.1743ZM31.4332 18.856V20.5718H24.611V18.856H31.4332ZM28.9586 16.1558V23.4019H27.0924V16.1558H28.9586Z" fill="#F6F7F9"/>
</svg>
