<svg width="114" height="66" viewBox="0 0 114 66" fill="none" xmlns="http://www.w3.org/2000/svg">
<rect x="6.5" width="101.75" height="66" rx="6" fill="white"/>
<g clip-path="url(#clip0_440_10084)">
<path d="M20.6412 22.5127L15.0525 38.9177H18.3462L19.9187 34.1364H24.445L26.06 38.9177H29.4175L23.8287 22.5127H20.6412ZM23.6587 31.4164H20.7262L21.9587 27.8039C22.0437 27.5489 22.1287 27.3152 22.1925 27.0602C22.2775 27.3152 22.3412 27.5702 22.4262 27.8252L23.6587 31.4164Z" fill="black"/>
<path d="M34.9638 31.459C33.455 30.864 33.285 30.5878 33.285 30.1415C33.285 29.589 33.7525 29.249 34.4963 29.249C35.3888 29.249 36.0688 29.6103 36.4088 29.8015L37.0463 30.2053L37.8963 27.6128L37.5138 27.3578C36.77 26.869 35.665 26.5928 34.5175 26.5928C32.01 26.5928 30.1825 28.1865 30.1825 30.3753C30.1825 32.394 31.9675 33.4778 33.4763 34.0303C34.985 34.5828 35.0913 34.9865 35.0913 35.454C35.0913 36.3465 34.1563 36.474 33.5825 36.474C32.7113 36.474 31.7763 36.1128 31.245 35.794L30.6075 35.4115L29.7575 38.0678L30.1613 38.3015C31.075 38.8328 32.3075 39.1515 33.54 39.1515C36.3238 39.1515 38.1938 37.579 38.1938 35.2628C38.1938 32.9253 36.345 31.969 34.9638 31.459Z" fill="black"/>
<path d="M43.145 23.979L40.0212 24.9353V26.8053H38.3212V29.504H40.0212V34.859C40.0212 36.3465 40.3187 37.4303 40.935 38.1315C41.53 38.7903 42.465 39.1515 43.5062 39.1515C44.4625 39.1515 45.1425 38.9603 45.4612 38.854L45.8862 38.7053L45.7162 35.9853L44.9937 36.1978C44.7812 36.2615 44.5262 36.304 44.0162 36.304C43.6337 36.304 43.1237 36.304 43.1237 34.774V29.504H45.9712V26.8053H43.1237V23.979H43.145Z" fill="black"/>
<path d="M53.6 26.699L53.0263 26.6353C52.8563 26.614 52.6863 26.5928 52.4738 26.5928C51.475 26.5928 50.5613 26.9965 49.8813 27.719L49.8388 26.8265H46.885L46.9275 27.464C46.9913 28.399 47.0125 29.4615 47.0125 30.8215V38.9178H50.1788V32.5003C50.1788 32.2028 50.2 31.9053 50.2425 31.6928C50.4763 30.439 51.2625 29.6528 52.325 29.6528C52.58 29.6528 52.7288 29.6528 52.8775 29.674L53.6 29.8228V26.699Z" fill="black"/>
<path d="M59.4013 26.5928C55.8738 26.5928 53.3875 29.2065 53.3875 32.9678C53.3875 36.729 55.7888 39.1728 59.21 39.1728C62.1213 39.1728 65.245 37.1753 65.245 32.7765C65.245 29.1215 62.8438 26.5928 59.4013 26.5928ZM62.0363 32.8403C62.0363 34.944 60.8888 36.4953 59.3163 36.4953C57.7438 36.4953 56.6175 34.9865 56.6175 32.904C56.6175 31.5653 57.1913 29.2703 59.3588 29.2703C61.4625 29.2703 62.0363 31.6078 62.0363 32.8403Z" fill="black"/>
<path d="M75.6575 23.8305C74.6163 22.8955 73.0438 22.4067 71.0038 22.4067C69.6225 22.4067 68.3263 22.513 67.1363 22.7042L66.6475 22.7892V38.8967H69.7925V32.9255C70.1113 32.9467 70.4513 32.968 70.77 32.968C72.895 32.968 74.7013 32.3092 75.8488 31.1192C76.7413 30.2055 77.1875 28.973 77.1875 27.4642C77.1875 25.998 76.635 24.7017 75.6575 23.8305ZM74.0213 27.5705C74.0213 29.8655 72.0025 30.2055 70.8125 30.2055C70.4088 30.2055 70.0688 30.1842 69.7925 30.1417V25.2117C70.09 25.1692 70.515 25.148 71.0463 25.148C72.4063 25.148 74.0213 25.573 74.0213 27.5705Z" fill="black"/>
<path d="M86.835 35.709V31.629C86.835 28.3778 85.1563 26.5928 82.0963 26.5928C80.6725 26.5928 79.2063 26.9753 78.1651 27.634L77.7613 27.889L78.6113 30.3965L79.2488 29.9503C79.9076 29.504 80.8426 29.249 81.7775 29.249C82.4151 29.249 82.8826 29.3978 83.1801 29.6953C83.4351 29.9503 83.5838 30.3115 83.6263 30.8003C81.1613 30.864 79.3338 31.459 78.2288 32.564C77.4638 33.329 77.0813 34.3065 77.0813 35.454C77.0813 37.3028 78.4413 39.1728 81.0125 39.1728C82.1175 39.1728 83.1588 38.8115 83.9663 38.1953L84.0513 38.9178H87.0475L86.9413 38.2378C86.8775 37.579 86.835 36.729 86.835 35.709ZM81.5438 36.5165C81.0763 36.5165 80.2901 36.3465 80.2901 35.2203C80.2901 34.7953 80.4175 34.434 80.6938 34.179C81.055 33.8178 81.8838 33.3928 83.7325 33.3503V34.6465C83.7325 34.7315 83.7325 34.9228 83.6688 35.0928C83.4563 35.7303 82.755 36.5165 81.5438 36.5165Z" fill="black"/>
<path d="M95.5688 26.8054L93.2738 33.6054C93.21 33.7754 93.1675 33.9454 93.1038 34.1154C93.04 33.9454 92.9763 33.7754 92.9338 33.6267L90.4263 26.7842H86.9625L91.2975 37.6642L91.3188 37.6854C91.3825 37.8342 91.4038 37.8979 91.425 37.9404C91.4038 38.0042 91.3613 38.1104 91.3188 38.1742C90.9363 38.9817 90.3838 39.7254 89.8313 40.1717L89.81 40.1929C89.1725 40.7242 88.535 40.9792 88.28 41.0429L87.7275 41.2129L88.535 43.9329L89.0663 43.8479C89.385 43.7842 90.5113 43.5292 91.7863 42.4454C93.3375 41.0854 94.3575 38.9179 95.6963 35.3692L98.9475 26.8054H95.5688Z" fill="black"/>
<path d="M26.6337 27.0392C28.6737 24.9567 32.1375 23.7029 35.8987 23.7029C37.365 23.7029 38.7887 23.8942 40.1487 24.2554L40.255 24.2767L42.6562 23.5542L41.5725 23.1504C39.5112 22.3642 37.1525 21.9604 34.7087 21.9604C31.1812 21.9604 27.8662 22.8104 25.4225 24.3617L25.1675 24.5317L26.1875 27.5067L26.6337 27.0392Z" fill="#20D5B3"/>
</g>
<defs>
<clipPath id="clip0_440_10084">
<rect width="113" height="66" fill="white" transform="translate(0.5)"/>
</clipPath>
</defs>
</svg>
