<svg width="102" height="66" viewBox="0 0 102 66" fill="none" xmlns="http://www.w3.org/2000/svg">
<rect x="0.25" width="101.75" height="66" rx="6" fill="white"/>
<g clip-path="url(#clip0_440_10097)">
<g clip-path="url(#clip1_440_10097)">
<mask id="mask0_440_10097" style="mask-type:luminance" maskUnits="userSpaceOnUse" x="31" y="14" width="39" height="38">
<path d="M69.75 14H31.75V52H69.75V14Z" fill="white"/>
</mask>
<g mask="url(#mask0_440_10097)">
<path d="M69.1812 37.5955C66.6434 47.7728 56.3329 53.9666 46.152 51.4288C35.9753 48.8913 29.7801 38.5827 32.3191 28.4063C34.8558 18.2279 45.1663 12.0337 55.3441 14.5709C65.5244 17.1082 71.7193 27.4179 69.181 37.5957L69.1812 37.5955Z" fill="#F7931A"/>
<path d="M59.1291 30.2935C59.5071 27.7653 57.5819 26.4063 54.9495 25.4998L55.8035 22.0751L53.7183 21.5557L52.887 24.8901C52.3387 24.7535 51.7758 24.6247 51.2163 24.497L52.0537 21.1405L49.9698 20.6211L49.1153 24.0446C48.6617 23.9413 48.2161 23.8393 47.7838 23.7317L47.7863 23.721L44.9108 23.0031L44.3561 25.2296C44.3561 25.2296 45.9031 25.5842 45.8705 25.606C46.7149 25.8167 46.8676 26.3755 46.8422 26.8184L45.8694 30.7199C45.9276 30.7346 46.003 30.756 46.0862 30.7894C46.0166 30.7721 45.9426 30.7533 45.8658 30.7349L44.5022 36.2002C44.399 36.4568 44.1371 36.8417 43.5468 36.6954C43.5677 36.7258 42.0312 36.3174 42.0312 36.3174L40.996 38.7037L43.7095 39.3799C44.2143 39.5064 44.709 39.639 45.1961 39.7634L44.3333 43.2273L46.416 43.7466L47.2705 40.3197C47.8395 40.4741 48.3917 40.6165 48.9322 40.7508L48.0806 44.1618L50.1659 44.6811L51.0286 41.2237C54.5843 41.8965 57.2578 41.6254 58.3832 38.4101C59.2899 35.8214 58.338 34.3281 56.4674 33.3544C57.8298 33.0403 58.856 32.1444 59.1297 30.2937L59.1291 30.2935ZM54.3648 36.9724C53.7205 39.5611 49.3609 38.1616 47.9474 37.8109L49.0924 33.2217C50.5058 33.5745 55.0382 34.2726 54.3648 36.9724ZM55.0098 30.256C54.4219 32.6106 50.7934 31.4143 49.6163 31.121L50.6544 26.959C51.8315 27.2524 55.6222 27.7998 55.01 30.256H55.0098Z" fill="white"/>
</g>
</g>
</g>
<defs>
<clipPath id="clip0_440_10097">
<rect width="66" height="66" fill="white" transform="translate(17.75)"/>
</clipPath>
<clipPath id="clip1_440_10097">
<rect width="38" height="38" fill="white" transform="translate(31.75 14)"/>
</clipPath>
</defs>
</svg>
