<svg width="114" height="66" viewBox="0 0 114 66" fill="none" xmlns="http://www.w3.org/2000/svg">
<rect x="6.75" width="101.75" height="66" rx="6" fill="white"/>
<g clip-path="url(#clip0_440_10071)">
<path d="M59.5311 27.3008C60.2001 27.3008 60.8415 27.3008 61.5128 27.3008C61.5298 27.6151 61.519 27.9231 61.5213 28.2311C61.5232 28.5497 61.5213 28.8682 61.5213 29.1868C61.5213 29.4991 61.5213 29.8091 61.5213 30.1214C61.5213 30.4315 61.5213 30.7416 61.5213 31.0814C61.5615 31.0516 61.585 31.041 61.5997 31.0219C62.1585 30.3168 62.8934 29.943 63.7831 29.8622C64.7113 29.7773 65.5503 30.0067 66.2895 30.5823C66.8119 30.9879 67.1837 31.5147 67.4089 32.1285C67.9291 33.5473 67.8889 34.9491 67.1624 36.2935C66.674 37.1983 65.92 37.8058 64.9045 38.0118C63.6239 38.2709 62.4854 38.0076 61.6105 36.9604C61.5935 36.9392 61.587 36.9095 61.5765 36.884C61.5595 36.8925 61.5425 36.9031 61.5255 36.9116C61.5255 37.2536 61.5255 37.5955 61.5255 37.929C61.3513 37.9778 59.7881 37.9884 59.5311 37.946C59.5311 34.4032 59.5311 30.8626 59.5311 27.3008ZM65.697 33.9529C65.6905 33.8404 65.6905 33.7257 65.6778 33.6131C65.5993 32.942 65.3253 32.3749 64.7603 31.9841C63.6749 31.2322 62.186 31.6995 61.704 32.9462C61.4405 33.6237 61.4343 34.3247 61.7083 34.9979C62.031 35.7923 62.628 36.268 63.4986 36.3105C64.3206 36.3509 64.9385 35.9728 65.3613 35.2719C65.6055 34.8684 65.697 34.4223 65.697 33.9529Z" fill="#0E183D"/>
<path d="M74.3965 31.0704C74.3965 30.6838 74.3965 30.3419 74.3965 29.9851C75.0762 29.9851 75.7304 29.9851 76.3846 29.9851C76.4314 30.1295 76.4503 37.593 76.4036 37.9328C76.2506 37.9775 74.6557 37.9859 74.3987 37.9413C74.3987 37.5973 74.3987 37.2468 74.3987 36.8985C74.386 36.8943 74.3732 36.89 74.3605 36.8858C74.3242 36.924 74.2882 36.9643 74.2542 37.0026C73.6363 37.7056 72.8631 38.0603 71.9244 38.0964C70.0955 38.1665 68.904 36.9537 68.4728 35.7112C68.0353 34.4539 68.0353 33.188 68.5728 31.9625C69.0613 30.8495 69.9065 30.1253 71.1257 29.9086C72.3661 29.6877 73.4385 30.0127 74.2902 30.9706C74.3137 30.9918 74.3392 31.0131 74.3965 31.0704ZM74.4242 33.9653C74.3817 33.702 74.3647 33.4301 74.2945 33.1731C74.0587 32.2874 73.2835 31.6609 72.4086 31.6269C71.4824 31.5908 70.6859 32.1196 70.3802 33.0011C70.136 33.702 70.1592 34.4093 70.4567 35.0931C70.7859 35.8535 71.5674 36.3463 72.3576 36.3208C73.224 36.2932 73.9505 35.7665 74.2437 34.9487C74.3582 34.6323 74.405 34.3052 74.4242 33.9653Z" fill="#0E183D"/>
<path d="M90.5853 33.9886C91.7492 35.3076 92.8981 36.6117 94.0748 37.9455C93.9793 37.954 93.9218 37.9646 93.8623 37.9646C93.1339 37.9668 92.4054 37.9604 91.6747 37.9689C91.5305 37.971 91.4432 37.9179 91.3582 37.8096C90.5683 36.8007 89.7738 35.7961 88.9816 34.7915C88.9391 34.7384 88.8924 34.6874 88.8116 34.6428C88.8116 35.7409 88.8116 36.839 88.8116 37.9519C88.1322 37.9519 87.4799 37.9519 86.8152 37.9519C86.8152 34.4028 86.8152 30.8664 86.8152 27.3322C86.966 27.2833 88.5059 27.2706 88.8074 27.3195C88.8074 29.3032 88.8074 31.2934 88.8074 33.2813C88.8224 33.2856 88.8394 33.2898 88.8541 33.2962C88.9009 33.2389 88.9499 33.1815 88.9963 33.122C89.7738 32.1302 90.5533 31.1404 91.3242 30.1443C91.4262 30.0126 91.5325 29.9638 91.6959 29.9659C92.3969 29.9744 93.0979 29.9701 93.7988 29.9701C93.8688 29.9701 93.9388 29.9701 94.0026 29.9701C94.0111 29.9914 94.0153 29.9977 94.0176 30.0041C94.0196 30.0105 94.0196 30.019 94.0153 30.0232C92.8749 31.3401 91.7365 32.6548 90.5853 33.9886Z" fill="#0E183D"/>
<path d="M35.9193 34.5792C35.2842 34.5813 34.6492 34.5792 34.0141 34.5792C33.3706 34.5792 32.7249 34.5792 32.0813 34.5792C31.4463 34.5792 30.8112 34.5792 30.157 34.5792C30.1825 35.0464 30.3163 35.4415 30.6009 35.7729C31.0597 36.3081 31.6587 36.4822 32.3405 36.3973C32.8821 36.3293 33.2899 36.0511 33.5575 35.5732C33.6084 35.4819 33.6658 35.4436 33.772 35.4436C34.4028 35.4479 35.0315 35.4457 35.6623 35.4457C35.6899 35.4457 35.7175 35.4521 35.7642 35.4564C35.7536 35.5137 35.7494 35.5689 35.7303 35.6178C35.2248 36.9601 34.2775 37.7863 32.8566 38.0327C32.1875 38.1495 31.5142 38.124 30.858 37.9329C29.6027 37.5654 28.7616 36.7477 28.3517 35.518C27.9991 34.4603 28.0055 33.3813 28.3814 32.3278C28.8657 30.9727 29.8427 30.1763 31.2551 29.915C31.9624 29.7833 32.6675 29.8088 33.3557 30.0233C34.7809 30.4694 35.5986 31.4655 35.9002 32.9055C36.0064 33.4153 36.0106 33.9314 35.9448 34.4475C35.9427 34.4836 35.9342 34.5155 35.9193 34.5792ZM30.1677 33.1986C30.5202 33.2475 33.7486 33.2283 33.893 33.1816C33.9122 32.7972 33.7593 32.3958 33.481 32.1048C32.9139 31.5122 31.9497 31.3296 31.2084 31.6821C30.5797 31.9837 30.2739 32.5126 30.1677 33.1986Z" fill="#0E183D"/>
<path d="M45.4792 38.1069C44.519 38.0963 43.644 37.8414 42.8964 37.2255C42.0745 36.5479 41.6391 35.658 41.5116 34.6109C41.4245 33.8994 41.4628 33.1921 41.6964 32.5124C42.1934 31.0745 43.2236 30.2271 44.6955 29.9276C45.6979 29.7237 46.6686 29.8512 47.5776 30.3439C48.68 30.9407 49.3045 31.8838 49.5402 33.0965C49.6632 33.7294 49.6484 34.3645 49.5082 34.9932C49.1472 36.6201 47.8453 37.8223 46.1972 38.0432C45.9592 38.0772 45.7192 38.0857 45.4792 38.1069ZM47.5563 33.9822C47.5478 33.8272 47.5478 33.67 47.5288 33.5171C47.5118 33.3769 47.4841 33.2367 47.4458 33.1008C47.1931 32.1854 46.4031 31.5928 45.4684 31.614C44.5297 31.6352 43.8055 32.2406 43.5911 33.1857C43.4698 33.7252 43.474 34.2668 43.5996 34.8063C43.6865 35.1844 43.8565 35.5221 44.1348 35.8024C44.997 36.6669 46.7788 36.5246 47.3651 35.0633C47.5053 34.7171 47.5563 34.3539 47.5563 33.9822Z" fill="#0E183D"/>
<path d="M52.5838 37.9543C51.9083 37.9543 51.2584 37.9543 50.5956 37.9543C50.5956 35.2972 50.5956 32.6465 50.5956 29.9831C51.2521 29.9831 51.8998 29.9831 52.5688 29.9831C52.6093 30.2784 52.5625 30.58 52.6008 30.9134C52.6688 30.8476 52.7133 30.8051 52.7535 30.7626C53.2763 30.2274 53.9132 29.9385 54.6524 29.8748C55.1644 29.8302 55.6741 29.8684 56.1583 30.0553C57.2118 30.461 57.8192 31.2448 58.0337 32.3407C58.0912 32.638 58.1164 32.9439 58.1187 33.2476C58.1272 34.7471 58.123 36.2487 58.123 37.7504C58.123 37.812 58.1164 37.8757 58.1145 37.9521C57.4498 37.9521 56.7975 37.9521 56.1201 37.9521C56.1201 37.8608 56.1201 37.778 56.1201 37.6951C56.1201 36.3295 56.1263 34.9638 56.1158 33.5959C56.1138 33.3156 56.0798 33.0288 56.0053 32.7591C55.8163 32.0752 55.2831 31.6441 54.5739 31.5952C54.3297 31.5782 54.0747 31.5931 53.837 31.6483C53.2442 31.7885 52.8683 32.175 52.6878 32.757C52.5943 33.0586 52.5838 33.3687 52.5838 33.6809C52.5838 35.019 52.5838 36.3571 52.5838 37.6951C52.5838 37.778 52.5838 37.8608 52.5838 37.9543Z" fill="#0E183D"/>
<path d="M77.8821 29.9767C78.551 29.9767 79.1925 29.9767 79.8595 29.9767C79.8595 30.2847 79.8595 30.5841 79.8595 30.9282C79.9272 30.8709 79.9654 30.8454 79.9952 30.8135C80.5369 30.2316 81.2124 29.9279 82.0003 29.8705C82.4188 29.8408 82.837 29.8641 83.2408 29.9873C84.3812 30.3378 85.0586 31.1173 85.3071 32.2705C85.3709 32.5658 85.4006 32.8738 85.4029 33.1753C85.4134 34.7109 85.4071 36.2466 85.4071 37.7822C85.4071 37.831 85.4029 37.8799 85.3986 37.9266C85.2479 37.9733 83.725 37.9861 83.4085 37.9436C83.4062 37.865 83.402 37.7843 83.402 37.7014C83.402 36.357 83.402 35.0126 83.402 33.6681C83.402 33.3771 83.3935 33.0883 83.315 32.8058C83.1218 32.1113 82.612 31.6695 81.8941 31.593C81.6328 31.5654 81.3693 31.576 81.1146 31.6461C80.4264 31.8373 80.0484 32.3088 79.9229 32.9927C79.8869 33.186 79.8765 33.3856 79.8765 33.5831C79.8722 34.9488 79.8742 36.3145 79.8742 37.6802C79.8742 37.763 79.8742 37.848 79.8742 37.9266C79.6999 37.9733 78.1306 37.9818 77.8841 37.9393C77.8821 35.295 77.8821 32.6444 77.8821 29.9767Z" fill="#0E183D"/>
<path d="M20.508 34.902C21.1983 34.902 21.8461 34.902 22.5045 34.902C22.5258 35.0485 22.5427 35.1866 22.5682 35.3246C22.6043 35.5221 22.6808 35.7027 22.7934 35.8683C23.1523 36.3951 24.3141 36.4503 24.6327 35.6942C24.7049 35.5221 24.7389 35.3289 24.7686 35.1419C24.7899 35.0187 24.7771 34.8871 24.7771 34.7596C24.7771 32.5656 24.7771 30.3716 24.7771 28.1776C24.7771 28.0947 24.7771 28.0098 24.7771 27.9333C24.9619 27.8823 26.5825 27.8781 26.7949 27.9269C26.7991 27.9907 26.8055 28.0586 26.8055 28.1287C26.8055 30.3928 26.8076 32.6569 26.8055 34.9232C26.8055 35.2928 26.7736 35.6581 26.6738 36.0149C26.4104 36.96 25.8136 37.5972 24.8812 37.8946C24.0847 38.1473 23.2734 38.1494 22.4812 37.8797C21.3809 37.5059 20.7523 36.7221 20.5696 35.5795C20.5356 35.365 20.5292 35.1462 20.508 34.902Z" fill="#0E183D"/>
<path d="M41.0316 37.9434C40.318 37.971 39.6171 38.0262 38.9268 37.8776C37.9923 37.6758 37.4337 37.0662 37.3062 36.1189C37.2723 35.8683 37.2595 35.6113 37.2595 35.3586C37.2553 34.2053 37.2574 33.0499 37.2574 31.8965C37.2574 31.8201 37.2574 31.7436 37.2574 31.6396C36.9388 31.6396 36.6393 31.6396 36.3271 31.6396C36.3271 31.0767 36.3271 30.5415 36.3271 29.9786C36.6308 29.9786 36.9303 29.9786 37.2531 29.9786C37.2531 29.3117 37.2531 28.6703 37.2531 28.0161C37.9307 28.0161 38.5848 28.0161 39.2645 28.0161C39.2645 28.6597 39.2645 29.299 39.2645 29.9659C39.8635 29.9659 40.439 29.9659 41.0295 29.9659C41.0295 30.533 41.0295 31.0725 41.0295 31.6332C40.4497 31.6332 39.8783 31.6332 39.2921 31.6332C39.2836 31.7054 39.2709 31.7585 39.2709 31.8116C39.2709 33.0371 39.2666 34.2605 39.273 35.486C39.2751 36.0467 39.4854 36.2506 40.0482 36.257C40.3031 36.2612 40.558 36.257 40.8128 36.2591C40.8829 36.2591 40.9509 36.2655 41.0316 36.2697C41.0316 36.8305 41.0316 37.3784 41.0316 37.9434Z" fill="#0E183D"/>
</g>
<defs>
<clipPath id="clip0_440_10071">
<rect width="113" height="66" fill="white" transform="translate(0.75)"/>
</clipPath>
</defs>
</svg>
