<svg width="103" height="66" viewBox="0 0 103 66" fill="none" xmlns="http://www.w3.org/2000/svg">
<rect x="0.75" width="101.75" height="66" rx="6" fill="white"/>
<g clip-path="url(#clip0_440_10040)">
<g clip-path="url(#clip1_440_10040)">
<path d="M74.0291 51.0176V51.114H74.1178C74.1374 51.114 74.1542 51.1093 74.1663 51.1018C74.1775 51.0943 74.1841 51.0812 74.1841 51.0653C74.1841 51.0494 74.1775 51.0373 74.1663 51.0298C74.1542 51.0214 74.1374 51.0176 74.1178 51.0176H74.0291ZM74.1187 50.9502C74.1645 50.9502 74.1999 50.9605 74.2252 50.9811C74.2503 51.0017 74.2625 51.0298 74.2625 51.0653C74.2625 51.0953 74.2531 51.1196 74.2327 51.1392C74.213 51.158 74.185 51.1701 74.1477 51.1748L74.2653 51.3105H74.1738L74.0646 51.1757H74.0291V51.3105H73.9526V50.9502H74.1187ZM74.0954 51.4349C74.1374 51.4349 74.1766 51.4265 74.2121 51.4106C74.2485 51.3947 74.2802 51.3732 74.3073 51.346C74.3344 51.3189 74.3559 51.2871 74.3717 51.2497C74.3867 51.2132 74.395 51.1738 74.395 51.1318C74.395 51.0897 74.3867 51.0503 74.3717 51.0139C74.3559 50.9774 74.3344 50.9446 74.3073 50.9175C74.2802 50.8903 74.2485 50.8688 74.2121 50.8529C74.1766 50.838 74.1374 50.8305 74.0954 50.8305C74.0534 50.8305 74.0133 50.838 73.9768 50.8529C73.9395 50.8688 73.9068 50.8903 73.8797 50.9175C73.8526 50.9446 73.8312 50.9774 73.8162 51.0139C73.8004 51.0503 73.7929 51.0897 73.7929 51.1318C73.7929 51.1738 73.8004 51.2132 73.8162 51.2497C73.8312 51.2871 73.8526 51.3189 73.8797 51.346C73.9068 51.3732 73.9395 51.3947 73.9768 51.4106C74.0133 51.4265 74.0534 51.4349 74.0954 51.4349ZM74.0954 50.7434C74.1505 50.7434 74.2009 50.7538 74.2495 50.7743C74.297 50.794 74.3381 50.8221 74.3745 50.8576C74.41 50.8922 74.438 50.9334 74.4586 50.9811C74.479 51.0279 74.4893 51.0784 74.4893 51.1318C74.4893 51.1851 74.479 51.2356 74.4586 51.2824C74.438 51.3292 74.41 51.3704 74.3745 51.4059C74.3381 51.4406 74.297 51.4686 74.2495 51.4892C74.2009 51.5098 74.1505 51.5201 74.0954 51.5201C74.0394 51.5201 73.988 51.5098 73.9395 51.4892C73.8909 51.4686 73.8489 51.4406 73.8135 51.4059C73.778 51.3704 73.75 51.3292 73.7294 51.2824C73.7089 51.2356 73.6986 51.1851 73.6986 51.1318C73.6986 51.0784 73.7089 51.0279 73.7294 50.9811C73.75 50.9334 73.778 50.8922 73.8135 50.8576C73.8489 50.8221 73.8909 50.794 73.9395 50.7743C73.988 50.7538 74.0394 50.7434 74.0954 50.7434ZM37.7227 49.3558C37.7227 48.6691 38.1717 48.1048 38.9055 48.1048C39.6066 48.1048 40.0799 48.6447 40.0799 49.3558C40.0799 50.067 39.6066 50.6069 38.9055 50.6069C38.1717 50.6069 37.7227 50.0426 37.7227 49.3558ZM40.879 49.3558V47.4022H40.0313V47.8765C39.7625 47.5247 39.3545 47.3039 38.8 47.3039C37.7068 47.3039 36.8497 48.1628 36.8497 49.3558C36.8497 50.5498 37.7068 51.4078 38.8 51.4078C39.3545 51.4078 39.7625 51.187 40.0313 50.8352V51.3095H40.879V49.3558ZM69.5246 49.3558C69.5246 48.6691 69.9737 48.1048 70.7075 48.1048C71.4095 48.1048 71.8819 48.6447 71.8819 49.3558C71.8819 50.067 71.4095 50.6069 70.7075 50.6069C69.9737 50.6069 69.5246 50.0426 69.5246 49.3558ZM72.6819 49.3558V45.833H71.8334V47.8765C71.5645 47.5247 71.1565 47.3039 70.602 47.3039C69.5088 47.3039 68.6518 48.1628 68.6518 49.3558C68.6518 50.5498 69.5088 51.4078 70.602 51.4078C71.1565 51.4078 71.5645 51.187 71.8334 50.8352V51.3095H72.6819V49.3558ZM51.4013 48.0646C51.9474 48.0646 52.2985 48.408 52.3881 49.0125H50.365C50.4556 48.4482 50.7973 48.0646 51.4013 48.0646ZM51.4181 47.3039C50.2754 47.3039 49.4762 48.1376 49.4762 49.3558C49.4762 50.5984 50.3081 51.4078 51.475 51.4078C52.0623 51.4078 52.6 51.2609 53.0733 50.8604L52.6579 50.2307C52.3311 50.4917 51.9148 50.6396 51.5236 50.6396C50.9774 50.6396 50.4799 50.386 50.3575 49.6824H53.2526C53.2609 49.5767 53.2694 49.47 53.2694 49.3558C53.2609 48.1376 52.5104 47.3039 51.4181 47.3039ZM61.6537 49.3558C61.6537 48.6691 62.1027 48.1048 62.8366 48.1048C63.5377 48.1048 64.011 48.6447 64.011 49.3558C64.011 50.067 63.5377 50.6069 62.8366 50.6069C62.1027 50.6069 61.6537 50.0426 61.6537 49.3558ZM64.8101 49.3558V47.4022H63.9624V47.8765C63.6926 47.5247 63.2856 47.3039 62.7311 47.3039C61.6378 47.3039 60.7808 48.1628 60.7808 49.3558C60.7808 50.5498 61.6378 51.4078 62.7311 51.4078C63.2856 51.4078 63.6926 51.187 63.9624 50.8352V51.3095H64.8101V49.3558ZM56.8664 49.3558C56.8664 50.5413 57.6898 51.4078 58.9464 51.4078C59.5336 51.4078 59.9248 51.2768 60.3486 50.9418L59.9416 50.255C59.6232 50.4843 59.289 50.6069 58.9211 50.6069C58.2443 50.5984 57.7468 50.1081 57.7468 49.3558C57.7468 48.6036 58.2443 48.1132 58.9211 48.1048C59.289 48.1048 59.6232 48.2274 59.9416 48.4567L60.3486 47.7699C59.9248 47.4349 59.5336 47.3039 58.9464 47.3039C57.6898 47.3039 56.8664 48.1704 56.8664 49.3558ZM67.7957 47.3039C67.3065 47.3039 66.9881 47.5332 66.7678 47.8765V47.4022H65.9276V51.3095H66.7762V49.1191C66.7762 48.4726 67.0535 48.1132 67.608 48.1132C67.7798 48.1132 67.959 48.1376 68.1383 48.2115L68.3997 47.4105C68.212 47.3366 67.9675 47.3039 67.7957 47.3039ZM45.0717 47.7128C44.6637 47.4433 44.1017 47.3039 43.4818 47.3039C42.4941 47.3039 41.8584 47.7783 41.8584 48.5549C41.8584 49.1921 42.3316 49.5851 43.2036 49.7076L43.6041 49.7648C44.069 49.8303 44.2884 49.9528 44.2884 50.1736C44.2884 50.4758 43.9785 50.648 43.3997 50.648C42.8125 50.648 42.3886 50.4599 42.1029 50.2391L41.7034 50.9007C42.1683 51.244 42.7555 51.4078 43.3913 51.4078C44.5171 51.4078 45.1697 50.8763 45.1697 50.1325C45.1697 49.4457 44.6562 49.0863 43.8077 48.9638L43.4081 48.9058C43.0412 48.8572 42.7471 48.7841 42.7471 48.5222C42.7471 48.2359 43.0244 48.0646 43.4893 48.0646C43.9869 48.0646 44.4686 48.2527 44.7048 48.3996L45.0717 47.7128ZM56.0094 47.3039C55.5202 47.3039 55.2018 47.5332 54.9824 47.8765V47.4022H54.1422V51.3095H54.9899V49.1191C54.9899 48.4726 55.2672 48.1132 55.8217 48.1132C55.9935 48.1132 56.1727 48.1376 56.352 48.2115L56.6134 47.4105C56.4257 47.3366 56.1812 47.3039 56.0094 47.3039ZM48.7751 47.4022H47.3888V46.2166H46.5318V47.4022H45.7411V48.1787H46.5318V49.9612C46.5318 50.8679 46.8828 51.4078 47.8855 51.4078C48.2533 51.4078 48.6771 51.2937 48.946 51.1056L48.7014 50.3776C48.4484 50.5245 48.1711 50.5984 47.9508 50.5984C47.527 50.5984 47.3888 50.3364 47.3888 49.9444V48.1787H48.7751V47.4022ZM36.1001 51.3095V48.8572C36.1001 47.9336 35.5129 47.3123 34.5662 47.3039C34.0687 47.2955 33.5552 47.4508 33.1958 47.9991C32.9269 47.5659 32.5031 47.3039 31.9075 47.3039C31.4911 47.3039 31.084 47.4265 30.7657 47.884V47.4022H29.9171V51.3095H30.7732V49.1435C30.7732 48.4651 31.1485 48.1048 31.7282 48.1048C32.2911 48.1048 32.5759 48.4726 32.5759 49.135V51.3095H33.4329V49.1435C33.4329 48.4651 33.824 48.1048 34.387 48.1048C34.9658 48.1048 35.2431 48.4726 35.2431 49.135V51.3095H36.1001Z" fill="#231F20"/>
<path d="M74.5518 38.3149V37.7441H74.4033L74.2316 38.1362L74.0607 37.7441H73.9114V38.3149H74.0169V37.8845L74.1774 38.256H74.2867L74.4472 37.8836V38.3149H74.5518ZM73.6099 38.3149V37.8415H73.8003V37.7451H73.3148V37.8415H73.5053V38.3149H73.6099Z" fill="#F79410"/>
<path d="M57.6729 40.7697H44.8256V17.6284H57.6729V40.7697Z" fill="#FF5F00"/>
<path d="M45.6486 29.1973C45.6486 24.503 47.8415 20.3214 51.2565 17.6267C48.7592 15.6561 45.6075 14.48 42.1823 14.48C34.0732 14.48 27.5 21.069 27.5 29.1973C27.5 37.3256 34.0732 43.9146 42.1823 43.9146C45.6075 43.9146 48.7592 42.7385 51.2565 40.7679C47.8415 38.0732 45.6486 33.8916 45.6486 29.1973Z" fill="#EB001B"/>
<path d="M75 29.1973C75 37.3256 68.4267 43.9146 60.3178 43.9146C56.8925 43.9146 53.7408 42.7385 51.2425 40.7679C54.6585 38.0732 56.8514 33.8916 56.8514 29.1973C56.8514 24.503 54.6585 20.3214 51.2425 17.6267C53.7408 15.6561 56.8925 14.48 60.3178 14.48C68.4267 14.48 75 21.069 75 29.1973Z" fill="#F79E1B"/>
</g>
</g>
<defs>
<clipPath id="clip0_440_10040">
<rect width="75.5" height="66" fill="white" transform="translate(13.5)"/>
</clipPath>
<clipPath id="clip1_440_10040">
<rect width="47.5" height="38" fill="white" transform="translate(27.5 14)"/>
</clipPath>
</defs>
</svg>
