<svg width="114" height="66" viewBox="0 0 114 66" fill="none" xmlns="http://www.w3.org/2000/svg">
<rect x="6.25" width="101.75" height="66" rx="6" fill="white"/>
<g clip-path="url(#clip0_440_10054)">
<g clip-path="url(#clip1_440_10054)">
<path d="M97.6969 26.7532C96.6138 26.0089 94.9744 25.6335 92.8256 25.6335H87.198L85.1058 37.0261H77.7334L78.2073 34.4414H82.6482L83.1745 31.5383L78.736 31.5447L79.2111 28.9715H83.7856L84.3942 25.6341H75.1046L73.1185 36.4408H69.7093L71.7089 25.6336H66.8528L64.8666 36.4403H61.5457L63.5472 25.6336H58.6936L56.5989 37.0262H49.1736L49.6429 34.4415H54.1018L54.6287 31.5549L50.1741 31.5504L50.6467 28.9721H55.2725L55.8773 25.6333H26.9289L25.2812 34.6612L21.9999 25.6333H16.9617L14.25 40.3667H19.0616L20.7029 31.0899L23.887 40.3667H41.1314L43.228 28.9706H45.9249L43.8283 40.3667H89.2016L90.5172 33.1731L92.6451 40.3667H97.4593L95.254 34.4886L95.7586 34.3797C96.8698 34.1408 97.7365 33.6277 98.34 32.8584C98.9428 32.082 99.25 31.0852 99.25 29.8879C99.25 28.494 98.7416 27.4685 97.6956 26.7524L97.6969 26.7532ZM36.9443 37.0261H29.579L30.0547 34.4414H34.6745L35.1982 31.5301H30.6229L31.0635 28.9722H38.4182L36.9429 37.0261H36.9443ZM93.7302 32.0635C93.2461 32.403 92.5442 32.5682 91.5845 32.5682H90.6328L91.3628 28.6145H92.0627C92.8598 28.6145 93.4409 28.7426 93.842 29.0039C94.1549 29.2089 94.5272 29.6144 94.5272 30.3812C94.5261 31.3088 94.0929 31.8071 93.7289 32.0634L93.7302 32.0635Z" fill="#83BA3B"/>
</g>
</g>
<defs>
<clipPath id="clip0_440_10054">
<rect width="113" height="66" fill="white" transform="translate(0.25)"/>
</clipPath>
<clipPath id="clip1_440_10054">
<rect width="85" height="14.875" fill="white" transform="translate(14.25 25.5625)"/>
</clipPath>
</defs>
</svg>
