<svg width="113" height="66" viewBox="0 0 113 66" fill="none" xmlns="http://www.w3.org/2000/svg">
<rect x="6" width="101.75" height="66" rx="6" fill="white"/>
<g clip-path="url(#clip0_440_10059)">
<g clip-path="url(#clip1_440_10059)">
<path d="M14 22.6516C15.4167 22.6516 16.8532 22.6346 18.2783 22.6374C18.6155 22.6374 19.0688 22.4873 19.2587 22.7054C19.4485 22.9236 19.3068 23.3373 19.3097 23.6688C19.3097 24.0484 19.3097 24.4309 19.3097 24.8984C19.633 24.4075 20.0135 23.9567 20.443 23.5554C22.6218 21.5948 26.3533 21.8554 28.4075 23.8813C29.5499 25.0412 30.2821 26.5425 30.4928 28.1568C30.8548 30.1003 30.7371 32.1028 30.15 33.9906C29.3935 36.2034 27.9598 37.7419 25.6167 38.2718C24.838 38.4743 24.027 38.5213 23.2301 38.4099C22.4333 38.2986 21.6662 38.0312 20.9728 37.6229C20.2947 37.216 19.7381 36.6349 19.3607 35.9399C19.2615 36.0334 19.3068 36.1383 19.3068 36.2233C19.3068 38.4701 19.3068 40.7141 19.3068 42.9581C19.3068 43.2046 19.253 43.2726 19.0008 43.2698C17.451 43.2698 15.9012 43.2698 14.3542 43.2698C14.2323 43.2698 14.1133 43.2698 13.9915 43.2896L14 22.6516ZM19.168 30.3016C19.1662 30.6555 19.1841 31.0093 19.2218 31.3613C19.2632 31.7126 19.3392 32.059 19.4485 32.3954C19.6199 33.0031 19.9949 33.5335 20.5107 33.8976C21.0266 34.2618 21.6518 34.4377 22.2818 34.3958C23.6617 34.3759 24.6392 33.6563 25.0188 32.3218C25.4027 31.0071 25.4027 29.6102 25.0188 28.2956C24.8787 27.696 24.5368 27.1628 24.0504 26.7852C23.564 26.4077 22.9626 26.2087 22.347 26.2216C20.9445 26.1876 19.95 26.8619 19.4797 28.1794C19.2475 28.8619 19.1419 29.5811 19.168 30.3016Z" fill="#010101"/>
<path d="M39.2337 22.1216C39.4787 22.2042 39.7326 22.2575 39.9902 22.2802C41.1867 22.5374 42.2327 23.2576 42.9 24.2834C42.968 24.3826 43.0332 24.4846 43.1579 24.6772V23.2294C43.1579 22.5381 43.1579 22.5381 43.8407 22.5381C45.28 22.5381 46.7194 22.5381 48.1559 22.5381C48.4052 22.5381 48.4704 22.6004 48.4675 22.8497C48.4675 27.8062 48.4675 32.7607 48.4675 37.7134C48.4675 37.9372 48.4194 38.0166 48.1842 38.0137C46.5919 38.0137 44.9986 38.0137 43.4044 38.0137C43.1834 38.0137 43.1579 37.9401 43.1607 37.7474C43.1607 37.0561 43.1607 36.3619 43.1607 35.6762C43.0984 35.6422 43.0814 35.6762 43.07 35.7074C41.7072 38.1072 39.0467 38.9176 36.4344 38.0194C34.4 37.3224 33.1449 35.8264 32.5527 33.8261C31.7679 31.1627 31.7849 28.4909 32.9125 25.9126C33.788 23.9292 35.2954 22.6316 37.4855 22.2292C37.5592 22.2292 37.6725 22.2491 37.7065 22.1301L39.2337 22.1216ZM37.4402 30.2589C37.4011 31.1236 37.559 31.9859 37.902 32.7806C38.0496 33.126 38.2741 33.4332 38.5584 33.6787C38.8427 33.9242 39.1793 34.1015 39.5425 34.1972C41.03 34.5882 42.4155 33.9139 42.9425 32.4491C43.4744 30.9578 43.4593 29.3261 42.9 27.8449C42.4864 26.7116 41.5995 26.1449 40.3982 26.1251C39.8518 26.0986 39.311 26.2455 38.8531 26.5446C38.3951 26.8438 38.0434 27.2801 37.8482 27.7911C37.5433 28.5767 37.4044 29.417 37.4402 30.2589Z" fill="#010101"/>
<path d="M59.0217 30.8679C59.3815 29.8536 59.7102 28.9328 60.0417 28.0119C60.6508 26.3119 61.2685 24.6119 61.872 22.9119C61.8772 22.869 61.891 22.8275 61.9124 22.7899C61.9338 22.7524 61.9625 22.7194 61.9968 22.6931C62.0311 22.6667 62.0703 22.6474 62.1121 22.6363C62.1539 22.6253 62.1975 22.6226 62.2403 22.6286C63.7335 22.6286 65.2267 22.6428 66.7198 22.6286C67.0032 22.6286 67.0202 22.7023 66.9238 22.9403C64.2359 29.6269 61.5509 36.3145 58.8687 43.0031C58.8063 43.1561 58.7638 43.2864 58.5315 43.2864C56.9392 43.2723 55.344 43.2864 53.7347 43.2864C53.7363 43.1174 53.7812 42.9516 53.865 42.8048C54.6206 40.8158 55.3818 38.8324 56.1487 36.8548C56.1948 36.7569 56.2188 36.6499 56.2188 36.5417C56.2188 36.4334 56.1948 36.3265 56.1487 36.2286C54.1823 31.8407 52.2217 27.4538 50.2667 23.0678C50.21 22.9374 50.159 22.8071 50.1052 22.6768C50.2235 22.6282 50.3533 22.6144 50.4792 22.6371C52.1395 22.6371 53.7998 22.6371 55.4602 22.6371C55.5719 22.6159 55.6875 22.639 55.7827 22.7013C55.8778 22.7637 55.945 22.8605 55.9702 22.9714C56.9675 25.5696 57.979 28.1706 59.0217 30.8679Z" fill="#010101"/>
<path d="M73.8003 34.0699H78.413C79.1978 34.0699 79.9855 34.0699 80.7703 34.0699C80.9687 34.0699 81.0367 34.1124 81.0338 34.3221C81.0338 35.4951 81.0338 36.6681 81.0338 37.8411C81.0338 38.0309 80.9998 38.1244 80.7817 38.1244C76.3673 38.1244 71.9511 38.1244 67.533 38.1244C67.329 38.1244 67.3007 38.0479 67.3007 37.8722C67.3007 36.7899 67.3007 35.7047 67.3007 34.6224C67.3064 34.5403 67.3293 34.4603 67.3679 34.3876C67.4064 34.3149 67.4598 34.2511 67.5245 34.2002L74.1233 26.8817L74.282 26.7032C74.2027 26.6041 74.0978 26.6551 73.9987 26.6551C72.174 26.6551 70.3465 26.6551 68.5218 26.6551C68.2017 26.6551 68.1507 26.5559 68.1507 26.2697C68.1507 25.1619 68.1507 24.0569 68.1167 22.9519C68.1167 22.6969 68.1847 22.6431 68.4312 22.6431C72.3582 22.6431 76.2871 22.6431 80.2178 22.6431C80.5012 22.6431 80.5352 22.7422 80.5323 22.9831C80.5323 24.0767 80.5323 25.1732 80.5323 26.2669C80.5352 26.3587 80.5197 26.4501 80.4866 26.5358C80.4535 26.6214 80.4035 26.6996 80.3397 26.7656C78.2524 29.0832 76.1671 31.4075 74.0837 33.7384C74.0015 33.8347 73.925 33.9254 73.8003 34.0699Z" fill="#010101"/>
<path d="M91.265 43.8787C95.537 43.8787 99 40.4156 99 36.1437C99 31.8718 95.537 28.4087 91.265 28.4087C86.9931 28.4087 83.53 31.8718 83.53 36.1437C83.53 40.4156 86.9931 43.8787 91.265 43.8787Z" fill="#DCF915"/>
</g>
</g>
<defs>
<clipPath id="clip0_440_10059">
<rect width="113" height="66" fill="white"/>
</clipPath>
<clipPath id="clip1_440_10059">
<rect width="85" height="21.7572" fill="white" transform="translate(14 22.1216)"/>
</clipPath>
</defs>
</svg>
