<svg width="120" height="40" viewBox="0 0 120 40" fill="none" xmlns="http://www.w3.org/2000/svg">
<g clip-path="url(#clip0_440_10115)">
<g clip-path="url(#clip1_440_10115)">
<g clip-path="url(#clip2_440_10115)">
<g clip-path="url(#clip3_440_10115)">
<path d="M20.0486 40.0002C31.1147 40.0002 40.0855 31.0293 40.0855 19.9632C40.0855 8.89712 31.1147 -0.0737305 20.0486 -0.0737305C8.98245 -0.0737305 0.0115967 8.89712 0.0115967 19.9632C0.0115967 31.0293 8.98245 40.0002 20.0486 40.0002Z" fill="#82B62E"/>
<path d="M27.208 8.62744H19.9604H19.9596H12.7128C12.7128 8.62744 11.6061 10.5606 10.0885 10.7353C4.70563 29.2447 19.952 33.8163 19.9604 33.8194H19.9616C19.9712 33.8163 35.2176 29.2447 29.8348 10.7353C28.3126 10.5597 27.208 8.62744 27.208 8.62744Z" fill="#99CC33"/>
<path d="M32.3782 9.17678L32.2336 8.68695L31.663 8.62159C30.5797 8.49926 29.5176 7.07818 29.2324 6.58852L28.9918 6.18115H10.9262L10.6887 6.58955C10.4035 7.07801 9.34989 8.49823 8.25748 8.62159L7.68552 8.68695L7.54129 9.17678C1.02222 31.2133 19.5284 36.6848 19.719 36.734L19.9649 36.7977L20.2118 36.7323C20.3989 36.681 38.8489 31.0459 32.3782 9.17678ZM19.9604 35.2187C17.7298 34.4599 3.71741 28.8716 9.06674 9.98758C10.4683 9.56995 11.4827 8.34032 11.9445 7.67991H27.9762C28.4383 8.34032 29.4515 9.57115 30.8541 9.98758C36.2031 28.8726 22.1891 34.4599 19.9604 35.2187Z" fill="white"/>
<path d="M24.023 17.2799H23.4664C23.4664 14.7136 21.9838 13.3828 19.9406 13.3828C17.8976 13.3828 16.4149 14.7136 16.4149 17.2799H15.8582C15.0383 17.2799 14.7134 17.5966 14.7134 18.4166V23.6125C14.7134 24.4324 15.0383 25.1501 15.8582 25.1501H24.0232C24.843 25.1501 25.3211 24.4324 25.3211 23.6125V18.4166C25.3209 17.5966 24.843 17.2799 24.023 17.2799ZM20.8684 23.6103H19.0128L19.3692 21.0236C19.0044 20.8188 18.7577 20.3832 18.7577 19.9352C18.7577 19.2757 19.2923 18.7178 19.9521 18.7178C20.6118 18.7178 21.1466 19.2415 21.1466 19.9012C21.1466 20.3578 20.8903 20.8401 20.5134 21.0413L20.8684 23.6103ZM17.5284 17.2799C17.5284 14.8846 18.7399 14.4963 19.9406 14.4963C21.1415 14.4963 22.3533 14.8846 22.3533 17.2799H17.5284Z" fill="white"/>
<path d="M48.5441 15.8091C48.9449 15.8091 49.2755 15.7757 49.5369 15.709C49.7978 15.6423 50.0074 15.5512 50.1653 15.4358C50.3231 15.3204 50.4324 15.1839 50.4933 15.0258C50.5539 14.8683 50.5843 14.692 50.5843 14.4977C50.5843 14.085 50.3898 13.7418 50.0014 13.4684C49.6127 13.1952 48.9449 12.9009 47.9978 12.5849C47.5848 12.4391 47.1718 12.2725 46.7591 12.0839C46.3463 11.8957 45.9758 11.6591 45.648 11.3736C45.3202 11.0883 45.0528 10.7422 44.8465 10.3352C44.6398 9.92852 44.5368 9.43355 44.5368 8.85065C44.5368 8.26774 44.6461 7.74249 44.8646 7.27507C45.0831 6.80782 45.3929 6.40987 45.7936 6.08188C46.1945 5.7539 46.6801 5.50206 47.251 5.326C47.8216 5.15012 48.4652 5.06201 49.1817 5.06201C50.0317 5.06201 50.7666 5.15303 51.3859 5.33524C52.0053 5.51746 52.5153 5.7178 52.916 5.93646L52.0963 8.17689C51.7438 7.99485 51.3522 7.83402 50.9214 7.69424C50.4901 7.5548 49.971 7.48466 49.3638 7.48466C48.6835 7.48466 48.1949 7.57893 47.8975 7.76696C47.5998 7.95533 47.4513 8.24379 47.4513 8.63216C47.4513 8.86296 47.5059 9.05732 47.6152 9.21507C47.7247 9.37299 47.8794 9.51568 48.0797 9.64314C48.2803 9.77077 48.5107 9.88626 48.772 9.98926C49.0329 10.0926 49.3213 10.1988 49.6374 10.308C50.2931 10.5511 50.8637 10.7906 51.3496 11.0276C51.8352 11.2644 52.239 11.5407 52.561 11.8564C52.8826 12.1722 53.1225 12.5426 53.2804 12.9674C53.4381 13.3926 53.5172 13.9086 53.5172 14.5158C53.5172 15.6938 53.1043 16.6077 52.2787 17.2572C51.4526 17.907 50.2079 18.2317 48.5444 18.2317C47.9858 18.2317 47.4818 18.1982 47.0327 18.1315C46.5832 18.0646 46.1856 17.9826 45.8395 17.8856C45.4934 17.7886 45.1957 17.6853 44.9469 17.5759C44.6978 17.4666 44.4884 17.3636 44.3185 17.2663L45.1199 15.0075C45.4961 15.2142 45.9606 15.3991 46.5136 15.5631C47.0657 15.7271 47.7429 15.8091 48.5441 15.8091Z" fill="#999999"/>
<path d="M59.1452 15.8091C59.5461 15.8091 59.8766 15.7757 60.1381 15.709C60.399 15.6423 60.6086 15.5512 60.7665 15.4358C60.9242 15.3204 61.0335 15.1839 61.0945 15.0258C61.155 14.8683 61.1855 14.692 61.1855 14.4977C61.1855 14.085 60.9909 13.7418 60.6026 13.4684C60.2139 13.1952 59.5461 12.9009 58.5989 12.5849C58.1859 12.4391 57.7729 12.2725 57.3602 12.0839C56.9474 11.8957 56.577 11.6591 56.2492 11.3736C55.9214 11.0883 55.6539 10.7422 55.4476 10.3352C55.2409 9.92852 55.1379 9.43355 55.1379 8.85065C55.1379 8.26774 55.2473 7.74249 55.4657 7.27507C55.6842 6.80782 55.9941 6.40987 56.3948 6.08188C56.7956 5.7539 57.2812 5.50206 57.8521 5.326C58.4227 5.15012 59.0663 5.06201 59.7829 5.06201C60.6328 5.06201 61.3677 5.15303 61.987 5.33524C62.6064 5.51746 63.1164 5.7178 63.5171 5.93646L62.6974 8.17689C62.345 7.99485 61.9533 7.83402 61.5225 7.69424C61.0912 7.5548 60.5721 7.48466 59.9649 7.48466C59.2847 7.48466 58.796 7.57893 58.4987 7.76696C58.201 7.95533 58.0525 8.24379 58.0525 8.63216C58.0525 8.86296 58.107 9.05732 58.2164 9.21507C58.3259 9.37299 58.4805 9.51568 58.6809 9.64314C58.8814 9.77077 59.1119 9.88626 59.3731 9.98926C59.634 10.0926 59.9225 10.1988 60.2385 10.308C60.8943 10.5511 61.4649 10.7906 61.9508 11.0276C62.4363 11.2644 62.8401 11.5407 63.1621 11.8564C63.4837 12.1722 63.7236 12.5426 63.8815 12.9674C64.0393 13.3926 64.1185 13.9086 64.1185 14.5158C64.1185 15.6938 63.7055 16.6077 62.8798 17.2572C62.0538 17.907 60.8091 18.2317 59.1456 18.2317C58.587 18.2317 58.0829 18.1982 57.6338 18.1315C57.1843 18.0646 56.7867 17.9826 56.4406 17.8856C56.0945 17.7886 55.7968 17.6853 55.548 17.5759C55.2989 17.4666 55.0895 17.3636 54.9196 17.2663L55.721 15.0075C56.0972 15.2142 56.5617 15.3991 57.1147 15.5631C57.6668 15.7271 58.344 15.8091 59.1452 15.8091Z" fill="#999999"/>
<path d="M74.7376 15.536V17.9769H66.3038V5.35352H69.1453V15.536H74.7376Z" fill="#999999"/>
<path d="M48.5441 31.8135C48.9449 31.8135 49.2755 31.7801 49.5369 31.7134C49.7978 31.6467 50.0074 31.5556 50.1653 31.4402C50.3231 31.3248 50.4324 31.1883 50.4933 31.0302C50.5539 30.8726 50.5843 30.6964 50.5843 30.5021C50.5843 30.0894 50.3898 29.7462 50.0014 29.4728C49.6127 29.1995 48.9449 28.9053 47.9978 28.5893C47.5848 28.4435 47.1718 28.2769 46.7591 28.0883C46.3463 27.9001 45.9758 27.6635 45.648 27.3779C45.3202 27.0927 45.0528 26.7466 44.8465 26.3396C44.6398 25.9329 44.5368 25.4379 44.5368 24.855C44.5368 24.2721 44.6461 23.7469 44.8646 23.2795C45.0831 22.8122 45.3929 22.4143 45.7936 22.0863C46.1945 21.7583 46.6801 21.5065 47.251 21.3304C47.8216 21.1545 48.4652 21.0664 49.1817 21.0664C50.0317 21.0664 50.7666 21.1574 51.3859 21.3396C52.0053 21.5218 52.5153 21.7222 52.916 21.9409L52.0963 24.1813C51.7438 23.9992 51.3522 23.8384 50.9214 23.6986C50.4901 23.5592 49.971 23.4891 49.3638 23.4891C48.6835 23.4891 48.1949 23.5833 47.8975 23.7714C47.5998 23.9597 47.4513 24.2482 47.4513 24.6366C47.4513 24.8674 47.5059 25.0617 47.6152 25.2195C47.7247 25.3774 47.8794 25.5201 48.0797 25.6475C48.2803 25.7752 48.5107 25.8907 48.772 25.9936C49.0329 26.097 49.3213 26.2032 49.6374 26.3124C50.2931 26.5555 50.8637 26.795 51.3496 27.032C51.8352 27.2688 52.239 27.5451 52.561 27.8608C52.8826 28.1766 53.1225 28.547 53.2804 28.9718C53.4381 29.397 53.5172 29.913 53.5172 30.5202C53.5172 31.6982 53.1043 32.6121 52.2787 33.2616C51.4526 33.9114 50.2079 34.2361 48.5444 34.2361C47.9858 34.2361 47.4818 34.2026 47.0327 34.1359C46.5832 34.069 46.1856 33.987 45.8395 33.89C45.4934 33.793 45.1957 33.6897 44.9469 33.5803C44.6978 33.471 44.4884 33.368 44.3185 33.2707L45.1199 31.0119C45.4961 31.2186 45.9606 31.4035 46.5136 31.5674C47.0657 31.7315 47.7429 31.8135 48.5441 31.8135Z" fill="#666666"/>
<path d="M55.7025 33.9812V21.3579H64.2275V23.7441H58.5442V26.2213H63.5898V28.5528H58.5442V31.5948H64.6463V33.981L55.7025 33.9812Z" fill="#666666"/>
<path d="M72.4968 34.2361C70.4446 34.2361 68.8812 33.6655 67.8064 32.5238C66.7317 31.3825 66.1943 29.7614 66.1943 27.6602C66.1943 26.6159 66.3582 25.684 66.6862 24.8643C67.014 24.0446 67.4631 23.3524 68.0341 22.7878C68.6048 22.223 69.2848 21.7949 70.0743 21.5035C70.8634 21.212 71.7195 21.0664 72.6427 21.0664C73.1769 21.0664 73.6628 21.1059 74.0999 21.1848C74.5372 21.2638 74.9196 21.355 75.2476 21.458C75.5754 21.5614 75.8487 21.6674 76.0673 21.7768C76.2858 21.8861 76.4435 21.9711 76.5409 22.0319L75.7212 24.3271C75.3325 24.1207 74.8803 23.9445 74.3641 23.7989C73.8477 23.6531 73.2621 23.5804 72.6065 23.5804C72.1692 23.5804 71.7411 23.6533 71.3223 23.7989C70.9033 23.9447 70.5327 24.1785 70.211 24.5002C69.8892 24.822 69.631 25.2379 69.437 25.748C69.2425 26.258 69.1457 26.8773 69.1457 27.6058C69.1457 28.1887 69.2093 28.7323 69.3368 29.2362C69.4642 29.7402 69.6706 30.1743 69.9561 30.5385C70.2413 30.9028 70.6148 31.1914 71.0764 31.4037C71.5377 31.6164 72.0965 31.7225 72.7522 31.7225C73.1649 31.7225 73.5355 31.6982 73.8633 31.6496C74.1911 31.6012 74.4827 31.5433 74.7376 31.4764C74.9925 31.4099 75.2172 31.3339 75.4115 31.2487C75.6057 31.1638 75.7818 31.0848 75.9397 31.0119L76.7229 33.2888C76.3222 33.5319 75.7575 33.7504 75.029 33.9446C74.3003 34.1388 73.4561 34.2361 72.4968 34.2361Z" fill="#666666"/>
<path d="M83.4808 34.2359C82.5942 34.2359 81.8293 34.1112 81.1858 33.8624C80.542 33.6137 80.0109 33.2676 79.5919 32.8241C79.1731 32.381 78.8634 31.8526 78.6629 31.2395C78.4626 30.6264 78.3623 29.9493 78.3623 29.2084V21.3576H81.2039V28.9716C81.2039 29.4817 81.2614 29.9161 81.3771 30.274C81.4922 30.6324 81.6503 30.9238 81.8507 31.1483C82.051 31.3731 82.2938 31.5339 82.5793 31.6309C82.8646 31.7283 83.1773 31.7767 83.5174 31.7767C84.2095 31.7767 84.771 31.5644 85.2023 31.139C85.6333 30.7142 85.8489 29.9915 85.8489 28.9715V21.3574H88.6905V29.2083C88.6905 29.9491 88.5872 30.629 88.3807 31.2484C88.1742 31.8677 87.8584 32.3991 87.4335 32.8421C87.0084 33.2855 86.4681 33.6286 85.8123 33.8713C85.1565 34.1141 84.3794 34.2359 83.4808 34.2359Z" fill="#666666"/>
<path d="M95.1201 21.2119C97.0145 21.2119 98.4655 21.549 99.4735 22.2229C100.481 22.8968 100.985 23.9442 100.985 25.3651C100.985 26.2517 100.782 26.9712 100.375 27.5236C99.9683 28.0762 99.3825 28.5105 98.6176 28.826C98.8725 29.142 99.1396 29.5031 99.4191 29.9097C99.6984 30.3167 99.9747 30.7417 100.248 31.1848C100.521 31.6283 100.785 32.0897 101.04 32.5693C101.295 33.0492 101.532 33.5195 101.751 33.9809H98.5743C98.3426 33.5683 98.1077 33.1493 97.8701 32.7241C97.6324 32.2993 97.389 31.8863 97.139 31.4854C96.889 31.0845 96.6422 30.7052 96.3985 30.347C96.1545 29.989 95.9106 29.664 95.6671 29.3724H94.2645V33.9809H91.423V21.5399C92.0422 21.4188 92.6826 21.3336 93.3446 21.2848C94.0058 21.2364 94.5978 21.2119 95.1201 21.2119ZM95.284 23.6346C95.0775 23.6346 94.8924 23.6409 94.7285 23.6527C94.5646 23.6648 94.4098 23.6772 94.264 23.6891V27.1137H95.0656C96.134 27.1137 96.8991 26.9802 97.3607 26.713C97.822 26.4459 98.0528 25.9907 98.0528 25.3468C98.0528 24.7275 97.8189 24.2874 97.3515 24.0262C96.8837 23.7653 96.1948 23.6346 95.284 23.6346Z" fill="#666666"/>
<path d="M103.572 33.9812V21.3579H112.097V23.7441H106.413V26.2213H111.459V28.5528H106.413V31.5948H112.516V33.981L103.572 33.9812Z" fill="#666666"/>
</g>
</g>
</g>
</g>
<defs>
<clipPath id="clip0_440_10115">
<rect width="120" height="40" fill="white"/>
</clipPath>
<clipPath id="clip1_440_10115">
<rect width="172.64" height="40" fill="white"/>
</clipPath>
<clipPath id="clip2_440_10115">
<rect width="172.64" height="40" fill="white"/>
</clipPath>
<clipPath id="clip3_440_10115">
<rect width="172.641" height="40" fill="white" transform="translate(-0.000549316)"/>
</clipPath>
</defs>
</svg>
