<svg width="114" height="66" viewBox="0 0 114 66" fill="none" xmlns="http://www.w3.org/2000/svg">
<rect x="6.5" width="101.75" height="66" rx="6" fill="white"/>
<g clip-path="url(#clip0_440_10049)">
<g clip-path="url(#clip1_440_10049)">
<path fill-rule="evenodd" clip-rule="evenodd" d="M75.5557 25.4408C77.4828 25.4408 79.0446 23.8758 79.0446 21.9461C79.0446 20.0152 77.4828 18.4487 75.5557 18.4487C73.631 18.4487 72.0699 20.0152 72.0699 21.9461C72.0699 23.8758 73.631 25.4408 75.5557 25.4408ZM48.8355 27.3281C48.6781 27.7245 47.545 30.9328 44.8046 34.2581V20.04L37.503 21.4865V47.2585H44.8046V39.2922C46.9194 42.4716 47.9636 47.2585 47.9636 47.2585H56.7095C55.8444 43.6533 52.0601 37.0059 52.0601 37.0059C55.4565 32.6894 56.9483 28.09 57.1855 27.3281H48.8355ZM68.0311 27.059C61.4912 27.2694 58.1713 30.2107 58.1713 36.0575V47.2585H65.3061V38.1244C65.3061 34.6233 65.7634 33.1226 69.9079 32.9794V27.1616C69.2104 27.0132 68.0311 27.059 68.0311 27.059ZM25.2575 30.166C24.3632 30.1069 22.2926 29.9729 22.2926 28.1043C22.2926 25.8496 25.2736 25.8496 26.3917 25.8496C28.3577 25.8496 30.9038 26.4319 32.7222 26.9771C32.7222 26.9771 33.7365 27.3356 34.5996 27.7027L34.6798 27.7245V21.5493L34.5697 21.5166C32.4238 20.764 29.9286 20.04 25.3024 20.04C17.3262 20.04 14.5 24.6979 14.5 28.6882C14.5 30.9885 15.4835 36.4021 24.6184 37.0265C25.3929 37.0742 27.4479 37.193 27.4479 39.1239C27.4479 40.718 25.7654 41.6581 22.9355 41.6581C19.8341 41.6581 16.8258 40.8654 14.9985 40.1136V46.4736C17.734 47.1924 20.8177 47.5515 24.4318 47.5515C32.2308 47.5515 35.7238 43.1446 35.7238 38.7766C35.7238 33.8241 31.815 30.6063 25.2575 30.166ZM72.0189 47.2585H79.096V27.3506H72.0189V47.2585ZM92.4218 21.3092V47.2585H99.5V20.04L92.4218 21.3092ZM82.0938 21.3092L89.1653 20.04V47.2585H82.0938V21.3092Z" fill="url(#paint0_linear_440_10049)"/>
</g>
</g>
<defs>
<linearGradient id="paint0_linear_440_10049" x1="37.4874" y1="18.4487" x2="43.9044" y2="54.34" gradientUnits="userSpaceOnUse">
<stop stop-color="#6B195F"/>
<stop offset="1" stop-color="#4C255B"/>
</linearGradient>
<clipPath id="clip0_440_10049">
<rect width="113" height="66" fill="white" transform="translate(0.5)"/>
</clipPath>
<clipPath id="clip1_440_10049">
<rect width="85" height="29.75" fill="white" transform="translate(14.5 18.125)"/>
</clipPath>
</defs>
</svg>
