<svg width="113" height="66" viewBox="0 0 113 66" fill="none" xmlns="http://www.w3.org/2000/svg">
<rect x="6" width="101.75" height="66" rx="6" fill="white"/>
<g clip-path="url(#clip0_440_10031)">
<g clip-path="url(#clip1_440_10031)">
<path d="M14 20.3191C14 20.6636 14.2986 20.8245 15.3324 21.0312C17.0095 21.4218 20.1338 22.5934 20.9608 23.1677C21.3054 23.4204 21.7189 23.9028 21.9027 24.2245C22.0635 24.5691 23.4189 29.6231 24.9351 35.4812L27.6689 46.0947L31.3216 46.0488L34.9743 45.9799L40.35 33.2299C43.2905 26.2231 45.7027 20.4109 45.7027 20.2961C45.7027 20.2042 44.1176 20.1353 42.2108 20.1353H38.6959L35.25 28.865C33.3662 33.6663 31.7581 37.5947 31.6892 37.5947C31.6203 37.5947 30.9081 34.1028 30.127 29.8299C29.3 25.442 28.4959 21.7893 28.2892 21.4218C28.0824 21.0542 27.5311 20.5718 27.0946 20.342C26.3824 19.9515 25.7162 19.9055 20.1568 19.9055C14.3216 19.9055 14 19.9285 14 20.3191Z" fill="#1A1F71"/>
<path d="M48.8041 20.1812C48.7351 20.342 47.4716 26.2461 45.9784 33.2758L43.2676 46.0947H46.6676C48.5284 46.0947 50.0676 46.0488 50.0676 46.0028C50.0676 45.865 55.3284 21.1231 55.5122 20.4109L55.627 19.9055H52.273C49.7919 19.9055 48.873 19.9745 48.8041 20.1812Z" fill="#1A1F71"/>
<path d="M64.196 20.2271C61.5541 21.0771 59.3257 22.823 58.3379 24.8446C57.9243 25.6716 57.7406 26.4757 57.6946 27.7852C57.6027 29.3473 57.6716 29.7149 58.2 30.8176C58.9352 32.2879 60.2906 33.5514 62.2892 34.6081C67.1135 37.1352 68.0095 38.3068 66.3095 40.0068C64.8622 41.4541 61.3243 41.546 57.6716 40.2365C56.8446 39.9379 56.1324 39.7311 56.0635 39.7771C55.9487 39.9149 54.9149 44.4865 54.8919 44.9689C54.8919 45.2446 55.3054 45.4744 56.3392 45.75C57.5108 46.0487 58.6135 46.1176 62.5879 46.0487L67.4122 45.9798L68.9514 45.2217C72.1216 43.6825 74.0054 40.9027 74.0284 37.7554C74.0514 34.7689 72.65 32.8392 69.1122 30.9095C66.3095 29.3703 65.1608 28.5892 64.7703 27.8771C64.4716 27.3257 64.4716 27.1879 64.7703 26.6135C65.6662 25.0054 69.227 24.5689 72.4892 25.6716L74.1433 26.246L74.6716 23.696C74.9703 22.3176 75.223 21.0771 75.223 20.9392C75.223 20.8244 74.6487 20.5487 73.9595 20.3189C72.3743 19.8365 65.6662 19.7676 64.196 20.2271Z" fill="#1A1F71"/>
<path d="M85.5608 20.2271C85.1933 20.3879 84.7108 20.7325 84.5041 20.9623C84.2743 21.215 81.977 26.5217 79.3581 32.7704C76.7392 39.019 74.4189 44.5785 74.1892 45.1069L73.7527 46.0947H77.2676H80.8054L81.4487 44.2109L82.1149 42.3042L86.5027 42.2352L90.8676 42.1893L91.327 44.0731L91.7865 45.9798L94.9338 46.0488L98.1041 46.1177L97.9433 45.4744C97.8514 45.1298 96.6108 39.2488 95.2095 32.4258L92.6365 20.0204L89.4433 19.9744C87.1689 19.9285 86.0433 19.9974 85.5608 20.2271ZM88.7541 31.9663C89.2365 34.2406 89.65 36.2852 89.7189 36.492C89.8338 36.8596 89.6041 36.9055 87.077 36.9055C85.5379 36.9055 84.2973 36.8366 84.2973 36.7677C84.2973 36.2623 87.6284 27.5096 87.7433 27.6474C87.8581 27.7393 88.2946 29.692 88.7541 31.9663Z" fill="#1A1F71"/>
</g>
</g>
<defs>
<clipPath id="clip0_440_10031">
<rect width="113" height="66" fill="white"/>
</clipPath>
<clipPath id="clip1_440_10031">
<rect width="85" height="26.1892" fill="white" transform="translate(14 19.9053)"/>
</clipPath>
</defs>
</svg>
