<svg width="55" height="55" viewBox="0 0 55 55" fill="none" xmlns="http://www.w3.org/2000/svg">
<rect x="1.5" y="1.00342" width="52" height="53" rx="26" stroke="#F96464" stroke-width="2"/>
<path d="M18.3984 19.7554V34.0034H15.5859V22.9976L12.207 24.0718V21.855L18.0957 19.7554H18.3984ZM32.6074 30.1069C32.6074 30.9989 32.3991 31.7508 31.9824 32.3628C31.5658 32.9683 30.9928 33.4272 30.2637 33.7397C29.541 34.0457 28.7207 34.1987 27.8027 34.1987C26.8848 34.1987 26.0612 34.0457 25.332 33.7397C24.6029 33.4272 24.0267 32.9683 23.6035 32.3628C23.1803 31.7508 22.9688 30.9989 22.9688 30.1069C22.9688 29.508 23.0892 28.9676 23.3301 28.4858C23.571 27.9976 23.9062 27.5809 24.3359 27.2358C24.7721 26.8843 25.2832 26.6174 25.8691 26.4351C26.4551 26.2463 27.0931 26.1519 27.7832 26.1519C28.7077 26.1519 29.5345 26.3146 30.2637 26.6401C30.9928 26.9657 31.5658 27.4246 31.9824 28.0171C32.3991 28.6095 32.6074 29.3062 32.6074 30.1069ZM29.7754 29.9214C29.7754 29.4852 29.6908 29.1108 29.5215 28.7983C29.3587 28.4793 29.1276 28.2352 28.8281 28.0659C28.5286 27.8966 28.1803 27.812 27.7832 27.812C27.3861 27.812 27.0378 27.8966 26.7383 28.0659C26.4388 28.2352 26.2044 28.4793 26.0352 28.7983C25.8724 29.1108 25.791 29.4852 25.791 29.9214C25.791 30.3511 25.8724 30.7222 26.0352 31.0347C26.2044 31.3472 26.4388 31.5881 26.7383 31.7573C27.0443 31.9201 27.3991 32.0015 27.8027 32.0015C28.2064 32.0015 28.5547 31.9201 28.8477 31.7573C29.1471 31.5881 29.375 31.3472 29.5312 31.0347C29.694 30.7222 29.7754 30.3511 29.7754 29.9214ZM32.3047 23.5542C32.3047 24.2769 32.1126 24.9181 31.7285 25.478C31.3444 26.0314 30.8105 26.4644 30.127 26.7769C29.4499 27.0894 28.6751 27.2456 27.8027 27.2456C26.9238 27.2456 26.1426 27.0894 25.459 26.7769C24.7754 26.4644 24.2415 26.0314 23.8574 25.478C23.4733 24.9181 23.2812 24.2769 23.2812 23.5542C23.2812 22.6948 23.4733 21.9722 23.8574 21.3862C24.248 20.7938 24.7819 20.3446 25.459 20.0386C26.1426 19.7326 26.9173 19.5796 27.7832 19.5796C28.6621 19.5796 29.4401 19.7326 30.1172 20.0386C30.8008 20.3446 31.3346 20.7938 31.7188 21.3862C32.1094 21.9722 32.3047 22.6948 32.3047 23.5542ZM29.4922 23.6812C29.4922 23.297 29.4238 22.965 29.2871 22.6851C29.1504 22.3986 28.9551 22.1772 28.7012 22.021C28.4538 21.8647 28.1478 21.7866 27.7832 21.7866C27.4316 21.7866 27.1289 21.8615 26.875 22.0112C26.6276 22.161 26.4355 22.3791 26.2988 22.6655C26.1686 22.9455 26.1035 23.284 26.1035 23.6812C26.1035 24.0653 26.1686 24.4038 26.2988 24.6968C26.4355 24.9832 26.6309 25.2078 26.8848 25.3706C27.1387 25.5334 27.4447 25.6147 27.8027 25.6147C28.1608 25.6147 28.4635 25.5334 28.7109 25.3706C28.9648 25.2078 29.1569 24.9832 29.2871 24.6968C29.4238 24.4038 29.4922 24.0653 29.4922 23.6812ZM43.8281 26.0835V28.5347H34.082V26.0835H43.8281ZM40.293 22.2261V32.5776H37.627V22.2261H40.293Z" fill="#F96464"/>
</svg>
