<svg width="48" height="48" viewBox="0 0 48 48" fill="none" xmlns="http://www.w3.org/2000/svg">
<rect width="48" height="48" rx="24" fill="#8D30FF"/>
<g clip-path="url(#clip0_440_9992)">
<path d="M23.0114 19.3862L14.4114 27.5093C14.2817 27.6283 14.1782 27.773 14.1074 27.9341C14.0366 28.0953 14 28.2694 14 28.4454C14 28.6214 14.0366 28.7956 14.1074 28.9567C14.1782 29.1179 14.2817 29.2625 14.4114 29.3816C14.681 29.6311 15.0348 29.7698 15.4022 29.7698C15.7696 29.7698 16.1234 29.6311 16.393 29.3816L24.0022 22.1923L31.6114 29.38C31.8811 29.6288 32.2345 29.767 32.6014 29.767C32.9683 29.767 33.3218 29.6288 33.5914 29.38C33.7206 29.2609 33.8238 29.1163 33.8943 28.9553C33.9649 28.7943 34.0013 28.6204 34.0013 28.4447C34.0013 28.2689 33.9649 28.095 33.8943 27.934C33.8238 27.773 33.7206 27.6284 33.5914 27.5093L24.9914 19.3862C24.7231 19.1359 24.3692 18.9977 24.0022 19C23.6347 18.9975 23.2802 19.1356 23.0114 19.3862Z" fill="white"/>
</g>
<defs>
<clipPath id="clip0_440_9992">
<rect width="20" height="20" fill="white" transform="translate(14 14)"/>
</clipPath>
</defs>
</svg>
