<svg width="12" height="13" viewBox="0 0 12 13" fill="none" xmlns="http://www.w3.org/2000/svg">
<g clip-path="url(#clip0_440_11004)">
<path d="M5.40554 9.76829L0.245543 4.89444C0.167738 4.82302 0.105619 4.73621 0.0631245 4.63952C0.0206303 4.54283 -0.00131226 4.43836 -0.00131226 4.33275C-0.00131226 4.22713 0.0206303 4.12267 0.0631245 4.02598C0.105619 3.92929 0.167738 3.84248 0.245543 3.77106C0.407293 3.62132 0.61959 3.53814 0.840005 3.53814C1.06042 3.53814 1.27272 3.62132 1.43447 3.77106L6.00001 8.08459L10.5655 3.77198C10.7273 3.62271 10.9394 3.53983 11.1595 3.53983C11.3797 3.53983 11.5917 3.62271 11.7535 3.77198C11.8311 3.84347 11.893 3.93024 11.9353 4.02684C11.9776 4.12343 11.9995 4.22775 11.9995 4.33321C11.9995 4.43867 11.9776 4.54299 11.9353 4.63958C11.893 4.73618 11.8311 4.82295 11.7535 4.89444L6.59354 9.76829C6.43254 9.91847 6.22018 10.0014 6.00001 9.99998C5.77953 10.0015 5.56683 9.91861 5.40554 9.76829Z" fill="white"/>
</g>
<defs>
<clipPath id="clip0_440_11004">
<rect width="12" height="12" fill="white" transform="matrix(1 0 0 -1 0 12.5)"/>
</clipPath>
</defs>
</svg>
